{"glyphs":{"0":{"ha":833,"x_min":99,"x_max":735,"o":"m 417 -17 q 183 103 268 -17 q 99 446 99 224 q 183 786 99 669 q 417 903 268 903 q 650 786 565 903 q 735 446 735 669 q 650 103 735 224 q 417 -17 565 -17 m 417 811 q 332 790 371 811 q 265 724 293 769 q 221 610 236 679 q 206 446 206 542 q 265 165 206 256 q 417 75 324 75 q 569 165 510 75 q 628 446 628 256 q 613 610 628 542 q 569 724 597 679 q 501 790 540 769 q 417 811 463 811 m 417 363 q 356 387 382 363 q 331 456 331 411 q 356 523 331 499 q 417 547 382 547 q 477 523 451 547 q 503 456 503 499 q 477 387 503 411 q 417 363 451 363 z "},"1":{"ha":833,"x_min":136,"x_max":733,"o":"m 733 94 l 733 0 l 136 0 l 136 94 l 388 94 l 388 747 l 199 747 l 199 821 q 322 848 269 832 q 417 886 375 864 l 501 886 l 501 94 l 733 94 z "},"2":{"ha":833,"x_min":96,"x_max":725,"o":"m 101 68 q 301 249 214 168 q 447 397 388 329 q 536 522 506 464 q 567 636 567 581 q 519 761 567 713 q 374 810 472 810 q 258 778 311 810 q 161 703 204 747 l 96 768 q 224 866 156 829 q 388 903 293 903 q 508 884 454 903 q 599 831 561 865 q 656 749 636 797 q 676 642 676 700 q 647 516 676 579 q 563 385 617 453 q 433 245 508 318 q 268 90 358 172 q 351 96 308 93 q 433 99 393 99 l 725 99 l 725 0 l 101 0 l 101 68 z "},"3":{"ha":833,"x_min":79,"x_max":719,"o":"m 138 183 q 244 110 182 142 q 392 78 306 78 q 476 90 438 78 q 544 122 515 101 q 588 173 572 143 q 604 240 604 203 q 587 312 604 279 q 531 368 569 344 q 431 404 492 392 q 282 417 369 417 l 282 504 q 416 517 361 504 q 506 551 471 529 q 556 604 540 574 q 572 669 572 635 q 523 772 572 735 q 392 810 474 810 q 274 785 329 810 q 174 719 218 760 l 113 792 q 239 872 168 840 q 396 903 310 903 q 512 888 458 903 q 605 844 565 872 q 667 774 644 815 q 689 678 689 732 q 636 546 689 597 q 500 467 583 494 l 500 461 q 584 433 544 451 q 654 385 624 414 q 702 319 685 357 q 719 236 719 282 q 694 131 719 178 q 626 51 669 83 q 524 1 582 18 q 399 -17 465 -17 q 206 22 283 -17 q 79 108 128 60 l 138 183 z "},"4":{"ha":833,"x_min":54,"x_max":757,"o":"m 511 336 l 511 611 q 514 690 513 647 q 518 768 515 732 l 511 768 q 467 703 490 736 q 421 639 443 671 l 181 336 l 511 336 m 757 244 l 619 244 l 619 0 l 511 0 l 511 244 l 54 244 l 54 321 l 497 886 l 619 886 l 619 336 l 757 336 l 757 244 z "},"5":{"ha":833,"x_min":78,"x_max":725,"o":"m 135 179 q 182 141 157 160 q 237 108 207 122 q 303 86 267 94 q 385 78 340 78 q 473 92 432 78 q 544 133 514 107 q 592 197 575 160 q 610 281 610 235 q 551 424 610 372 q 392 475 492 475 q 297 461 336 475 q 211 421 258 447 l 150 460 l 179 886 l 681 886 l 681 788 l 281 788 l 257 525 q 333 551 296 542 q 421 561 369 561 q 540 544 485 561 q 637 494 596 528 q 701 408 678 460 q 725 283 725 356 q 698 156 725 211 q 625 62 671 100 q 520 3 579 24 q 397 -17 461 -17 q 290 -6 338 -17 q 203 21 242 4 q 134 59 165 38 q 78 104 103 81 l 135 179 z "},"6":{"ha":833,"x_min":107,"x_max":742,"o":"m 446 74 q 519 88 485 74 q 579 127 554 101 q 619 188 604 153 q 633 268 633 224 q 585 408 633 360 q 444 456 536 456 q 333 428 392 456 q 218 336 275 401 q 290 140 231 207 q 446 74 349 74 m 661 738 q 581 788 626 769 q 485 807 535 807 q 383 788 432 807 q 298 724 335 768 q 238 606 261 679 q 214 426 215 533 q 333 510 267 479 q 465 542 399 542 q 577 524 526 542 q 665 473 628 507 q 722 388 701 439 q 742 268 742 336 q 717 152 742 204 q 653 63 693 100 q 559 4 613 25 q 446 -17 506 -17 q 312 10 374 -17 q 204 90 250 36 q 133 223 158 143 q 107 410 107 303 q 138 637 107 543 q 219 790 168 731 q 338 876 271 849 q 478 903 406 903 q 620 876 560 903 q 725 808 681 849 l 661 738 z "},"7":{"ha":833,"x_min":97,"x_max":739,"o":"m 314 0 q 338 230 319 126 q 390 426 356 333 q 478 607 425 519 q 608 788 532 694 l 97 788 l 97 886 l 739 886 l 739 815 q 594 624 651 715 q 503 437 538 532 q 453 236 468 342 q 433 0 438 131 l 314 0 l 314 0 z "},"8":{"ha":833,"x_min":94,"x_max":738,"o":"m 199 238 q 259 115 199 163 q 422 68 319 68 q 575 111 522 68 q 628 224 628 154 q 606 301 628 269 q 547 354 585 332 q 459 394 510 376 q 350 431 408 411 q 242 349 285 394 q 199 238 199 304 m 489 483 q 600 661 600 564 q 554 773 600 728 q 421 818 508 818 q 300 779 346 818 q 254 675 254 740 q 272 606 254 635 q 322 556 290 578 q 397 516 354 533 q 489 483 439 499 m 94 226 q 111 308 94 272 q 154 374 128 344 q 215 424 181 403 q 285 463 249 446 l 285 468 q 190 553 229 503 q 150 675 150 604 q 170 768 150 726 q 227 840 190 810 q 314 886 264 869 q 424 903 364 903 q 540 885 489 903 q 626 837 590 868 q 680 762 661 806 q 699 667 699 718 q 659 549 699 604 q 564 456 619 494 l 564 450 q 632 411 600 432 q 688 364 664 390 q 724 302 711 338 q 738 219 738 267 q 716 126 738 169 q 654 51 694 83 q 555 1 614 19 q 419 -17 496 -17 q 284 1 344 -17 q 182 52 224 19 q 117 129 140 85 q 94 226 94 174 z "},"9":{"ha":833,"x_min":93,"x_max":728,"o":"m 390 431 q 500 458 442 431 q 617 549 558 485 q 545 746 603 679 q 389 813 488 813 q 315 799 349 813 q 256 759 281 785 q 216 697 231 733 q 201 618 201 661 q 249 478 201 526 q 390 431 297 431 m 174 149 q 253 97 207 117 q 350 78 299 78 q 451 97 403 78 q 535 162 499 117 q 594 279 572 207 q 619 458 617 351 q 501 375 565 406 q 368 344 436 344 q 256 362 307 344 q 169 413 206 379 q 113 499 133 447 q 93 618 93 550 q 117 734 93 682 q 181 824 140 786 q 276 882 222 861 q 388 903 329 903 q 522 876 460 903 q 631 797 585 850 q 702 663 676 743 q 728 476 728 583 q 697 249 728 343 q 614 97 665 156 q 496 10 563 38 q 357 -17 429 -17 q 215 10 275 -17 q 110 76 154 36 l 174 149 z "},"\u0000":{"ha":0,"x_min":0,"x_max":0,"o":""},"\r":{"ha":833,"x_min":0,"x_max":0,"o":""}," ":{"ha":833,"x_min":0,"x_max":0,"o":""},"A":{"ha":833,"x_min":44,"x_max":789,"o":"m 551 371 l 508 510 q 463 662 485 586 q 418 817 440 738 l 413 817 q 368 662 390 738 q 322 510 346 586 l 279 371 l 551 371 m 581 278 l 250 278 l 163 0 l 44 0 l 351 911 l 482 911 l 789 0 l 667 0 l 581 278 z "},"B":{"ha":833,"x_min":143,"x_max":757,"o":"m 143 911 l 393 911 q 520 899 463 911 q 619 860 578 886 q 683 791 660 833 q 706 689 706 749 q 666 566 706 621 q 546 490 626 511 l 546 485 q 701 415 646 469 q 757 267 757 361 q 732 150 757 200 q 662 67 707 100 q 553 17 617 33 q 414 0 490 0 l 143 0 l 143 911 m 374 522 q 541 563 490 522 q 592 679 592 603 q 538 787 592 754 q 379 819 485 819 l 260 819 l 260 522 l 374 522 m 397 92 q 579 135 515 92 q 643 272 643 179 q 581 397 643 357 q 397 436 518 436 l 260 436 l 260 92 l 397 92 z "},"C":{"ha":833,"x_min":92,"x_max":769,"o":"m 92 456 q 122 653 92 565 q 206 801 151 740 q 335 895 260 863 q 499 928 410 928 q 644 894 582 928 q 747 817 707 861 l 682 743 q 601 803 646 781 q 499 826 557 826 q 380 801 433 826 q 289 727 326 775 q 231 611 251 679 q 211 458 211 543 q 231 303 211 372 q 289 186 251 235 q 380 111 326 138 q 499 85 433 85 q 610 111 561 85 q 703 186 658 138 l 769 115 q 647 18 715 53 q 492 -17 579 -17 q 333 15 406 -17 q 206 108 260 47 q 122 256 153 168 q 92 456 92 344 z "},"D":{"ha":833,"x_min":118,"x_max":763,"o":"m 118 911 l 340 911 q 655 794 547 911 q 763 460 763 678 q 735 266 763 351 q 656 122 708 181 q 525 31 603 63 q 346 0 447 0 l 118 0 l 118 911 m 333 94 q 566 190 489 94 q 643 460 643 286 q 566 725 643 633 q 333 817 489 817 l 233 817 l 233 94 l 333 94 z "},"E":{"ha":833,"x_min":160,"x_max":736,"o":"m 160 911 l 722 911 l 722 814 l 276 814 l 276 528 l 653 528 l 653 429 l 276 429 l 276 99 l 736 99 l 736 0 l 160 0 l 160 911 z "},"F":{"ha":833,"x_min":188,"x_max":744,"o":"m 188 911 l 744 911 l 744 814 l 303 814 l 303 506 l 676 506 l 676 408 l 303 408 l 303 0 l 188 0 l 188 911 z "},"G":{"ha":833,"x_min":74,"x_max":740,"o":"m 74 456 q 103 653 74 565 q 187 802 133 742 q 315 895 240 863 q 478 928 389 928 q 561 918 524 928 q 630 892 599 908 q 685 857 661 876 q 729 817 710 838 l 664 743 q 588 803 631 779 q 478 826 544 826 q 362 801 414 826 q 272 727 310 775 q 215 611 235 679 q 194 458 194 543 q 213 303 194 372 q 267 186 232 235 q 356 111 303 138 q 475 85 408 85 q 565 99 524 85 q 633 139 607 114 l 633 376 l 451 376 l 451 472 l 740 472 l 740 89 q 626 14 696 44 q 468 -17 557 -17 q 310 15 382 -17 q 185 108 238 47 q 103 256 132 168 q 74 456 74 344 z "},"H":{"ha":833,"x_min":110,"x_max":724,"o":"m 110 911 l 226 911 l 226 529 l 607 529 l 607 911 l 724 911 l 724 0 l 607 0 l 607 429 l 226 429 l 226 0 l 110 0 l 110 911 z "},"I":{"ha":833,"x_min":132,"x_max":701,"o":"m 132 99 l 358 99 l 358 814 l 132 814 l 132 911 l 701 911 l 701 814 l 475 814 l 475 99 l 701 99 l 701 0 l 132 0 l 132 99 z "},"J":{"ha":833,"x_min":113,"x_max":685,"o":"m 188 204 q 278 114 228 143 q 381 85 328 85 q 524 137 479 85 q 569 301 569 189 l 569 815 l 188 815 l 188 913 l 685 913 l 685 292 q 669 172 685 228 q 619 74 654 115 q 526 8 583 32 q 383 -17 468 -17 q 233 19 306 -17 q 113 135 160 56 l 188 204 z "},"K":{"ha":833,"x_min":136,"x_max":804,"o":"m 136 911 l 253 911 l 253 454 l 257 454 l 640 911 l 771 911 l 483 564 l 804 0 l 675 0 l 411 474 l 253 289 l 253 0 l 136 0 l 136 911 z "},"L":{"ha":833,"x_min":186,"x_max":751,"o":"m 186 911 l 300 911 l 300 99 l 751 99 l 751 0 l 186 0 l 186 911 z "},"M":{"ha":833,"x_min":113,"x_max":721,"o":"m 113 911 l 240 911 l 369 524 l 415 376 l 421 376 l 465 524 l 593 911 l 721 911 l 721 0 l 622 0 l 622 513 q 624 578 622 540 q 627 653 625 615 q 631 728 629 692 q 636 793 633 765 l 632 793 l 572 599 l 447 247 l 385 247 l 260 599 l 199 793 l 194 793 q 199 728 196 765 q 204 653 201 692 q 208 578 207 615 q 210 513 210 540 l 210 0 l 113 0 l 113 911 z "},"N":{"ha":833,"x_min":115,"x_max":718,"o":"m 115 911 l 233 911 l 529 336 l 621 150 l 624 150 q 615 292 621 218 q 608 439 608 367 l 608 911 l 718 911 l 718 0 l 600 0 l 304 575 l 213 761 l 210 761 q 219 619 213 690 q 225 476 225 547 l 225 0 l 115 0 l 115 911 z "},"O":{"ha":833,"x_min":67,"x_max":767,"o":"m 417 -17 q 275 17 339 -17 q 165 112 211 50 q 92 262 118 174 q 67 460 67 350 q 92 656 67 569 q 165 803 118 743 q 275 896 211 864 q 417 928 339 928 q 558 895 493 928 q 669 802 622 863 q 741 655 715 742 q 767 460 767 568 q 741 262 767 350 q 669 112 715 174 q 558 17 622 50 q 417 -17 493 -17 m 417 85 q 511 111 468 85 q 584 187 554 138 q 631 305 614 236 q 647 460 647 374 q 631 613 647 544 q 584 728 614 681 q 511 801 554 775 q 417 826 468 826 q 322 801 364 826 q 249 728 279 775 q 203 613 219 681 q 186 460 186 544 q 203 305 186 374 q 249 187 219 236 q 322 111 279 138 q 417 85 364 85 z "},"P":{"ha":833,"x_min":142,"x_max":757,"o":"m 142 911 l 421 911 q 558 897 496 911 q 665 852 621 883 q 733 769 708 821 q 757 643 757 718 q 733 518 757 571 q 664 431 708 465 q 558 378 619 396 q 421 361 496 361 l 257 361 l 257 0 l 142 0 l 142 911 m 406 456 q 584 501 526 456 q 642 643 642 546 q 583 780 642 742 q 406 818 524 818 l 257 818 l 257 456 l 406 456 z "},"Q":{"ha":833,"x_min":68,"x_max":768,"o":"m 186 460 q 202 306 186 375 q 248 187 218 236 q 320 110 278 138 q 415 83 363 83 q 509 110 467 83 q 581 187 551 138 q 627 306 611 236 q 643 460 643 375 q 627 613 643 544 q 581 730 611 682 q 509 803 551 778 q 415 829 467 829 q 320 803 363 829 q 248 730 278 778 q 202 613 218 682 q 186 460 186 544 m 768 -207 q 721 -221 746 -215 q 665 -226 696 -226 q 469 -165 544 -226 q 358 -11 393 -104 q 240 38 293 0 q 148 137 186 76 q 89 279 110 197 q 68 460 68 361 q 93 656 68 569 q 164 803 118 743 q 274 897 210 864 q 415 929 338 929 q 556 897 492 929 q 665 803 619 864 q 736 656 711 743 q 761 460 761 568 q 741 282 761 363 q 685 141 721 201 q 597 42 649 81 q 482 -10 544 3 q 557 -98 506 -68 q 679 -128 608 -128 q 717 -124 700 -128 q 747 -114 735 -119 l 768 -207 z "},"R":{"ha":833,"x_min":139,"x_max":768,"o":"m 254 479 l 406 479 q 569 523 513 479 q 625 656 625 567 q 569 782 625 746 q 406 818 513 818 l 254 818 l 254 479 m 636 0 l 417 385 l 254 385 l 254 0 l 139 0 l 139 911 l 422 911 q 550 898 492 911 q 651 854 608 885 q 717 775 693 824 q 740 656 740 726 q 685 485 740 549 q 536 397 629 421 l 768 0 l 636 0 z "},"S":{"ha":833,"x_min":93,"x_max":746,"o":"m 163 199 q 282 116 214 147 q 425 85 350 85 q 575 126 522 85 q 628 233 628 167 q 615 292 628 268 q 581 334 603 317 q 528 365 558 351 q 464 394 499 379 l 333 451 q 264 485 299 465 q 201 532 229 504 q 154 598 172 560 q 136 686 136 636 q 158 782 136 738 q 220 859 181 826 q 315 910 260 892 q 435 928 369 928 q 593 897 521 928 q 715 815 665 865 l 654 740 q 556 803 610 781 q 435 826 503 826 q 303 791 351 826 q 254 693 254 756 q 269 637 254 660 q 306 597 283 614 q 358 567 329 579 q 417 542 388 554 l 544 486 q 623 448 586 469 q 687 398 660 426 q 730 331 714 369 q 746 243 746 293 q 724 142 746 189 q 660 59 701 94 q 558 3 618 24 q 424 -17 499 -17 q 240 19 324 -17 q 93 118 156 56 l 163 199 z "},"T":{"ha":833,"x_min":58,"x_max":775,"o":"m 358 814 l 58 814 l 58 911 l 775 911 l 775 814 l 475 814 l 475 0 l 358 0 l 358 814 z "},"U":{"ha":833,"x_min":110,"x_max":724,"o":"m 110 911 l 226 911 l 226 342 q 241 222 226 271 q 281 142 256 172 q 342 99 307 113 q 418 85 376 85 q 494 99 460 85 q 556 142 529 113 q 597 222 582 172 q 611 342 611 271 l 611 911 l 724 911 l 724 344 q 701 178 724 246 q 638 66 678 110 q 541 3 597 22 q 418 -17 485 -17 q 294 3 351 -17 q 197 66 238 22 q 133 178 156 110 q 110 344 110 246 l 110 911 z "},"V":{"ha":833,"x_min":60,"x_max":774,"o":"m 60 911 l 182 911 l 329 419 q 372 268 353 338 q 417 118 392 199 l 422 118 q 446 195 435 158 q 467 268 457 232 q 488 342 478 304 q 510 419 499 379 l 656 911 l 774 911 l 485 0 l 350 0 l 60 911 z "},"W":{"ha":833,"x_min":14,"x_max":819,"o":"m 14 913 l 129 913 l 203 340 q 212 227 206 282 q 222 115 218 172 l 226 115 q 256 228 242 172 q 285 340 271 283 l 381 676 l 463 676 l 558 340 q 585 228 571 285 q 615 115 600 172 l 621 115 q 631 228 625 172 q 640 340 636 283 l 710 913 l 819 913 l 685 0 l 557 0 l 453 382 q 435 464 443 422 q 419 546 426 506 l 415 546 q 399 464 407 506 q 379 382 390 422 l 279 0 l 154 0 l 14 913 z "},"X":{"ha":833,"x_min":75,"x_max":758,"o":"m 347 471 l 93 911 l 221 911 l 349 678 q 383 616 367 646 q 422 546 400 586 l 428 546 q 462 616 447 586 q 493 678 476 646 l 618 911 l 740 911 l 486 465 l 758 0 l 631 0 l 493 246 q 455 315 474 279 q 413 392 436 350 l 407 392 q 369 315 388 350 q 333 246 351 279 l 197 0 l 75 0 l 347 471 z "},"Y":{"ha":833,"x_min":53,"x_max":781,"o":"m 358 325 l 53 911 l 175 911 l 313 640 q 364 535 339 588 q 417 428 389 483 l 422 428 q 476 536 450 483 q 529 642 503 589 l 661 911 l 781 911 l 475 325 l 475 0 l 358 0 l 358 325 z "},"Z":{"ha":833,"x_min":90,"x_max":749,"o":"m 90 69 l 600 815 l 135 815 l 135 913 l 742 913 l 742 843 l 231 99 l 749 99 l 749 0 l 90 0 l 90 69 z "},"a":{"ha":833,"x_min":113,"x_max":715,"o":"m 113 175 q 140 274 113 232 q 226 347 167 317 q 378 397 285 378 q 601 428 471 417 q 590 493 600 463 q 560 547 581 524 q 505 583 539 569 q 422 597 471 597 q 294 572 356 597 q 186 517 233 546 l 142 594 q 201 628 167 611 q 273 660 235 646 q 354 683 311 674 q 442 692 397 692 q 648 616 581 692 q 715 414 715 540 l 715 0 l 622 0 l 613 92 l 608 92 q 483 15 551 47 q 342 -17 414 -17 q 253 -3 294 -17 q 180 34 211 10 q 131 94 149 58 q 113 175 113 129 m 224 183 q 236 134 224 154 q 269 101 249 114 q 316 81 289 88 q 372 75 343 75 q 487 101 431 75 q 601 175 543 126 l 601 353 q 420 329 493 344 q 303 292 347 314 q 242 244 260 271 q 224 183 224 217 z "},"b":{"ha":833,"x_min":129,"x_max":750,"o":"m 129 989 l 243 989 l 243 719 l 240 589 q 349 664 289 636 q 469 692 410 692 q 590 667 538 692 q 678 598 643 643 q 732 490 714 553 q 750 349 750 426 q 725 194 750 263 q 658 79 700 126 q 560 8 615 32 q 444 -17 504 -17 q 340 8 396 -17 q 235 75 283 32 l 231 75 l 221 0 l 129 0 l 129 989 m 243 158 q 341 97 292 115 q 426 79 390 79 q 508 98 471 79 q 574 151 546 117 q 617 235 601 185 q 632 347 632 285 q 621 449 632 403 q 587 527 610 494 q 528 578 564 560 q 442 596 492 596 q 347 572 397 596 q 243 494 296 547 l 243 158 z "},"c":{"ha":833,"x_min":111,"x_max":749,"o":"m 111 336 q 141 487 111 421 q 222 599 171 553 q 342 668 274 644 q 488 692 411 692 q 631 663 571 692 q 733 593 692 633 l 676 519 q 590 576 635 556 q 492 597 544 597 q 385 578 433 597 q 302 525 336 560 q 249 442 268 490 q 229 336 229 394 q 248 231 229 278 q 301 149 267 183 q 383 97 335 115 q 489 78 431 78 q 603 102 551 78 q 699 163 656 126 l 749 89 q 624 11 693 39 q 481 -17 556 -17 q 334 7 401 -17 q 217 76 267 31 q 139 187 167 121 q 111 336 111 253 z "},"d":{"ha":833,"x_min":83,"x_max":704,"o":"m 83 336 q 109 484 83 418 q 177 596 135 550 q 275 667 219 642 q 390 692 331 692 q 500 668 453 692 q 594 604 547 644 l 590 729 l 590 989 l 704 989 l 704 0 l 610 0 l 600 89 l 596 89 q 497 15 554 46 q 376 -17 439 -17 q 256 7 310 -17 q 164 76 203 31 q 104 186 125 121 q 83 336 83 251 m 201 338 q 253 147 201 215 q 400 79 306 79 q 590 181 500 79 l 590 517 q 501 578 544 560 q 413 596 457 596 q 330 577 368 596 q 263 524 292 558 q 218 443 235 490 q 201 338 201 396 z "},"e":{"ha":833,"x_min":96,"x_max":746,"o":"m 96 336 q 125 485 96 419 q 202 597 154 551 q 312 667 250 643 q 439 692 374 692 q 568 669 511 692 q 665 604 625 646 q 725 504 704 563 q 746 375 746 446 q 742 313 746 338 l 214 313 q 291 139 221 203 q 472 75 361 75 q 581 92 532 75 q 678 138 631 108 l 718 63 q 604 7 668 31 q 458 -17 540 -17 q 317 8 383 -17 q 202 77 251 32 q 124 188 153 122 q 96 336 96 253 m 640 388 q 588 547 640 492 q 440 601 535 601 q 360 587 399 601 q 292 545 322 572 q 240 478 261 518 q 213 388 218 439 l 640 388 z "},"f":{"ha":833,"x_min":143,"x_max":803,"o":"m 776 881 q 699 906 735 900 q 619 913 664 913 q 488 866 528 913 q 449 736 449 819 l 449 675 l 732 675 l 732 582 l 449 582 l 449 0 l 336 0 l 336 582 l 143 582 l 143 668 l 336 675 l 336 732 q 402 931 336 856 q 608 1006 468 1006 q 803 967 708 1006 l 776 881 z "},"g":{"ha":833,"x_min":100,"x_max":786,"o":"m 199 -112 q 255 -199 199 -165 q 419 -232 311 -232 q 525 -220 478 -232 q 606 -189 572 -208 q 656 -144 639 -169 q 674 -93 674 -119 q 635 -28 674 -44 q 519 -11 597 -11 l 388 -11 q 333 -9 358 -11 q 285 0 307 -7 q 217 -55 236 -26 q 199 -112 199 -83 m 100 -124 q 128 -44 100 -83 q 211 26 157 -6 l 211 32 q 163 74 183 47 q 142 143 142 100 q 163 209 142 175 q 222 269 183 243 l 222 275 q 163 345 188 301 q 139 450 139 389 q 160 550 139 506 q 218 626 182 594 q 302 674 254 657 q 404 692 350 692 q 504 675 460 692 l 783 675 l 783 588 l 603 588 q 646 526 626 563 q 665 446 665 490 q 645 349 665 392 q 590 276 625 306 q 506 230 554 246 q 404 214 458 214 q 348 220 378 214 q 290 239 318 226 q 238 161 238 206 q 274 102 238 121 q 378 83 311 83 l 529 83 q 723 47 660 83 q 786 -75 786 11 q 760 -165 786 -122 q 685 -240 733 -208 q 567 -292 636 -272 q 411 -311 497 -311 q 181 -262 263 -311 q 100 -124 100 -214 m 404 290 q 515 333 469 290 q 560 450 560 376 q 547 514 560 485 q 514 564 535 543 q 465 597 493 585 q 404 608 436 608 q 344 597 372 608 q 294 564 315 585 q 261 514 274 543 q 249 450 249 485 q 294 333 249 376 q 404 290 340 290 z "},"h":{"ha":833,"x_min":129,"x_max":726,"o":"m 129 989 l 243 989 l 243 719 l 238 560 q 353 654 292 617 q 493 692 414 692 q 670 623 614 692 q 726 419 726 554 l 726 0 l 613 0 l 613 404 q 576 547 613 500 q 457 593 540 593 q 401 585 426 593 q 350 563 375 578 q 299 524 325 547 q 243 471 272 501 l 243 0 l 129 0 l 129 989 z "},"i":{"ha":833,"x_min":125,"x_max":575,"o":"m 125 675 l 553 675 l 553 0 l 439 0 l 439 582 l 125 582 l 125 675 m 483 814 q 417 838 443 814 q 392 901 392 861 q 417 966 392 942 q 483 990 443 990 q 549 966 522 990 q 575 901 575 942 q 549 838 575 861 q 483 814 522 814 z "},"j":{"ha":833,"x_min":76,"x_max":575,"o":"m 125 675 l 553 675 l 553 -17 q 539 -131 553 -79 q 492 -222 525 -183 q 406 -281 460 -260 q 269 -301 351 -301 q 167 -288 217 -301 q 76 -256 117 -275 l 114 -171 q 190 -199 150 -189 q 268 -208 229 -208 q 351 -196 318 -208 q 404 -160 385 -183 q 431 -102 424 -136 q 439 -25 439 -68 l 439 582 l 125 582 l 125 675 m 483 814 q 417 838 443 814 q 392 901 392 861 q 417 966 392 942 q 483 990 443 990 q 549 966 522 990 q 575 901 575 942 q 549 838 575 861 q 483 814 522 814 z "},"k":{"ha":833,"x_min":147,"x_max":797,"o":"m 147 989 l 261 989 l 261 319 l 265 321 l 631 675 l 761 675 l 492 407 l 797 0 l 669 0 l 421 333 l 261 181 l 261 0 l 147 0 l 147 989 z "},"l":{"ha":833,"x_min":113,"x_max":746,"o":"m 113 989 l 457 989 l 457 218 q 492 110 457 143 q 589 78 528 78 q 717 110 644 78 l 746 24 q 660 -5 700 7 q 564 -17 619 -17 q 399 44 456 -17 q 343 226 343 106 l 343 896 l 113 896 l 113 989 z "},"m":{"ha":833,"x_min":83,"x_max":772,"o":"m 83 675 l 172 675 l 182 586 l 186 586 q 245 663 211 633 q 338 692 279 692 q 465 575 440 692 q 532 660 496 628 q 625 692 568 692 q 734 638 696 692 q 772 483 772 585 l 772 0 l 663 0 l 663 474 q 589 593 663 593 q 526 567 553 593 q 474 489 500 542 l 474 0 l 382 0 l 382 474 q 306 593 382 593 q 244 567 269 593 q 193 489 219 542 l 193 0 l 83 0 l 83 675 z "},"n":{"ha":833,"x_min":129,"x_max":726,"o":"m 129 675 l 224 675 l 233 560 l 239 560 q 353 654 292 617 q 493 692 414 692 q 670 623 614 692 q 726 419 726 554 l 726 0 l 613 0 l 613 404 q 576 547 613 500 q 457 593 540 593 q 401 585 426 593 q 350 563 375 578 q 299 524 325 547 q 243 471 272 501 l 243 0 l 129 0 l 129 675 z "},"o":{"ha":833,"x_min":83,"x_max":750,"o":"m 83 336 q 110 487 83 421 q 183 599 138 553 q 290 668 229 644 q 417 692 350 692 q 544 668 483 692 q 650 599 604 644 q 723 487 696 553 q 750 336 750 421 q 723 187 750 253 q 650 76 696 121 q 544 7 604 31 q 417 -17 483 -17 q 290 7 350 -17 q 183 76 229 31 q 110 187 138 121 q 83 336 83 253 m 201 336 q 217 231 201 278 q 260 149 232 183 q 328 97 289 115 q 417 78 368 78 q 505 97 465 78 q 573 149 544 115 q 617 231 601 183 q 632 336 632 278 q 617 442 632 394 q 573 525 601 490 q 505 578 544 560 q 417 597 465 597 q 328 578 368 597 q 260 525 289 560 q 217 442 232 490 q 201 336 201 394 z "},"p":{"ha":833,"x_min":129,"x_max":750,"o":"m 243 -57 l 243 -285 l 129 -285 l 129 675 l 224 675 l 233 589 l 238 589 q 347 663 285 633 q 471 692 408 692 q 591 667 539 692 q 678 598 643 643 q 732 490 714 553 q 750 347 750 426 q 725 194 750 261 q 658 79 700 126 q 560 8 615 32 q 443 -17 504 -17 q 341 6 396 -17 q 240 71 286 29 l 243 -57 m 243 158 q 340 97 292 115 q 424 79 389 79 q 574 150 515 79 q 632 347 632 221 q 621 449 632 403 q 587 527 610 494 q 528 578 564 560 q 442 596 492 596 q 347 572 397 596 q 243 494 296 547 l 243 158 z "},"q":{"ha":833,"x_min":83,"x_max":704,"o":"m 83 336 q 109 484 83 418 q 177 596 135 550 q 275 667 219 642 q 390 692 331 692 q 501 668 453 692 q 599 600 550 644 l 603 600 l 613 675 l 704 675 l 704 -285 l 590 -285 l 590 -36 l 596 86 q 495 13 551 43 q 376 -17 439 -17 q 256 7 310 -17 q 164 76 203 31 q 104 186 125 121 q 83 336 83 251 m 201 338 q 253 147 201 215 q 400 79 306 79 q 590 181 500 79 l 590 517 q 501 578 544 560 q 413 596 457 596 q 330 577 368 596 q 263 524 292 558 q 218 443 235 490 q 201 338 201 396 z "},"r":{"ha":833,"x_min":203,"x_max":744,"o":"m 203 675 l 297 675 l 307 515 l 311 515 q 441 644 364 597 q 613 692 518 692 q 681 685 650 692 q 744 664 713 679 l 721 565 q 660 583 685 578 q 594 589 635 589 q 448 545 518 589 q 317 396 378 501 l 317 0 l 203 0 l 203 675 z "},"s":{"ha":833,"x_min":100,"x_max":731,"o":"m 156 164 q 278 97 213 122 q 435 72 343 72 q 571 103 526 72 q 615 178 615 133 q 567 247 615 217 q 396 308 519 278 q 297 339 343 321 q 215 381 250 357 q 160 435 181 406 q 139 500 139 464 q 157 576 139 540 q 210 637 175 611 q 299 677 246 663 q 422 692 353 692 q 571 666 499 692 q 693 606 643 640 l 638 532 q 539 583 593 564 q 422 603 485 603 q 343 595 375 603 q 292 574 311 588 q 264 543 272 561 q 256 506 256 525 q 313 437 256 464 q 461 386 369 410 q 665 307 599 351 q 731 185 731 263 q 711 107 731 143 q 653 43 692 71 q 559 -1 615 15 q 431 -17 503 -17 q 247 15 331 -17 q 100 89 163 46 l 156 164 z "},"t":{"ha":833,"x_min":96,"x_max":757,"o":"m 286 582 l 96 582 l 96 668 l 290 675 l 306 864 l 400 864 l 400 675 l 731 675 l 731 582 l 400 582 l 400 261 q 408 181 400 215 q 436 124 417 147 q 489 88 456 100 q 571 76 522 76 q 658 85 619 76 q 733 107 697 93 l 757 24 q 657 -5 713 7 q 546 -17 601 -17 q 422 3 472 -17 q 342 60 372 24 q 299 149 313 97 q 286 263 286 200 l 286 582 z "},"u":{"ha":833,"x_min":107,"x_max":701,"o":"m 701 0 l 608 0 l 599 118 l 593 118 q 481 21 542 58 q 342 -17 421 -17 q 163 52 219 -17 q 107 256 107 121 l 107 675 l 222 675 l 222 271 q 258 128 222 175 q 378 82 293 82 q 483 112 436 82 q 588 207 531 142 l 588 675 l 701 675 l 701 0 z "},"v":{"ha":833,"x_min":71,"x_max":763,"o":"m 71 675 l 186 675 l 342 292 q 381 191 363 240 q 418 93 400 142 l 424 93 q 459 191 442 142 q 497 292 476 240 l 653 675 l 763 675 l 483 0 l 356 0 l 71 675 z "},"w":{"ha":833,"x_min":11,"x_max":822,"o":"m 11 675 l 126 675 l 210 285 q 228 190 219 236 q 243 97 236 144 l 249 97 q 268 191 258 144 q 289 285 278 238 l 372 635 l 467 635 l 553 285 q 573 190 564 236 q 593 97 582 144 l 599 97 q 616 190 608 144 q 632 285 624 236 l 714 675 l 822 675 l 676 0 l 538 0 l 457 342 q 439 438 447 390 q 419 538 431 485 l 414 538 q 397 446 406 493 q 376 340 389 399 l 299 0 l 163 0 l 11 675 z "},"x":{"ha":833,"x_min":89,"x_max":743,"o":"m 346 350 l 108 675 l 235 675 l 342 526 q 380 469 360 499 q 421 413 400 440 l 426 413 q 465 471 446 440 q 503 529 485 501 l 604 675 l 725 675 l 485 340 l 743 0 l 618 0 l 500 156 q 456 217 479 185 q 411 278 433 249 l 406 278 q 364 217 385 247 q 322 156 343 188 l 211 0 l 89 0 l 346 350 z "},"y":{"ha":833,"x_min":68,"x_max":765,"o":"m 117 -186 q 147 -193 131 -190 q 178 -196 163 -196 q 293 -155 249 -196 q 363 -51 338 -114 l 383 -1 l 68 675 l 183 675 l 349 301 q 390 206 368 257 q 432 106 411 154 l 438 106 q 474 205 456 154 q 510 301 493 256 l 657 675 l 765 675 l 468 -56 q 424 -149 449 -106 q 364 -223 399 -192 q 284 -272 329 -254 q 182 -290 239 -290 q 93 -276 132 -290 l 117 -186 l 117 -186 z "},"z":{"ha":833,"x_min":99,"x_max":739,"o":"m 99 61 l 561 582 l 150 582 l 150 675 l 725 675 l 725 614 l 261 93 l 739 93 l 739 0 l 99 0 l 99 61 z "},"À":{"ha":833,"x_min":44,"x_max":789,"o":"m 551 371 l 508 510 q 463 662 485 586 q 418 817 440 738 l 413 817 q 368 662 390 738 q 322 510 346 586 l 279 371 l 551 371 m 581 278 l 250 278 l 163 0 l 44 0 l 351 911 l 482 911 l 789 0 l 667 0 l 581 278 m 235 1136 l 365 1136 l 488 981 l 392 981 l 235 1136 z "},"Á":{"ha":833,"x_min":44,"x_max":789,"o":"m 551 371 l 508 510 q 463 662 485 586 q 418 817 440 738 l 413 817 q 368 662 390 738 q 322 510 346 586 l 279 371 l 551 371 m 581 278 l 250 278 l 163 0 l 44 0 l 351 911 l 482 911 l 789 0 l 667 0 l 581 278 m 442 981 l 346 981 l 468 1136 l 599 1136 l 442 981 z "},"Â":{"ha":833,"x_min":44,"x_max":789,"o":"m 551 371 l 508 510 q 463 662 485 586 q 418 817 440 738 l 413 817 q 368 662 390 738 q 322 510 346 586 l 279 371 l 551 371 m 581 278 l 250 278 l 163 0 l 44 0 l 351 911 l 482 911 l 789 0 l 667 0 l 581 278 m 228 981 l 361 1136 l 472 1136 l 606 981 l 513 981 l 419 1075 l 414 1075 l 321 981 l 228 981 z "},"Ã":{"ha":833,"x_min":44,"x_max":789,"o":"m 551 371 l 508 510 q 463 662 485 586 q 418 817 440 738 l 413 817 q 368 662 390 738 q 322 510 346 586 l 279 371 l 551 371 m 581 278 l 250 278 l 163 0 l 44 0 l 351 911 l 482 911 l 789 0 l 667 0 l 581 278 m 500 988 q 450 999 472 988 q 409 1024 428 1010 q 372 1049 390 1038 q 335 1060 354 1060 q 300 1042 315 1060 q 279 988 285 1024 l 215 988 q 253 1095 222 1053 q 333 1138 283 1138 q 383 1126 361 1138 q 424 1101 406 1115 q 461 1076 443 1088 q 499 1065 479 1065 q 533 1084 518 1065 q 554 1138 549 1103 l 618 1138 q 581 1031 611 1074 q 500 988 550 988 z "},"Ä":{"ha":833,"x_min":44,"x_max":789,"o":"m 551 371 l 508 510 q 463 662 485 586 q 418 817 440 738 l 413 817 q 368 662 390 738 q 322 510 346 586 l 279 371 l 551 371 m 581 278 l 250 278 l 163 0 l 44 0 l 351 911 l 482 911 l 789 0 l 667 0 l 581 278 m 297 993 q 248 1013 267 993 q 229 1061 229 1032 q 248 1110 229 1092 q 297 1129 267 1129 q 346 1110 326 1129 q 365 1061 365 1092 q 346 1013 365 1032 q 297 993 326 993 m 536 993 q 488 1013 507 993 q 468 1061 468 1032 q 488 1110 468 1092 q 536 1129 507 1129 q 585 1110 567 1129 q 604 1061 604 1092 q 585 1013 604 1032 q 536 993 567 993 z "},"Ā":{"ha":833,"x_min":44,"x_max":789,"o":"m 551 371 l 508 510 q 463 662 485 586 q 418 817 440 738 l 413 817 q 368 662 390 738 q 322 510 346 586 l 279 371 l 551 371 m 581 278 l 250 278 l 163 0 l 44 0 l 351 911 l 482 911 l 789 0 l 667 0 l 581 278 m 244 1092 l 589 1092 l 589 1013 l 244 1013 l 244 1092 z "},"Ă":{"ha":833,"x_min":44,"x_max":789,"o":"m 551 371 l 508 510 q 463 662 485 586 q 418 817 440 738 l 413 817 q 368 662 390 738 q 322 510 346 586 l 279 371 l 551 371 m 581 278 l 250 278 l 163 0 l 44 0 l 351 911 l 482 911 l 789 0 l 667 0 l 581 278 m 417 983 q 344 997 375 983 q 293 1031 314 1010 q 261 1079 272 1051 q 246 1136 250 1107 l 315 1136 q 346 1076 322 1103 q 417 1049 369 1049 q 488 1076 464 1049 q 518 1136 511 1103 l 588 1136 q 572 1079 583 1107 q 540 1031 561 1051 q 489 997 519 1010 q 417 983 458 983 z "},"Å":{"ha":833,"x_min":44,"x_max":789,"o":"m 551 371 l 508 510 q 463 662 485 586 q 418 817 440 738 l 413 817 q 368 662 390 738 q 322 510 346 586 l 279 371 l 551 371 m 581 278 l 250 278 l 163 0 l 44 0 l 351 911 l 482 911 l 789 0 l 667 0 l 581 278 m 417 971 q 324 1003 360 971 q 288 1093 288 1036 q 324 1182 288 1149 q 417 1215 360 1215 q 509 1182 472 1215 q 546 1093 546 1149 q 509 1003 546 1036 q 417 971 472 971 m 417 1021 q 463 1040 443 1021 q 482 1093 482 1058 q 463 1144 482 1125 q 417 1164 443 1164 q 369 1144 389 1164 q 350 1093 350 1125 q 369 1040 350 1058 q 417 1021 389 1021 z "},"Ǎ":{"ha":833,"x_min":44,"x_max":789,"o":"m 551 371 l 508 510 q 463 662 485 586 q 418 817 440 738 l 413 817 q 368 662 390 738 q 322 510 346 586 l 279 371 l 551 371 m 581 278 l 250 278 l 163 0 l 44 0 l 351 911 l 482 911 l 789 0 l 667 0 l 581 278 m 606 1136 l 472 981 l 361 981 l 228 1136 l 321 1136 l 414 1042 l 419 1042 l 513 1136 l 606 1136 z "},"Ạ":{"ha":833,"x_min":44,"x_max":789,"o":"m 551 371 l 508 510 q 463 662 485 586 q 418 817 440 738 l 413 817 q 368 662 390 738 q 322 510 346 586 l 279 371 l 551 371 m 581 278 l 250 278 l 163 0 l 44 0 l 351 911 l 482 911 l 789 0 l 667 0 l 581 278 m 417 -314 q 351 -290 378 -314 q 325 -226 325 -267 q 351 -162 325 -186 q 417 -137 378 -137 q 482 -162 456 -137 q 508 -226 508 -186 q 482 -290 508 -267 q 417 -314 456 -314 z "},"Ả":{"ha":833,"x_min":44,"x_max":789,"o":"m 551 371 l 508 510 q 463 662 485 586 q 418 817 440 738 l 413 817 q 368 662 390 738 q 322 510 346 586 l 279 371 l 551 371 m 581 278 l 250 278 l 163 0 l 44 0 l 351 911 l 482 911 l 789 0 l 667 0 l 581 278 m 365 1022 q 421 1046 399 1032 q 443 1086 443 1060 q 328 1144 443 1140 l 340 1211 q 482 1180 432 1208 q 532 1099 532 1151 q 519 1047 532 1068 q 485 1009 507 1025 q 436 984 464 993 q 378 969 408 975 l 365 1022 z "},"Ấ":{"ha":833,"x_min":44,"x_max":789,"o":"m 551 371 l 508 510 q 463 662 485 586 q 418 817 440 738 l 413 817 q 368 662 390 738 q 322 510 346 586 l 279 371 l 551 371 m 581 278 l 250 278 l 163 0 l 44 0 l 351 911 l 482 911 l 789 0 l 667 0 l 581 278 m 642 1224 l 742 1224 l 615 1069 l 543 1069 l 642 1224 m 367 1128 l 467 1128 l 594 981 l 507 981 l 419 1067 l 414 1067 l 326 981 l 239 981 l 367 1128 z "},"Ầ":{"ha":833,"x_min":44,"x_max":789,"o":"m 551 371 l 508 510 q 463 662 485 586 q 418 817 440 738 l 413 817 q 368 662 390 738 q 322 510 346 586 l 279 371 l 551 371 m 581 278 l 250 278 l 163 0 l 44 0 l 351 911 l 482 911 l 789 0 l 667 0 l 581 278 m 672 1069 l 600 1069 l 474 1224 l 574 1224 l 672 1069 m 367 1128 l 467 1128 l 594 981 l 507 981 l 419 1067 l 414 1067 l 326 981 l 239 981 l 367 1128 z "},"Ẩ":{"ha":833,"x_min":44,"x_max":789,"o":"m 551 371 l 508 510 q 463 662 485 586 q 418 817 440 738 l 413 817 q 368 662 390 738 q 322 510 346 586 l 279 371 l 551 371 m 581 278 l 250 278 l 163 0 l 44 0 l 351 911 l 482 911 l 789 0 l 667 0 l 581 278 m 561 1096 q 606 1113 588 1103 q 624 1146 624 1124 q 601 1185 624 1174 q 525 1200 578 1197 l 538 1258 q 662 1231 619 1256 q 704 1157 704 1206 q 665 1080 704 1104 q 576 1047 626 1056 l 561 1096 m 367 1128 l 467 1128 l 594 981 l 507 981 l 419 1067 l 414 1067 l 326 981 l 239 981 l 367 1128 z "},"Ẫ":{"ha":833,"x_min":44,"x_max":789,"o":"m 551 371 l 508 510 q 463 662 485 586 q 418 817 440 738 l 413 817 q 368 662 390 738 q 322 510 346 586 l 279 371 l 551 371 m 581 278 l 250 278 l 163 0 l 44 0 l 351 911 l 482 911 l 789 0 l 667 0 l 581 278 m 367 1128 l 467 1128 l 594 981 l 507 981 l 419 1067 l 414 1067 l 326 981 l 239 981 l 367 1128 m 233 1178 q 266 1267 239 1232 q 342 1303 293 1303 q 388 1294 368 1303 q 425 1274 408 1285 q 456 1253 442 1263 q 488 1244 471 1244 q 523 1259 508 1244 q 542 1303 538 1274 l 600 1303 q 567 1213 594 1247 q 492 1178 540 1178 q 445 1187 465 1178 q 408 1207 425 1196 q 377 1227 392 1218 q 346 1236 363 1236 q 310 1222 325 1236 q 292 1178 296 1207 l 233 1178 z "},"Ậ":{"ha":833,"x_min":44,"x_max":789,"o":"m 551 371 l 508 510 q 463 662 485 586 q 418 817 440 738 l 413 817 q 368 662 390 738 q 322 510 346 586 l 279 371 l 551 371 m 581 278 l 250 278 l 163 0 l 44 0 l 351 911 l 482 911 l 789 0 l 667 0 l 581 278 m 228 981 l 361 1136 l 472 1136 l 606 981 l 513 981 l 419 1075 l 414 1075 l 321 981 l 228 981 m 417 -314 q 351 -290 378 -314 q 325 -226 325 -267 q 351 -162 325 -186 q 417 -137 378 -137 q 482 -162 456 -137 q 508 -226 508 -186 q 482 -290 508 -267 q 417 -314 456 -314 z "},"Ắ":{"ha":833,"x_min":44,"x_max":789,"o":"m 551 371 l 508 510 q 463 662 485 586 q 418 817 440 738 l 413 817 q 368 662 390 738 q 322 510 346 586 l 279 371 l 551 371 m 581 278 l 250 278 l 163 0 l 44 0 l 351 911 l 482 911 l 789 0 l 667 0 l 581 278 m 465 1260 l 565 1260 l 431 1114 l 363 1114 l 465 1260 m 417 983 q 347 996 376 983 q 296 1029 317 1008 q 263 1076 275 1050 q 247 1132 251 1103 l 310 1132 q 342 1069 318 1096 q 417 1043 367 1043 q 491 1069 467 1043 q 524 1132 515 1096 l 586 1132 q 570 1076 582 1103 q 538 1029 558 1050 q 487 996 517 1008 q 417 983 457 983 z "},"Ằ":{"ha":833,"x_min":44,"x_max":789,"o":"m 551 371 l 508 510 q 463 662 485 586 q 418 817 440 738 l 413 817 q 368 662 390 738 q 322 510 346 586 l 279 371 l 551 371 m 581 278 l 250 278 l 163 0 l 44 0 l 351 911 l 482 911 l 789 0 l 667 0 l 581 278 m 471 1114 l 403 1114 l 268 1260 l 368 1260 l 471 1114 m 417 983 q 347 996 376 983 q 296 1029 317 1008 q 263 1076 275 1050 q 247 1132 251 1103 l 310 1132 q 342 1069 318 1096 q 417 1043 367 1043 q 491 1069 467 1043 q 524 1132 515 1096 l 586 1132 q 570 1076 582 1103 q 538 1029 558 1050 q 487 996 517 1008 q 417 983 457 983 z "},"Ẳ":{"ha":833,"x_min":44,"x_max":789,"o":"m 551 371 l 508 510 q 463 662 485 586 q 418 817 440 738 l 413 817 q 368 662 390 738 q 322 510 346 586 l 279 371 l 551 371 m 581 278 l 250 278 l 163 0 l 44 0 l 351 911 l 482 911 l 789 0 l 667 0 l 581 278 m 371 1160 q 414 1177 396 1167 q 432 1210 432 1188 q 409 1249 432 1238 q 335 1264 386 1261 l 346 1322 q 471 1294 428 1319 q 514 1221 514 1269 q 503 1176 514 1194 q 474 1144 492 1157 q 433 1123 457 1131 q 385 1111 410 1115 l 371 1160 m 417 983 q 347 996 376 983 q 296 1029 317 1008 q 263 1076 275 1050 q 247 1132 251 1103 l 310 1132 q 342 1069 318 1096 q 417 1043 367 1043 q 491 1069 467 1043 q 524 1132 515 1096 l 586 1132 q 570 1076 582 1103 q 538 1029 558 1050 q 487 996 517 1008 q 417 983 457 983 z "},"Ẵ":{"ha":833,"x_min":44,"x_max":789,"o":"m 551 371 l 508 510 q 463 662 485 586 q 418 817 440 738 l 413 817 q 368 662 390 738 q 322 510 346 586 l 279 371 l 551 371 m 581 278 l 250 278 l 163 0 l 44 0 l 351 911 l 482 911 l 789 0 l 667 0 l 581 278 m 417 983 q 347 996 376 983 q 296 1029 317 1008 q 263 1076 275 1050 q 247 1132 251 1103 l 310 1132 q 342 1069 318 1096 q 417 1043 367 1043 q 491 1069 467 1043 q 524 1132 515 1096 l 586 1132 q 570 1076 582 1103 q 538 1029 558 1050 q 487 996 517 1008 q 417 983 457 983 m 232 1175 q 265 1267 236 1231 q 342 1304 293 1304 q 385 1294 365 1304 q 421 1273 404 1285 q 453 1251 438 1261 q 485 1242 468 1242 q 520 1258 506 1242 q 540 1304 535 1275 l 599 1304 q 565 1213 593 1250 q 489 1175 538 1175 q 445 1185 464 1175 q 410 1206 426 1194 q 378 1228 393 1218 q 346 1238 363 1238 q 310 1221 325 1238 q 290 1175 294 1204 l 232 1175 z "},"Ặ":{"ha":833,"x_min":44,"x_max":789,"o":"m 551 371 l 508 510 q 463 662 485 586 q 418 817 440 738 l 413 817 q 368 662 390 738 q 322 510 346 586 l 279 371 l 551 371 m 581 278 l 250 278 l 163 0 l 44 0 l 351 911 l 482 911 l 789 0 l 667 0 l 581 278 m 417 983 q 344 997 375 983 q 293 1031 314 1010 q 261 1079 272 1051 q 246 1136 250 1107 l 315 1136 q 346 1076 322 1103 q 417 1049 369 1049 q 488 1076 464 1049 q 518 1136 511 1103 l 588 1136 q 572 1079 583 1107 q 540 1031 561 1051 q 489 997 519 1010 q 417 983 458 983 m 417 -314 q 351 -290 378 -314 q 325 -226 325 -267 q 351 -162 325 -186 q 417 -137 378 -137 q 482 -162 456 -137 q 508 -226 508 -186 q 482 -290 508 -267 q 417 -314 456 -314 z "},"Ą":{"ha":833,"x_min":44,"x_max":832,"o":"m 551 371 l 508 510 q 463 662 485 586 q 418 817 440 738 l 413 817 q 368 662 390 738 q 322 510 346 586 l 279 371 l 551 371 m 832 -256 q 781 -283 813 -271 q 721 -294 749 -294 q 627 -264 665 -294 q 589 -174 589 -233 q 599 -119 589 -146 q 623 -71 608 -93 q 656 -31 638 -49 q 693 0 675 -12 l 667 0 l 581 278 l 250 278 l 163 0 l 44 0 l 351 911 l 482 911 l 789 0 q 709 -62 740 -19 q 678 -149 678 -104 q 698 -197 678 -181 q 742 -212 718 -212 q 800 -193 774 -212 l 832 -256 z "},"Æ":{"ha":833,"x_min":-1,"x_max":821,"o":"m 440 358 l 440 819 l 436 819 q 378 672 408 744 q 321 524 349 599 l 257 358 l 440 358 m 821 99 l 821 0 l 440 0 l 440 265 l 221 265 l 119 0 l -1 0 l 360 911 l 808 911 l 808 814 l 546 814 l 546 529 l 750 529 l 750 431 l 546 431 l 546 99 l 821 99 z "},"Ç":{"ha":833,"x_min":92,"x_max":769,"o":"m 92 456 q 122 653 92 565 q 206 801 151 740 q 335 895 260 863 q 499 928 410 928 q 644 894 582 928 q 747 817 707 861 l 682 743 q 601 803 646 781 q 499 826 557 826 q 380 801 433 826 q 289 727 326 775 q 231 611 251 679 q 211 458 211 543 q 231 303 211 372 q 289 186 251 235 q 380 111 326 138 q 499 85 433 85 q 610 111 561 85 q 703 186 658 138 l 769 115 q 647 18 715 53 q 492 -17 579 -17 q 333 15 406 -17 q 206 108 260 47 q 122 256 153 168 q 92 456 92 344 m 447 4 l 522 4 l 488 -69 q 545 -103 521 -81 q 569 -168 569 -125 q 553 -221 569 -199 q 508 -258 536 -243 q 444 -283 481 -274 q 368 -296 407 -292 l 357 -239 q 447 -216 413 -232 q 481 -172 481 -200 q 458 -130 481 -144 q 392 -104 435 -115 l 447 4 z "},"Ć":{"ha":833,"x_min":92,"x_max":769,"o":"m 92 456 q 122 653 92 565 q 206 801 151 740 q 335 895 260 863 q 499 928 410 928 q 644 894 582 928 q 747 817 707 861 l 682 743 q 601 803 646 781 q 499 826 557 826 q 380 801 433 826 q 289 727 326 775 q 231 611 251 679 q 211 458 211 543 q 231 303 211 372 q 289 186 251 235 q 380 111 326 138 q 499 85 433 85 q 610 111 561 85 q 703 186 658 138 l 769 115 q 647 18 715 53 q 492 -17 579 -17 q 333 15 406 -17 q 206 108 260 47 q 122 256 153 168 q 92 456 92 344 m 507 981 l 411 981 l 533 1136 l 664 1136 l 507 981 z "},"Ĉ":{"ha":833,"x_min":92,"x_max":769,"o":"m 92 456 q 122 653 92 565 q 206 801 151 740 q 335 895 260 863 q 499 928 410 928 q 644 894 582 928 q 747 817 707 861 l 682 743 q 601 803 646 781 q 499 826 557 826 q 380 801 433 826 q 289 727 326 775 q 231 611 251 679 q 211 458 211 543 q 231 303 211 372 q 289 186 251 235 q 380 111 326 138 q 499 85 433 85 q 610 111 561 85 q 703 186 658 138 l 769 115 q 647 18 715 53 q 492 -17 579 -17 q 333 15 406 -17 q 206 108 260 47 q 122 256 153 168 q 92 456 92 344 m 293 981 l 426 1136 l 538 1136 l 671 981 l 578 981 l 485 1075 l 479 1075 l 386 981 l 293 981 z "},"Č":{"ha":833,"x_min":92,"x_max":769,"o":"m 92 456 q 122 653 92 565 q 206 801 151 740 q 335 895 260 863 q 499 928 410 928 q 644 894 582 928 q 747 817 707 861 l 682 743 q 601 803 646 781 q 499 826 557 826 q 380 801 433 826 q 289 727 326 775 q 231 611 251 679 q 211 458 211 543 q 231 303 211 372 q 289 186 251 235 q 380 111 326 138 q 499 85 433 85 q 610 111 561 85 q 703 186 658 138 l 769 115 q 647 18 715 53 q 492 -17 579 -17 q 333 15 406 -17 q 206 108 260 47 q 122 256 153 168 q 92 456 92 344 m 671 1136 l 538 981 l 426 981 l 293 1136 l 386 1136 l 479 1042 l 485 1042 l 578 1136 l 671 1136 z "},"Ċ":{"ha":833,"x_min":92,"x_max":769,"o":"m 92 456 q 122 653 92 565 q 206 801 151 740 q 335 895 260 863 q 499 928 410 928 q 644 894 582 928 q 747 817 707 861 l 682 743 q 601 803 646 781 q 499 826 557 826 q 380 801 433 826 q 289 727 326 775 q 231 611 251 679 q 211 458 211 543 q 231 303 211 372 q 289 186 251 235 q 380 111 326 138 q 499 85 433 85 q 610 111 561 85 q 703 186 658 138 l 769 115 q 647 18 715 53 q 492 -17 579 -17 q 333 15 406 -17 q 206 108 260 47 q 122 256 153 168 q 92 456 92 344 m 482 992 q 426 1013 449 992 q 403 1067 403 1033 q 426 1119 403 1099 q 482 1140 449 1140 q 538 1119 515 1140 q 561 1067 561 1099 q 538 1013 561 1033 q 482 992 515 992 z "},"Ď":{"ha":833,"x_min":118,"x_max":763,"o":"m 118 911 l 340 911 q 655 794 547 911 q 763 460 763 678 q 735 266 763 351 q 656 122 708 181 q 525 31 603 63 q 346 0 447 0 l 118 0 l 118 911 m 333 94 q 566 190 489 94 q 643 460 643 286 q 566 725 643 633 q 333 817 489 817 l 233 817 l 233 94 l 333 94 m 606 1136 l 472 981 l 361 981 l 228 1136 l 321 1136 l 414 1042 l 419 1042 l 513 1136 l 606 1136 z "},"Ḍ":{"ha":833,"x_min":118,"x_max":763,"o":"m 118 911 l 340 911 q 655 794 547 911 q 763 460 763 678 q 735 266 763 351 q 656 122 708 181 q 525 31 603 63 q 346 0 447 0 l 118 0 l 118 911 m 333 94 q 566 190 489 94 q 643 460 643 286 q 566 725 643 633 q 333 817 489 817 l 233 817 l 233 94 l 333 94 m 404 -314 q 339 -290 365 -314 q 313 -226 313 -267 q 339 -162 313 -186 q 404 -137 365 -137 q 469 -162 443 -137 q 496 -226 496 -186 q 469 -290 496 -267 q 404 -314 443 -314 z "},"Ḏ":{"ha":833,"x_min":118,"x_max":763,"o":"m 118 911 l 340 911 q 655 794 547 911 q 763 460 763 678 q 735 266 763 351 q 656 122 708 181 q 525 31 603 63 q 346 0 447 0 l 118 0 l 118 911 m 333 94 q 566 190 489 94 q 643 460 643 286 q 566 725 643 633 q 333 817 489 817 l 233 817 l 233 94 l 333 94 m 575 -237 l 232 -237 l 232 -157 l 575 -157 l 575 -237 z "},"Đ":{"ha":833,"x_min":22,"x_max":771,"o":"m 126 446 l 22 446 l 22 504 l 126 511 l 126 911 l 350 911 q 663 794 556 911 q 771 460 771 678 q 663 121 771 242 q 354 0 556 0 l 126 0 l 126 446 m 342 94 q 574 190 497 94 q 651 460 651 286 q 574 725 651 633 q 342 817 497 817 l 242 817 l 242 511 l 440 511 l 440 446 l 242 446 l 242 94 l 342 94 z "},"È":{"ha":833,"x_min":160,"x_max":736,"o":"m 160 911 l 722 911 l 722 814 l 276 814 l 276 528 l 653 528 l 653 429 l 276 429 l 276 99 l 736 99 l 736 0 l 160 0 l 160 911 m 278 1136 l 408 1136 l 531 981 l 435 981 l 278 1136 z "},"É":{"ha":833,"x_min":160,"x_max":736,"o":"m 160 911 l 722 911 l 722 814 l 276 814 l 276 528 l 653 528 l 653 429 l 276 429 l 276 99 l 736 99 l 736 0 l 160 0 l 160 911 m 485 981 l 389 981 l 511 1136 l 642 1136 l 485 981 z "},"Ê":{"ha":833,"x_min":160,"x_max":736,"o":"m 160 911 l 722 911 l 722 814 l 276 814 l 276 528 l 653 528 l 653 429 l 276 429 l 276 99 l 736 99 l 736 0 l 160 0 l 160 911 m 271 981 l 404 1136 l 515 1136 l 649 981 l 556 981 l 463 1075 l 457 1075 l 364 981 l 271 981 z "},"Ě":{"ha":833,"x_min":160,"x_max":736,"o":"m 160 911 l 722 911 l 722 814 l 276 814 l 276 528 l 653 528 l 653 429 l 276 429 l 276 99 l 736 99 l 736 0 l 160 0 l 160 911 m 649 1136 l 515 981 l 404 981 l 271 1136 l 364 1136 l 457 1042 l 463 1042 l 556 1136 l 649 1136 z "},"Ë":{"ha":833,"x_min":160,"x_max":736,"o":"m 160 911 l 722 911 l 722 814 l 276 814 l 276 528 l 653 528 l 653 429 l 276 429 l 276 99 l 736 99 l 736 0 l 160 0 l 160 911 m 340 993 q 291 1013 310 993 q 272 1061 272 1032 q 291 1110 272 1092 q 340 1129 310 1129 q 389 1110 369 1129 q 408 1061 408 1092 q 389 1013 408 1032 q 340 993 369 993 m 579 993 q 531 1013 550 993 q 511 1061 511 1032 q 531 1110 511 1092 q 579 1129 550 1129 q 628 1110 610 1129 q 647 1061 647 1092 q 628 1013 647 1032 q 579 993 610 993 z "},"Ē":{"ha":833,"x_min":160,"x_max":736,"o":"m 160 911 l 722 911 l 722 814 l 276 814 l 276 528 l 653 528 l 653 429 l 276 429 l 276 99 l 736 99 l 736 0 l 160 0 l 160 911 m 288 1092 l 632 1092 l 632 1013 l 288 1013 l 288 1092 z "},"Ĕ":{"ha":833,"x_min":160,"x_max":736,"o":"m 160 911 l 722 911 l 722 814 l 276 814 l 276 528 l 653 528 l 653 429 l 276 429 l 276 99 l 736 99 l 736 0 l 160 0 l 160 911 m 460 983 q 388 997 418 983 q 336 1031 357 1010 q 304 1079 315 1051 q 289 1136 293 1107 l 358 1136 q 389 1076 365 1103 q 460 1049 413 1049 q 531 1076 507 1049 q 561 1136 554 1103 l 631 1136 q 615 1079 626 1107 q 583 1031 604 1051 q 532 997 563 1010 q 460 983 501 983 z "},"Ė":{"ha":833,"x_min":160,"x_max":736,"o":"m 160 911 l 722 911 l 722 814 l 276 814 l 276 528 l 653 528 l 653 429 l 276 429 l 276 99 l 736 99 l 736 0 l 160 0 l 160 911 m 460 992 q 403 1013 426 992 q 381 1067 381 1033 q 403 1119 381 1099 q 460 1140 426 1140 q 516 1119 493 1140 q 539 1067 539 1099 q 516 1013 539 1033 q 460 992 493 992 z "},"Ẹ":{"ha":833,"x_min":160,"x_max":736,"o":"m 160 911 l 722 911 l 722 814 l 276 814 l 276 528 l 653 528 l 653 429 l 276 429 l 276 99 l 736 99 l 736 0 l 160 0 l 160 911 m 461 -314 q 396 -290 422 -314 q 369 -226 369 -267 q 396 -162 369 -186 q 461 -137 422 -137 q 526 -162 500 -137 q 553 -226 553 -186 q 526 -290 553 -267 q 461 -314 500 -314 z "},"Ẻ":{"ha":833,"x_min":160,"x_max":736,"o":"m 160 911 l 722 911 l 722 814 l 276 814 l 276 528 l 653 528 l 653 429 l 276 429 l 276 99 l 736 99 l 736 0 l 160 0 l 160 911 m 408 1022 q 464 1046 442 1032 q 486 1086 486 1060 q 371 1144 486 1140 l 383 1211 q 525 1180 475 1208 q 575 1099 575 1151 q 563 1047 575 1068 q 528 1009 550 1025 q 479 984 507 993 q 421 969 451 975 l 408 1022 z "},"Ẽ":{"ha":833,"x_min":160,"x_max":736,"o":"m 160 911 l 722 911 l 722 814 l 276 814 l 276 528 l 653 528 l 653 429 l 276 429 l 276 99 l 736 99 l 736 0 l 160 0 l 160 911 m 543 988 q 493 999 515 988 q 452 1024 471 1010 q 415 1049 433 1038 q 378 1060 397 1060 q 343 1042 358 1060 q 322 988 328 1024 l 258 988 q 296 1095 265 1053 q 376 1138 326 1138 q 426 1126 404 1138 q 467 1101 449 1115 q 504 1076 486 1088 q 542 1065 522 1065 q 576 1084 561 1065 q 597 1138 592 1103 l 661 1138 q 624 1031 654 1074 q 543 988 593 988 z "},"Ế":{"ha":833,"x_min":160,"x_max":785,"o":"m 160 911 l 722 911 l 722 814 l 276 814 l 276 528 l 653 528 l 653 429 l 276 429 l 276 99 l 736 99 l 736 0 l 160 0 l 160 911 m 685 1224 l 785 1224 l 658 1069 l 586 1069 l 685 1224 m 410 1128 l 510 1128 l 638 981 l 550 981 l 463 1067 l 457 1067 l 369 981 l 282 981 l 410 1128 z "},"Ề":{"ha":833,"x_min":160,"x_max":736,"o":"m 160 911 l 722 911 l 722 814 l 276 814 l 276 528 l 653 528 l 653 429 l 276 429 l 276 99 l 736 99 l 736 0 l 160 0 l 160 911 m 715 1069 l 643 1069 l 517 1224 l 617 1224 l 715 1069 m 410 1128 l 510 1128 l 638 981 l 550 981 l 463 1067 l 457 1067 l 369 981 l 282 981 l 410 1128 z "},"Ể":{"ha":833,"x_min":160,"x_max":747,"o":"m 160 911 l 722 911 l 722 814 l 276 814 l 276 528 l 653 528 l 653 429 l 276 429 l 276 99 l 736 99 l 736 0 l 160 0 l 160 911 m 604 1096 q 649 1113 631 1103 q 667 1146 667 1124 q 644 1185 667 1174 q 568 1200 621 1197 l 581 1258 q 705 1231 663 1256 q 747 1157 747 1206 q 708 1080 747 1104 q 619 1047 669 1056 l 604 1096 m 410 1128 l 510 1128 l 638 981 l 550 981 l 463 1067 l 457 1067 l 369 981 l 282 981 l 410 1128 z "},"Ễ":{"ha":833,"x_min":160,"x_max":736,"o":"m 160 911 l 722 911 l 722 814 l 276 814 l 276 528 l 653 528 l 653 429 l 276 429 l 276 99 l 736 99 l 736 0 l 160 0 l 160 911 m 410 1128 l 510 1128 l 638 981 l 550 981 l 463 1067 l 457 1067 l 369 981 l 282 981 l 410 1128 m 276 1178 q 309 1267 282 1232 q 385 1303 336 1303 q 431 1294 411 1303 q 468 1274 451 1285 q 499 1253 485 1263 q 531 1244 514 1244 q 566 1259 551 1244 q 585 1303 581 1274 l 643 1303 q 610 1213 638 1247 q 535 1178 583 1178 q 488 1187 508 1178 q 451 1207 468 1196 q 420 1227 435 1218 q 389 1236 406 1236 q 353 1222 368 1236 q 335 1178 339 1207 l 276 1178 z "},"Ệ":{"ha":833,"x_min":160,"x_max":736,"o":"m 160 911 l 722 911 l 722 814 l 276 814 l 276 528 l 653 528 l 653 429 l 276 429 l 276 99 l 736 99 l 736 0 l 160 0 l 160 911 m 271 981 l 404 1136 l 515 1136 l 649 981 l 556 981 l 463 1075 l 457 1075 l 364 981 l 271 981 m 461 -314 q 396 -290 422 -314 q 369 -226 369 -267 q 396 -162 369 -186 q 461 -137 422 -137 q 526 -162 500 -137 q 553 -226 553 -186 q 526 -290 553 -267 q 461 -314 500 -314 z "},"Ę":{"ha":833,"x_min":160,"x_max":757,"o":"m 160 911 l 722 911 l 722 814 l 276 814 l 276 528 l 653 528 l 653 429 l 276 429 l 276 99 l 736 99 l 736 0 l 731 0 q 684 -16 707 -3 q 644 -49 661 -29 q 615 -95 626 -69 q 604 -149 604 -121 q 624 -197 604 -181 q 669 -212 644 -212 q 699 -208 686 -212 q 726 -193 713 -203 l 757 -256 q 706 -283 738 -271 q 646 -294 674 -294 q 553 -264 592 -294 q 514 -174 514 -233 q 547 -70 514 -115 q 618 0 579 -25 l 160 0 l 160 911 z "},"Ĝ":{"ha":833,"x_min":74,"x_max":740,"o":"m 74 456 q 103 653 74 565 q 187 802 133 742 q 315 895 240 863 q 478 928 389 928 q 561 918 524 928 q 630 892 599 908 q 685 857 661 876 q 729 817 710 838 l 664 743 q 588 803 631 779 q 478 826 544 826 q 362 801 414 826 q 272 727 310 775 q 215 611 235 679 q 194 458 194 543 q 213 303 194 372 q 267 186 232 235 q 356 111 303 138 q 475 85 408 85 q 565 99 524 85 q 633 139 607 114 l 633 376 l 451 376 l 451 472 l 740 472 l 740 89 q 626 14 696 44 q 468 -17 557 -17 q 310 15 382 -17 q 185 108 238 47 q 103 256 132 168 q 74 456 74 344 m 271 981 l 404 1136 l 515 1136 l 649 981 l 556 981 l 463 1075 l 457 1075 l 364 981 l 271 981 z "},"Ğ":{"ha":833,"x_min":74,"x_max":740,"o":"m 74 456 q 103 653 74 565 q 187 802 133 742 q 315 895 240 863 q 478 928 389 928 q 561 918 524 928 q 630 892 599 908 q 685 857 661 876 q 729 817 710 838 l 664 743 q 588 803 631 779 q 478 826 544 826 q 362 801 414 826 q 272 727 310 775 q 215 611 235 679 q 194 458 194 543 q 213 303 194 372 q 267 186 232 235 q 356 111 303 138 q 475 85 408 85 q 565 99 524 85 q 633 139 607 114 l 633 376 l 451 376 l 451 472 l 740 472 l 740 89 q 626 14 696 44 q 468 -17 557 -17 q 310 15 382 -17 q 185 108 238 47 q 103 256 132 168 q 74 456 74 344 m 460 983 q 388 997 418 983 q 336 1031 357 1010 q 304 1079 315 1051 q 289 1136 293 1107 l 358 1136 q 389 1076 365 1103 q 460 1049 413 1049 q 531 1076 507 1049 q 561 1136 554 1103 l 631 1136 q 615 1079 626 1107 q 583 1031 604 1051 q 532 997 563 1010 q 460 983 501 983 z "},"Ġ":{"ha":833,"x_min":74,"x_max":740,"o":"m 74 456 q 103 653 74 565 q 187 802 133 742 q 315 895 240 863 q 478 928 389 928 q 561 918 524 928 q 630 892 599 908 q 685 857 661 876 q 729 817 710 838 l 664 743 q 588 803 631 779 q 478 826 544 826 q 362 801 414 826 q 272 727 310 775 q 215 611 235 679 q 194 458 194 543 q 213 303 194 372 q 267 186 232 235 q 356 111 303 138 q 475 85 408 85 q 565 99 524 85 q 633 139 607 114 l 633 376 l 451 376 l 451 472 l 740 472 l 740 89 q 626 14 696 44 q 468 -17 557 -17 q 310 15 382 -17 q 185 108 238 47 q 103 256 132 168 q 74 456 74 344 m 460 992 q 403 1013 426 992 q 381 1067 381 1033 q 403 1119 381 1099 q 460 1140 426 1140 q 516 1119 493 1140 q 539 1067 539 1099 q 516 1013 539 1033 q 460 992 493 992 z "},"Ģ":{"ha":833,"x_min":74,"x_max":740,"o":"m 74 456 q 103 653 74 565 q 187 802 133 742 q 315 895 240 863 q 478 928 389 928 q 561 918 524 928 q 630 892 599 908 q 685 857 661 876 q 729 817 710 838 l 664 743 q 588 803 631 779 q 478 826 544 826 q 362 801 414 826 q 272 727 310 775 q 215 611 235 679 q 194 458 194 543 q 213 303 194 372 q 267 186 232 235 q 356 111 303 138 q 475 85 408 85 q 565 99 524 85 q 633 139 607 114 l 633 376 l 451 376 l 451 472 l 740 472 l 740 89 q 626 14 696 44 q 468 -17 557 -17 q 310 15 382 -17 q 185 108 238 47 q 103 256 132 168 q 74 456 74 344 m 425 -67 q 528 -102 496 -78 q 560 -174 560 -126 q 543 -226 560 -204 q 499 -264 526 -249 q 434 -288 471 -279 q 358 -300 397 -297 l 347 -244 q 437 -223 403 -237 q 471 -181 471 -208 q 450 -140 471 -153 q 400 -119 429 -126 l 425 -67 l 425 -67 z "},"Ǧ":{"ha":833,"x_min":74,"x_max":740,"o":"m 74 456 q 103 653 74 565 q 187 802 133 742 q 315 895 240 863 q 478 928 389 928 q 561 918 524 928 q 630 892 599 908 q 685 857 661 876 q 729 817 710 838 l 664 743 q 588 803 631 779 q 478 826 544 826 q 362 801 414 826 q 272 727 310 775 q 215 611 235 679 q 194 458 194 543 q 213 303 194 372 q 267 186 232 235 q 356 111 303 138 q 475 85 408 85 q 565 99 524 85 q 633 139 607 114 l 633 376 l 451 376 l 451 472 l 740 472 l 740 89 q 626 14 696 44 q 468 -17 557 -17 q 310 15 382 -17 q 185 108 238 47 q 103 256 132 168 q 74 456 74 344 m 649 1136 l 515 981 l 404 981 l 271 1136 l 364 1136 l 457 1042 l 463 1042 l 556 1136 l 649 1136 z "},"Ḡ":{"ha":833,"x_min":74,"x_max":740,"o":"m 74 456 q 103 653 74 565 q 187 802 133 742 q 315 895 240 863 q 478 928 389 928 q 561 918 524 928 q 630 892 599 908 q 685 857 661 876 q 729 817 710 838 l 664 743 q 588 803 631 779 q 478 826 544 826 q 362 801 414 826 q 272 727 310 775 q 215 611 235 679 q 194 458 194 543 q 213 303 194 372 q 267 186 232 235 q 356 111 303 138 q 475 85 408 85 q 565 99 524 85 q 633 139 607 114 l 633 376 l 451 376 l 451 472 l 740 472 l 740 89 q 626 14 696 44 q 468 -17 557 -17 q 310 15 382 -17 q 185 108 238 47 q 103 256 132 168 q 74 456 74 344 m 288 1092 l 632 1092 l 632 1013 l 288 1013 l 288 1092 z "},"Ĥ":{"ha":833,"x_min":110,"x_max":724,"o":"m 110 911 l 226 911 l 226 529 l 607 529 l 607 911 l 724 911 l 724 0 l 607 0 l 607 429 l 226 429 l 226 0 l 110 0 l 110 911 m 228 981 l 361 1136 l 472 1136 l 606 981 l 513 981 l 419 1075 l 414 1075 l 321 981 l 228 981 z "},"Ḥ":{"ha":833,"x_min":110,"x_max":724,"o":"m 110 911 l 226 911 l 226 529 l 607 529 l 607 911 l 724 911 l 724 0 l 607 0 l 607 429 l 226 429 l 226 0 l 110 0 l 110 911 m 417 -314 q 351 -290 378 -314 q 325 -226 325 -267 q 351 -162 325 -186 q 417 -137 378 -137 q 482 -162 456 -137 q 508 -226 508 -186 q 482 -290 508 -267 q 417 -314 456 -314 z "},"Ḫ":{"ha":833,"x_min":110,"x_max":724,"o":"m 110 911 l 226 911 l 226 529 l 607 529 l 607 911 l 724 911 l 724 0 l 607 0 l 607 429 l 226 429 l 226 0 l 110 0 l 110 911 m 417 -286 q 340 -270 372 -286 q 286 -228 307 -254 q 254 -172 265 -203 q 242 -110 243 -140 l 313 -110 q 343 -183 318 -150 q 417 -215 368 -215 q 490 -183 465 -215 q 521 -110 515 -150 l 592 -110 q 578 -172 589 -140 q 547 -228 568 -203 q 494 -270 526 -254 q 417 -286 461 -286 z "},"Ħ":{"ha":833,"x_min":14,"x_max":819,"o":"m 607 683 l 226 683 l 226 529 l 607 529 l 607 683 m 819 683 l 724 683 l 724 0 l 607 0 l 607 429 l 226 429 l 226 0 l 110 0 l 110 683 l 14 683 l 14 742 l 110 749 l 110 911 l 226 911 l 226 749 l 607 749 l 607 911 l 724 911 l 724 749 l 819 749 l 819 683 z "},"Ì":{"ha":833,"x_min":132,"x_max":701,"o":"m 132 99 l 358 99 l 358 814 l 132 814 l 132 911 l 701 911 l 701 814 l 475 814 l 475 99 l 701 99 l 701 0 l 132 0 l 132 99 m 235 1136 l 365 1136 l 488 981 l 392 981 l 235 1136 z "},"Í":{"ha":833,"x_min":132,"x_max":701,"o":"m 132 99 l 358 99 l 358 814 l 132 814 l 132 911 l 701 911 l 701 814 l 475 814 l 475 99 l 701 99 l 701 0 l 132 0 l 132 99 m 442 981 l 346 981 l 468 1136 l 599 1136 l 442 981 z "},"Î":{"ha":833,"x_min":132,"x_max":701,"o":"m 132 99 l 358 99 l 358 814 l 132 814 l 132 911 l 701 911 l 701 814 l 475 814 l 475 99 l 701 99 l 701 0 l 132 0 l 132 99 m 228 981 l 361 1136 l 472 1136 l 606 981 l 513 981 l 419 1075 l 414 1075 l 321 981 l 228 981 z "},"Ĩ":{"ha":833,"x_min":132,"x_max":701,"o":"m 132 99 l 358 99 l 358 814 l 132 814 l 132 911 l 701 911 l 701 814 l 475 814 l 475 99 l 701 99 l 701 0 l 132 0 l 132 99 m 500 988 q 450 999 472 988 q 409 1024 428 1010 q 372 1049 390 1038 q 335 1060 354 1060 q 300 1042 315 1060 q 279 988 285 1024 l 215 988 q 253 1095 222 1053 q 333 1138 283 1138 q 383 1126 361 1138 q 424 1101 406 1115 q 461 1076 443 1088 q 499 1065 479 1065 q 533 1084 518 1065 q 554 1138 549 1103 l 618 1138 q 581 1031 611 1074 q 500 988 550 988 z "},"Ï":{"ha":833,"x_min":132,"x_max":701,"o":"m 132 99 l 358 99 l 358 814 l 132 814 l 132 911 l 701 911 l 701 814 l 475 814 l 475 99 l 701 99 l 701 0 l 132 0 l 132 99 m 297 993 q 248 1013 267 993 q 229 1061 229 1032 q 248 1110 229 1092 q 297 1129 267 1129 q 346 1110 326 1129 q 365 1061 365 1092 q 346 1013 365 1032 q 297 993 326 993 m 536 993 q 488 1013 507 993 q 468 1061 468 1032 q 488 1110 468 1092 q 536 1129 507 1129 q 585 1110 567 1129 q 604 1061 604 1092 q 585 1013 604 1032 q 536 993 567 993 z "},"Ī":{"ha":833,"x_min":132,"x_max":701,"o":"m 132 99 l 358 99 l 358 814 l 132 814 l 132 911 l 701 911 l 701 814 l 475 814 l 475 99 l 701 99 l 701 0 l 132 0 l 132 99 m 244 1092 l 589 1092 l 589 1013 l 244 1013 l 244 1092 z "},"İ":{"ha":833,"x_min":132,"x_max":701,"o":"m 132 99 l 358 99 l 358 814 l 132 814 l 132 911 l 701 911 l 701 814 l 475 814 l 475 99 l 701 99 l 701 0 l 132 0 l 132 99 m 417 992 q 360 1013 383 992 q 338 1067 338 1033 q 360 1119 338 1099 q 417 1140 383 1140 q 473 1119 450 1140 q 496 1067 496 1099 q 473 1013 496 1033 q 417 992 450 992 z "},"Ǐ":{"ha":833,"x_min":132,"x_max":701,"o":"m 132 99 l 358 99 l 358 814 l 132 814 l 132 911 l 701 911 l 701 814 l 475 814 l 475 99 l 701 99 l 701 0 l 132 0 l 132 99 m 606 1136 l 472 981 l 361 981 l 228 1136 l 321 1136 l 414 1042 l 419 1042 l 513 1136 l 606 1136 z "},"Ỉ":{"ha":833,"x_min":132,"x_max":701,"o":"m 132 99 l 358 99 l 358 814 l 132 814 l 132 911 l 701 911 l 701 814 l 475 814 l 475 99 l 701 99 l 701 0 l 132 0 l 132 99 m 365 1022 q 421 1046 399 1032 q 443 1086 443 1060 q 328 1144 443 1140 l 340 1211 q 482 1180 432 1208 q 532 1099 532 1151 q 519 1047 532 1068 q 485 1009 507 1025 q 436 984 464 993 q 378 969 408 975 l 365 1022 z "},"Ị":{"ha":833,"x_min":132,"x_max":701,"o":"m 132 99 l 358 99 l 358 814 l 132 814 l 132 911 l 701 911 l 701 814 l 475 814 l 475 99 l 701 99 l 701 0 l 132 0 l 132 99 m 418 -314 q 353 -290 379 -314 q 326 -226 326 -267 q 353 -162 326 -186 q 418 -137 379 -137 q 483 -162 457 -137 q 510 -226 510 -186 q 483 -290 510 -267 q 418 -314 457 -314 z "},"Į":{"ha":833,"x_min":132,"x_max":701,"o":"m 132 99 l 358 99 l 358 814 l 132 814 l 132 911 l 701 911 l 701 814 l 475 814 l 475 99 l 701 99 l 701 0 l 475 0 q 407 -69 431 -33 q 383 -149 383 -106 q 404 -197 383 -181 q 450 -212 425 -212 q 506 -193 482 -212 l 538 -256 q 486 -283 518 -271 q 426 -294 454 -294 q 333 -264 371 -294 q 294 -174 294 -233 q 324 -72 294 -114 q 386 0 353 -31 l 132 0 l 132 99 z "},"Ĵ":{"ha":833,"x_min":113,"x_max":685,"o":"m 188 204 q 278 114 228 143 q 381 85 328 85 q 524 137 479 85 q 569 301 569 189 l 569 815 l 188 815 l 188 913 l 685 913 l 685 292 q 669 172 685 228 q 619 74 654 115 q 526 8 583 32 q 383 -17 468 -17 q 233 19 306 -17 q 113 135 160 56 l 188 204 m 257 981 l 390 1136 l 501 1136 l 635 981 l 542 981 l 449 1075 l 443 1075 l 350 981 l 257 981 z "},"Ķ":{"ha":833,"x_min":136,"x_max":804,"o":"m 136 911 l 253 911 l 253 454 l 257 454 l 640 911 l 771 911 l 483 564 l 804 0 l 675 0 l 411 474 l 253 289 l 253 0 l 136 0 l 136 911 m 429 -67 q 532 -102 500 -78 q 564 -174 564 -126 q 547 -226 564 -204 q 503 -264 531 -249 q 438 -288 475 -279 q 363 -300 401 -297 l 351 -244 q 441 -223 407 -237 q 475 -181 475 -208 q 454 -140 475 -153 q 404 -119 433 -126 l 429 -67 l 429 -67 z "},"Ĺ":{"ha":833,"x_min":186,"x_max":751,"o":"m 186 911 l 300 911 l 300 99 l 751 99 l 751 0 l 186 0 l 186 911 m 290 981 l 194 981 l 317 1136 l 447 1136 l 290 981 z "},"Ľ":{"ha":833,"x_min":186,"x_max":751,"o":"m 186 911 l 300 911 l 300 99 l 751 99 l 751 0 l 186 0 l 186 911 m 542 715 l 536 1010 l 618 1010 l 617 931 l 597 715 l 542 715 z "},"Ļ":{"ha":833,"x_min":186,"x_max":751,"o":"m 186 911 l 300 911 l 300 99 l 751 99 l 751 0 l 186 0 l 186 911 m 440 -67 q 543 -102 511 -78 q 575 -174 575 -126 q 558 -226 575 -204 q 514 -264 542 -249 q 449 -288 486 -279 q 374 -300 413 -297 l 363 -244 q 452 -223 418 -237 q 486 -181 486 -208 q 465 -140 486 -153 q 415 -119 444 -126 l 440 -67 l 440 -67 z "},"Ŀ":{"ha":833,"x_min":186,"x_max":751,"o":"m 186 911 l 300 911 l 300 99 l 751 99 l 751 0 l 186 0 l 186 911 m 597 396 q 532 419 558 396 q 506 483 506 443 q 532 548 506 524 q 597 572 558 572 q 663 548 636 572 q 689 483 689 524 q 663 419 689 443 q 597 396 636 396 z "},"Ḷ":{"ha":833,"x_min":186,"x_max":751,"o":"m 186 911 l 300 911 l 300 99 l 751 99 l 751 0 l 186 0 l 186 911 m 481 -314 q 415 -290 442 -314 q 389 -226 389 -267 q 415 -162 389 -186 q 481 -137 442 -137 q 546 -162 519 -137 q 572 -226 572 -186 q 546 -290 572 -267 q 481 -314 519 -314 z "},"Ḹ":{"ha":833,"x_min":93,"x_max":751,"o":"m 186 911 l 300 911 l 300 99 l 751 99 l 751 0 l 186 0 l 186 911 m 93 1092 l 438 1092 l 438 1013 l 93 1013 l 93 1092 m 481 -314 q 415 -290 442 -314 q 389 -226 389 -267 q 415 -162 389 -186 q 481 -137 442 -137 q 546 -162 519 -137 q 572 -226 572 -186 q 546 -290 572 -267 q 481 -314 519 -314 z "},"Ḻ":{"ha":833,"x_min":186,"x_max":751,"o":"m 186 911 l 300 911 l 300 99 l 751 99 l 751 0 l 186 0 l 186 911 m 651 -237 l 308 -237 l 308 -157 l 651 -157 l 651 -237 z "},"Ł":{"ha":833,"x_min":74,"x_max":751,"o":"m 751 99 l 751 0 l 186 0 l 186 315 l 74 256 l 74 349 l 186 410 l 186 911 l 300 911 l 300 465 l 614 632 l 614 538 l 300 371 l 300 99 l 751 99 z "},"Ṃ":{"ha":833,"x_min":113,"x_max":721,"o":"m 113 911 l 240 911 l 369 524 l 415 376 l 421 376 l 465 524 l 593 911 l 721 911 l 721 0 l 622 0 l 622 513 q 624 578 622 540 q 627 653 625 615 q 631 728 629 692 q 636 793 633 765 l 632 793 l 572 599 l 447 247 l 385 247 l 260 599 l 199 793 l 194 793 q 199 728 196 765 q 204 653 201 692 q 208 578 207 615 q 210 513 210 540 l 210 0 l 113 0 l 113 911 m 417 -314 q 351 -290 378 -314 q 325 -226 325 -267 q 351 -162 325 -186 q 417 -137 378 -137 q 482 -162 456 -137 q 508 -226 508 -186 q 482 -290 508 -267 q 417 -314 456 -314 z "},"Ń":{"ha":833,"x_min":115,"x_max":718,"o":"m 115 911 l 233 911 l 529 336 l 621 150 l 624 150 q 615 292 621 218 q 608 439 608 367 l 608 911 l 718 911 l 718 0 l 600 0 l 304 575 l 213 761 l 210 761 q 219 619 213 690 q 225 476 225 547 l 225 0 l 115 0 l 115 911 m 450 981 l 354 981 l 476 1136 l 607 1136 l 450 981 z "},"Ň":{"ha":833,"x_min":115,"x_max":718,"o":"m 115 911 l 233 911 l 529 336 l 621 150 l 624 150 q 615 292 621 218 q 608 439 608 367 l 608 911 l 718 911 l 718 0 l 600 0 l 304 575 l 213 761 l 210 761 q 219 619 213 690 q 225 476 225 547 l 225 0 l 115 0 l 115 911 m 614 1136 l 481 981 l 369 981 l 236 1136 l 329 1136 l 422 1042 l 428 1042 l 521 1136 l 614 1136 z "},"Ñ":{"ha":833,"x_min":115,"x_max":718,"o":"m 115 911 l 233 911 l 529 336 l 621 150 l 624 150 q 615 292 621 218 q 608 439 608 367 l 608 911 l 718 911 l 718 0 l 600 0 l 304 575 l 213 761 l 210 761 q 219 619 213 690 q 225 476 225 547 l 225 0 l 115 0 l 115 911 m 508 988 q 458 999 481 988 q 417 1024 436 1010 q 381 1049 399 1038 q 343 1060 363 1060 q 308 1042 324 1060 q 288 988 293 1024 l 224 988 q 261 1095 231 1053 q 342 1138 292 1138 q 392 1126 369 1138 q 433 1101 414 1115 q 469 1076 451 1088 q 507 1065 488 1065 q 542 1084 526 1065 q 563 1138 557 1103 l 626 1138 q 589 1031 619 1074 q 508 988 558 988 z "},"Ņ":{"ha":833,"x_min":115,"x_max":718,"o":"m 115 911 l 233 911 l 529 336 l 621 150 l 624 150 q 615 292 621 218 q 608 439 608 367 l 608 911 l 718 911 l 718 0 l 600 0 l 304 575 l 213 761 l 210 761 q 219 619 213 690 q 225 476 225 547 l 225 0 l 115 0 l 115 911 m 376 -67 q 479 -102 447 -78 q 511 -174 511 -126 q 494 -226 511 -204 q 450 -264 478 -249 q 385 -288 422 -279 q 310 -300 349 -297 l 299 -244 q 388 -223 354 -237 q 422 -181 422 -208 q 401 -140 422 -153 q 351 -119 381 -126 l 376 -67 l 376 -67 z "},"Ṅ":{"ha":833,"x_min":115,"x_max":718,"o":"m 115 911 l 233 911 l 529 336 l 621 150 l 624 150 q 615 292 621 218 q 608 439 608 367 l 608 911 l 718 911 l 718 0 l 600 0 l 304 575 l 213 761 l 210 761 q 219 619 213 690 q 225 476 225 547 l 225 0 l 115 0 l 115 911 m 425 992 q 369 1013 392 992 q 346 1067 346 1033 q 369 1119 346 1099 q 425 1140 392 1140 q 481 1119 458 1140 q 504 1067 504 1099 q 481 1013 504 1033 q 425 992 458 992 z "},"Ṇ":{"ha":833,"x_min":115,"x_max":718,"o":"m 115 911 l 233 911 l 529 336 l 621 150 l 624 150 q 615 292 621 218 q 608 439 608 367 l 608 911 l 718 911 l 718 0 l 600 0 l 304 575 l 213 761 l 210 761 q 219 619 213 690 q 225 476 225 547 l 225 0 l 115 0 l 115 911 m 417 -314 q 351 -290 378 -314 q 325 -226 325 -267 q 351 -162 325 -186 q 417 -137 378 -137 q 482 -162 456 -137 q 508 -226 508 -186 q 482 -290 508 -267 q 417 -314 456 -314 z "},"Ṉ":{"ha":833,"x_min":115,"x_max":718,"o":"m 115 911 l 233 911 l 529 336 l 621 150 l 624 150 q 615 292 621 218 q 608 439 608 367 l 608 911 l 718 911 l 718 0 l 600 0 l 304 575 l 213 761 l 210 761 q 219 619 213 690 q 225 476 225 547 l 225 0 l 115 0 l 115 911 m 588 -237 l 244 -237 l 244 -157 l 588 -157 l 588 -237 z "},"Ò":{"ha":833,"x_min":67,"x_max":767,"o":"m 417 -17 q 275 17 339 -17 q 165 112 211 50 q 92 262 118 174 q 67 460 67 350 q 92 656 67 569 q 165 803 118 743 q 275 896 211 864 q 417 928 339 928 q 558 895 493 928 q 669 802 622 863 q 741 655 715 742 q 767 460 767 568 q 741 262 767 350 q 669 112 715 174 q 558 17 622 50 q 417 -17 493 -17 m 417 85 q 511 111 468 85 q 584 187 554 138 q 631 305 614 236 q 647 460 647 374 q 631 613 647 544 q 584 728 614 681 q 511 801 554 775 q 417 826 468 826 q 322 801 364 826 q 249 728 279 775 q 203 613 219 681 q 186 460 186 544 q 203 305 186 374 q 249 187 219 236 q 322 111 279 138 q 417 85 364 85 m 235 1136 l 365 1136 l 488 981 l 392 981 l 235 1136 z "},"Ó":{"ha":833,"x_min":67,"x_max":767,"o":"m 417 -17 q 275 17 339 -17 q 165 112 211 50 q 92 262 118 174 q 67 460 67 350 q 92 656 67 569 q 165 803 118 743 q 275 896 211 864 q 417 928 339 928 q 558 895 493 928 q 669 802 622 863 q 741 655 715 742 q 767 460 767 568 q 741 262 767 350 q 669 112 715 174 q 558 17 622 50 q 417 -17 493 -17 m 417 85 q 511 111 468 85 q 584 187 554 138 q 631 305 614 236 q 647 460 647 374 q 631 613 647 544 q 584 728 614 681 q 511 801 554 775 q 417 826 468 826 q 322 801 364 826 q 249 728 279 775 q 203 613 219 681 q 186 460 186 544 q 203 305 186 374 q 249 187 219 236 q 322 111 279 138 q 417 85 364 85 m 442 981 l 346 981 l 468 1136 l 599 1136 l 442 981 z "},"Ô":{"ha":833,"x_min":67,"x_max":767,"o":"m 417 -17 q 275 17 339 -17 q 165 112 211 50 q 92 262 118 174 q 67 460 67 350 q 92 656 67 569 q 165 803 118 743 q 275 896 211 864 q 417 928 339 928 q 558 895 493 928 q 669 802 622 863 q 741 655 715 742 q 767 460 767 568 q 741 262 767 350 q 669 112 715 174 q 558 17 622 50 q 417 -17 493 -17 m 417 85 q 511 111 468 85 q 584 187 554 138 q 631 305 614 236 q 647 460 647 374 q 631 613 647 544 q 584 728 614 681 q 511 801 554 775 q 417 826 468 826 q 322 801 364 826 q 249 728 279 775 q 203 613 219 681 q 186 460 186 544 q 203 305 186 374 q 249 187 219 236 q 322 111 279 138 q 417 85 364 85 m 228 981 l 361 1136 l 472 1136 l 606 981 l 513 981 l 419 1075 l 414 1075 l 321 981 l 228 981 z "},"Õ":{"ha":833,"x_min":67,"x_max":767,"o":"m 417 -17 q 275 17 339 -17 q 165 112 211 50 q 92 262 118 174 q 67 460 67 350 q 92 656 67 569 q 165 803 118 743 q 275 896 211 864 q 417 928 339 928 q 558 895 493 928 q 669 802 622 863 q 741 655 715 742 q 767 460 767 568 q 741 262 767 350 q 669 112 715 174 q 558 17 622 50 q 417 -17 493 -17 m 417 85 q 511 111 468 85 q 584 187 554 138 q 631 305 614 236 q 647 460 647 374 q 631 613 647 544 q 584 728 614 681 q 511 801 554 775 q 417 826 468 826 q 322 801 364 826 q 249 728 279 775 q 203 613 219 681 q 186 460 186 544 q 203 305 186 374 q 249 187 219 236 q 322 111 279 138 q 417 85 364 85 m 500 988 q 450 999 472 988 q 409 1024 428 1010 q 372 1049 390 1038 q 335 1060 354 1060 q 300 1042 315 1060 q 279 988 285 1024 l 215 988 q 253 1095 222 1053 q 333 1138 283 1138 q 383 1126 361 1138 q 424 1101 406 1115 q 461 1076 443 1088 q 499 1065 479 1065 q 533 1084 518 1065 q 554 1138 549 1103 l 618 1138 q 581 1031 611 1074 q 500 988 550 988 z "},"Ö":{"ha":833,"x_min":67,"x_max":767,"o":"m 417 -17 q 275 17 339 -17 q 165 112 211 50 q 92 262 118 174 q 67 460 67 350 q 92 656 67 569 q 165 803 118 743 q 275 896 211 864 q 417 928 339 928 q 558 895 493 928 q 669 802 622 863 q 741 655 715 742 q 767 460 767 568 q 741 262 767 350 q 669 112 715 174 q 558 17 622 50 q 417 -17 493 -17 m 417 85 q 511 111 468 85 q 584 187 554 138 q 631 305 614 236 q 647 460 647 374 q 631 613 647 544 q 584 728 614 681 q 511 801 554 775 q 417 826 468 826 q 322 801 364 826 q 249 728 279 775 q 203 613 219 681 q 186 460 186 544 q 203 305 186 374 q 249 187 219 236 q 322 111 279 138 q 417 85 364 85 m 297 993 q 248 1013 267 993 q 229 1061 229 1032 q 248 1110 229 1092 q 297 1129 267 1129 q 346 1110 326 1129 q 365 1061 365 1092 q 346 1013 365 1032 q 297 993 326 993 m 536 993 q 488 1013 507 993 q 468 1061 468 1032 q 488 1110 468 1092 q 536 1129 507 1129 q 585 1110 567 1129 q 604 1061 604 1092 q 585 1013 604 1032 q 536 993 567 993 z "},"Ō":{"ha":833,"x_min":67,"x_max":767,"o":"m 417 -17 q 275 17 339 -17 q 165 112 211 50 q 92 262 118 174 q 67 460 67 350 q 92 656 67 569 q 165 803 118 743 q 275 896 211 864 q 417 928 339 928 q 558 895 493 928 q 669 802 622 863 q 741 655 715 742 q 767 460 767 568 q 741 262 767 350 q 669 112 715 174 q 558 17 622 50 q 417 -17 493 -17 m 417 85 q 511 111 468 85 q 584 187 554 138 q 631 305 614 236 q 647 460 647 374 q 631 613 647 544 q 584 728 614 681 q 511 801 554 775 q 417 826 468 826 q 322 801 364 826 q 249 728 279 775 q 203 613 219 681 q 186 460 186 544 q 203 305 186 374 q 249 187 219 236 q 322 111 279 138 q 417 85 364 85 m 244 1092 l 589 1092 l 589 1013 l 244 1013 l 244 1092 z "},"Ő":{"ha":833,"x_min":67,"x_max":767,"o":"m 417 -17 q 275 17 339 -17 q 165 112 211 50 q 92 262 118 174 q 67 460 67 350 q 92 656 67 569 q 165 803 118 743 q 275 896 211 864 q 417 928 339 928 q 558 895 493 928 q 669 802 622 863 q 741 655 715 742 q 767 460 767 568 q 741 262 767 350 q 669 112 715 174 q 558 17 622 50 q 417 -17 493 -17 m 417 85 q 511 111 468 85 q 584 187 554 138 q 631 305 614 236 q 647 460 647 374 q 631 613 647 544 q 584 728 614 681 q 511 801 554 775 q 417 826 468 826 q 322 801 364 826 q 249 728 279 775 q 203 613 219 681 q 186 460 186 544 q 203 305 186 374 q 249 187 219 236 q 322 111 279 138 q 417 85 364 85 m 265 981 l 357 1136 l 464 1136 l 349 981 l 265 981 m 576 1136 l 683 1136 l 567 981 l 485 981 l 576 1136 z "},"Ǒ":{"ha":833,"x_min":67,"x_max":767,"o":"m 417 -17 q 275 17 339 -17 q 165 112 211 50 q 92 262 118 174 q 67 460 67 350 q 92 656 67 569 q 165 803 118 743 q 275 896 211 864 q 417 928 339 928 q 558 895 493 928 q 669 802 622 863 q 741 655 715 742 q 767 460 767 568 q 741 262 767 350 q 669 112 715 174 q 558 17 622 50 q 417 -17 493 -17 m 417 85 q 511 111 468 85 q 584 187 554 138 q 631 305 614 236 q 647 460 647 374 q 631 613 647 544 q 584 728 614 681 q 511 801 554 775 q 417 826 468 826 q 322 801 364 826 q 249 728 279 775 q 203 613 219 681 q 186 460 186 544 q 203 305 186 374 q 249 187 219 236 q 322 111 279 138 q 417 85 364 85 m 606 1136 l 472 981 l 361 981 l 228 1136 l 321 1136 l 414 1042 l 419 1042 l 513 1136 l 606 1136 z "},"Ọ":{"ha":833,"x_min":67,"x_max":767,"o":"m 417 -17 q 275 17 339 -17 q 165 112 211 50 q 92 262 118 174 q 67 460 67 350 q 92 656 67 569 q 165 803 118 743 q 275 896 211 864 q 417 928 339 928 q 558 895 493 928 q 669 802 622 863 q 741 655 715 742 q 767 460 767 568 q 741 262 767 350 q 669 112 715 174 q 558 17 622 50 q 417 -17 493 -17 m 417 85 q 511 111 468 85 q 584 187 554 138 q 631 305 614 236 q 647 460 647 374 q 631 613 647 544 q 584 728 614 681 q 511 801 554 775 q 417 826 468 826 q 322 801 364 826 q 249 728 279 775 q 203 613 219 681 q 186 460 186 544 q 203 305 186 374 q 249 187 219 236 q 322 111 279 138 q 417 85 364 85 m 417 -314 q 351 -290 378 -314 q 325 -226 325 -267 q 351 -162 325 -186 q 417 -137 378 -137 q 482 -162 456 -137 q 508 -226 508 -186 q 482 -290 508 -267 q 417 -314 456 -314 z "},"Ỏ":{"ha":833,"x_min":67,"x_max":767,"o":"m 417 -17 q 275 17 339 -17 q 165 112 211 50 q 92 262 118 174 q 67 460 67 350 q 92 656 67 569 q 165 803 118 743 q 275 896 211 864 q 417 928 339 928 q 558 895 493 928 q 669 802 622 863 q 741 655 715 742 q 767 460 767 568 q 741 262 767 350 q 669 112 715 174 q 558 17 622 50 q 417 -17 493 -17 m 417 85 q 511 111 468 85 q 584 187 554 138 q 631 305 614 236 q 647 460 647 374 q 631 613 647 544 q 584 728 614 681 q 511 801 554 775 q 417 826 468 826 q 322 801 364 826 q 249 728 279 775 q 203 613 219 681 q 186 460 186 544 q 203 305 186 374 q 249 187 219 236 q 322 111 279 138 q 417 85 364 85 m 365 1022 q 421 1046 399 1032 q 443 1086 443 1060 q 328 1144 443 1140 l 340 1211 q 482 1180 432 1208 q 532 1099 532 1151 q 519 1047 532 1068 q 485 1009 507 1025 q 436 984 464 993 q 378 969 408 975 l 365 1022 z "},"Ố":{"ha":833,"x_min":67,"x_max":767,"o":"m 417 -17 q 275 17 339 -17 q 165 112 211 50 q 92 262 118 174 q 67 460 67 350 q 92 656 67 569 q 165 803 118 743 q 275 896 211 864 q 417 928 339 928 q 558 895 493 928 q 669 802 622 863 q 741 655 715 742 q 767 460 767 568 q 741 262 767 350 q 669 112 715 174 q 558 17 622 50 q 417 -17 493 -17 m 417 85 q 511 111 468 85 q 584 187 554 138 q 631 305 614 236 q 647 460 647 374 q 631 613 647 544 q 584 728 614 681 q 511 801 554 775 q 417 826 468 826 q 322 801 364 826 q 249 728 279 775 q 203 613 219 681 q 186 460 186 544 q 203 305 186 374 q 249 187 219 236 q 322 111 279 138 q 417 85 364 85 m 642 1224 l 742 1224 l 615 1069 l 543 1069 l 642 1224 m 367 1128 l 467 1128 l 594 981 l 507 981 l 419 1067 l 414 1067 l 326 981 l 239 981 l 367 1128 z "},"Ồ":{"ha":833,"x_min":67,"x_max":767,"o":"m 417 -17 q 275 17 339 -17 q 165 112 211 50 q 92 262 118 174 q 67 460 67 350 q 92 656 67 569 q 165 803 118 743 q 275 896 211 864 q 417 928 339 928 q 558 895 493 928 q 669 802 622 863 q 741 655 715 742 q 767 460 767 568 q 741 262 767 350 q 669 112 715 174 q 558 17 622 50 q 417 -17 493 -17 m 417 85 q 511 111 468 85 q 584 187 554 138 q 631 305 614 236 q 647 460 647 374 q 631 613 647 544 q 584 728 614 681 q 511 801 554 775 q 417 826 468 826 q 322 801 364 826 q 249 728 279 775 q 203 613 219 681 q 186 460 186 544 q 203 305 186 374 q 249 187 219 236 q 322 111 279 138 q 417 85 364 85 m 672 1069 l 600 1069 l 474 1224 l 574 1224 l 672 1069 m 367 1128 l 467 1128 l 594 981 l 507 981 l 419 1067 l 414 1067 l 326 981 l 239 981 l 367 1128 z "},"Ổ":{"ha":833,"x_min":67,"x_max":767,"o":"m 417 -17 q 275 17 339 -17 q 165 112 211 50 q 92 262 118 174 q 67 460 67 350 q 92 656 67 569 q 165 803 118 743 q 275 896 211 864 q 417 928 339 928 q 558 895 493 928 q 669 802 622 863 q 741 655 715 742 q 767 460 767 568 q 741 262 767 350 q 669 112 715 174 q 558 17 622 50 q 417 -17 493 -17 m 417 85 q 511 111 468 85 q 584 187 554 138 q 631 305 614 236 q 647 460 647 374 q 631 613 647 544 q 584 728 614 681 q 511 801 554 775 q 417 826 468 826 q 322 801 364 826 q 249 728 279 775 q 203 613 219 681 q 186 460 186 544 q 203 305 186 374 q 249 187 219 236 q 322 111 279 138 q 417 85 364 85 m 561 1096 q 606 1113 588 1103 q 624 1146 624 1124 q 601 1185 624 1174 q 525 1200 578 1197 l 538 1258 q 662 1231 619 1256 q 704 1157 704 1206 q 665 1080 704 1104 q 576 1047 626 1056 l 561 1096 m 367 1128 l 467 1128 l 594 981 l 507 981 l 419 1067 l 414 1067 l 326 981 l 239 981 l 367 1128 z "},"Ỗ":{"ha":833,"x_min":67,"x_max":767,"o":"m 417 -17 q 275 17 339 -17 q 165 112 211 50 q 92 262 118 174 q 67 460 67 350 q 92 656 67 569 q 165 803 118 743 q 275 896 211 864 q 417 928 339 928 q 558 895 493 928 q 669 802 622 863 q 741 655 715 742 q 767 460 767 568 q 741 262 767 350 q 669 112 715 174 q 558 17 622 50 q 417 -17 493 -17 m 417 85 q 511 111 468 85 q 584 187 554 138 q 631 305 614 236 q 647 460 647 374 q 631 613 647 544 q 584 728 614 681 q 511 801 554 775 q 417 826 468 826 q 322 801 364 826 q 249 728 279 775 q 203 613 219 681 q 186 460 186 544 q 203 305 186 374 q 249 187 219 236 q 322 111 279 138 q 417 85 364 85 m 367 1128 l 467 1128 l 594 981 l 507 981 l 419 1067 l 414 1067 l 326 981 l 239 981 l 367 1128 m 233 1178 q 266 1267 239 1232 q 342 1303 293 1303 q 388 1294 368 1303 q 425 1274 408 1285 q 456 1253 442 1263 q 488 1244 471 1244 q 523 1259 508 1244 q 542 1303 538 1274 l 600 1303 q 567 1213 594 1247 q 492 1178 540 1178 q 445 1187 465 1178 q 408 1207 425 1196 q 377 1227 392 1218 q 346 1236 363 1236 q 310 1222 325 1236 q 292 1178 296 1207 l 233 1178 z "},"Ộ":{"ha":833,"x_min":67,"x_max":767,"o":"m 417 -17 q 275 17 339 -17 q 165 112 211 50 q 92 262 118 174 q 67 460 67 350 q 92 656 67 569 q 165 803 118 743 q 275 896 211 864 q 417 928 339 928 q 558 895 493 928 q 669 802 622 863 q 741 655 715 742 q 767 460 767 568 q 741 262 767 350 q 669 112 715 174 q 558 17 622 50 q 417 -17 493 -17 m 417 85 q 511 111 468 85 q 584 187 554 138 q 631 305 614 236 q 647 460 647 374 q 631 613 647 544 q 584 728 614 681 q 511 801 554 775 q 417 826 468 826 q 322 801 364 826 q 249 728 279 775 q 203 613 219 681 q 186 460 186 544 q 203 305 186 374 q 249 187 219 236 q 322 111 279 138 q 417 85 364 85 m 228 981 l 361 1136 l 472 1136 l 606 981 l 513 981 l 419 1075 l 414 1075 l 321 981 l 228 981 m 417 -314 q 351 -290 378 -314 q 325 -226 325 -267 q 351 -162 325 -186 q 417 -137 378 -137 q 482 -162 456 -137 q 508 -226 508 -186 q 482 -290 508 -267 q 417 -314 456 -314 z "},"Ø":{"ha":833,"x_min":63,"x_max":772,"o":"m 267 161 q 334 105 296 125 q 417 85 372 85 q 511 111 468 85 q 584 187 554 138 q 631 305 614 236 q 647 460 647 374 q 613 672 647 583 l 267 161 m 569 750 q 501 806 540 786 q 417 826 463 826 q 322 801 364 826 q 249 728 279 775 q 203 613 219 681 q 186 460 186 544 q 224 239 186 328 l 569 750 m 685 779 q 746 640 725 719 q 767 460 767 560 q 741 262 767 350 q 669 112 715 174 q 558 17 622 50 q 417 -17 493 -17 q 203 68 292 -17 l 129 -42 l 63 3 l 150 132 q 88 276 110 194 q 67 460 67 358 q 92 656 67 569 q 165 803 118 743 q 275 896 211 864 q 417 928 339 928 q 632 843 544 928 l 707 953 l 772 908 l 685 779 z "},"Œ":{"ha":833,"x_min":46,"x_max":821,"o":"m 46 460 q 144 796 46 679 q 415 913 242 913 l 807 913 l 807 815 l 538 815 l 538 528 l 743 528 l 743 429 l 538 429 l 538 99 l 821 99 l 821 0 l 411 0 q 258 31 325 0 q 143 122 190 63 q 71 266 96 181 q 46 460 46 351 m 165 460 q 224 190 165 285 q 401 94 282 94 l 431 94 l 431 817 l 401 817 q 224 726 282 817 q 165 460 165 635 z "},"Ơ":{"ha":833,"x_min":67,"x_max":781,"o":"m 417 85 q 511 111 468 85 q 584 187 554 138 q 631 305 614 236 q 647 460 647 374 q 631 613 647 544 q 584 728 614 681 q 511 801 554 775 q 417 826 468 826 q 322 801 364 826 q 249 728 279 775 q 203 613 219 681 q 186 460 186 544 q 203 305 186 374 q 249 187 219 236 q 322 111 279 138 q 417 85 364 85 m 749 1074 q 772 1032 764 1054 q 781 983 781 1010 q 741 886 781 921 q 639 836 701 851 q 733 681 700 776 q 767 460 767 586 q 741 262 767 350 q 669 112 715 174 q 558 17 622 50 q 417 -17 493 -17 q 275 17 339 -17 q 165 112 211 50 q 92 262 118 174 q 67 460 67 350 q 92 656 67 569 q 165 803 118 743 q 275 896 211 864 q 417 928 339 928 q 578 885 504 928 q 660 914 632 893 q 688 976 688 935 q 682 1006 688 992 q 667 1033 676 1019 l 749 1074 z "},"Ớ":{"ha":833,"x_min":67,"x_max":781,"o":"m 417 85 q 511 111 468 85 q 584 187 554 138 q 631 305 614 236 q 647 460 647 374 q 631 613 647 544 q 584 728 614 681 q 511 801 554 775 q 417 826 468 826 q 322 801 364 826 q 249 728 279 775 q 203 613 219 681 q 186 460 186 544 q 203 305 186 374 q 249 187 219 236 q 322 111 279 138 q 417 85 364 85 m 749 1074 q 772 1032 764 1054 q 781 983 781 1010 q 741 886 781 921 q 639 836 701 851 q 733 681 700 776 q 767 460 767 586 q 741 262 767 350 q 669 112 715 174 q 558 17 622 50 q 417 -17 493 -17 q 275 17 339 -17 q 165 112 211 50 q 92 262 118 174 q 67 460 67 350 q 92 656 67 569 q 165 803 118 743 q 275 896 211 864 q 417 928 339 928 q 578 885 504 928 q 660 914 632 893 q 688 976 688 935 q 682 1006 688 992 q 667 1033 676 1019 l 749 1074 m 442 981 l 346 981 l 468 1136 l 599 1136 l 442 981 z "},"Ờ":{"ha":833,"x_min":67,"x_max":781,"o":"m 417 85 q 511 111 468 85 q 584 187 554 138 q 631 305 614 236 q 647 460 647 374 q 631 613 647 544 q 584 728 614 681 q 511 801 554 775 q 417 826 468 826 q 322 801 364 826 q 249 728 279 775 q 203 613 219 681 q 186 460 186 544 q 203 305 186 374 q 249 187 219 236 q 322 111 279 138 q 417 85 364 85 m 749 1074 q 772 1032 764 1054 q 781 983 781 1010 q 741 886 781 921 q 639 836 701 851 q 733 681 700 776 q 767 460 767 586 q 741 262 767 350 q 669 112 715 174 q 558 17 622 50 q 417 -17 493 -17 q 275 17 339 -17 q 165 112 211 50 q 92 262 118 174 q 67 460 67 350 q 92 656 67 569 q 165 803 118 743 q 275 896 211 864 q 417 928 339 928 q 578 885 504 928 q 660 914 632 893 q 688 976 688 935 q 682 1006 688 992 q 667 1033 676 1019 l 749 1074 m 235 1136 l 365 1136 l 488 981 l 392 981 l 235 1136 z "},"Ở":{"ha":833,"x_min":67,"x_max":781,"o":"m 417 85 q 511 111 468 85 q 584 187 554 138 q 631 305 614 236 q 647 460 647 374 q 631 613 647 544 q 584 728 614 681 q 511 801 554 775 q 417 826 468 826 q 322 801 364 826 q 249 728 279 775 q 203 613 219 681 q 186 460 186 544 q 203 305 186 374 q 249 187 219 236 q 322 111 279 138 q 417 85 364 85 m 749 1074 q 772 1032 764 1054 q 781 983 781 1010 q 741 886 781 921 q 639 836 701 851 q 733 681 700 776 q 767 460 767 586 q 741 262 767 350 q 669 112 715 174 q 558 17 622 50 q 417 -17 493 -17 q 275 17 339 -17 q 165 112 211 50 q 92 262 118 174 q 67 460 67 350 q 92 656 67 569 q 165 803 118 743 q 275 896 211 864 q 417 928 339 928 q 578 885 504 928 q 660 914 632 893 q 688 976 688 935 q 682 1006 688 992 q 667 1033 676 1019 l 749 1074 m 365 1022 q 421 1046 399 1032 q 443 1086 443 1060 q 328 1144 443 1140 l 340 1211 q 482 1180 432 1208 q 532 1099 532 1151 q 519 1047 532 1068 q 485 1009 507 1025 q 436 984 464 993 q 378 969 408 975 l 365 1022 z "},"Ỡ":{"ha":833,"x_min":67,"x_max":781,"o":"m 417 85 q 511 111 468 85 q 584 187 554 138 q 631 305 614 236 q 647 460 647 374 q 631 613 647 544 q 584 728 614 681 q 511 801 554 775 q 417 826 468 826 q 322 801 364 826 q 249 728 279 775 q 203 613 219 681 q 186 460 186 544 q 203 305 186 374 q 249 187 219 236 q 322 111 279 138 q 417 85 364 85 m 749 1074 q 772 1032 764 1054 q 781 983 781 1010 q 741 886 781 921 q 639 836 701 851 q 733 681 700 776 q 767 460 767 586 q 741 262 767 350 q 669 112 715 174 q 558 17 622 50 q 417 -17 493 -17 q 275 17 339 -17 q 165 112 211 50 q 92 262 118 174 q 67 460 67 350 q 92 656 67 569 q 165 803 118 743 q 275 896 211 864 q 417 928 339 928 q 578 885 504 928 q 660 914 632 893 q 688 976 688 935 q 682 1006 688 992 q 667 1033 676 1019 l 749 1074 m 500 988 q 450 999 472 988 q 409 1024 428 1010 q 372 1049 390 1038 q 335 1060 354 1060 q 300 1042 315 1060 q 279 988 285 1024 l 215 988 q 253 1095 222 1053 q 333 1138 283 1138 q 383 1126 361 1138 q 424 1101 406 1115 q 461 1076 443 1088 q 499 1065 479 1065 q 533 1084 518 1065 q 554 1138 549 1103 l 618 1138 q 581 1031 611 1074 q 500 988 550 988 z "},"Ợ":{"ha":833,"x_min":67,"x_max":781,"o":"m 417 85 q 511 111 468 85 q 584 187 554 138 q 631 305 614 236 q 647 460 647 374 q 631 613 647 544 q 584 728 614 681 q 511 801 554 775 q 417 826 468 826 q 322 801 364 826 q 249 728 279 775 q 203 613 219 681 q 186 460 186 544 q 203 305 186 374 q 249 187 219 236 q 322 111 279 138 q 417 85 364 85 m 749 1074 q 772 1032 764 1054 q 781 983 781 1010 q 741 886 781 921 q 639 836 701 851 q 733 681 700 776 q 767 460 767 586 q 741 262 767 350 q 669 112 715 174 q 558 17 622 50 q 417 -17 493 -17 q 275 17 339 -17 q 165 112 211 50 q 92 262 118 174 q 67 460 67 350 q 92 656 67 569 q 165 803 118 743 q 275 896 211 864 q 417 928 339 928 q 578 885 504 928 q 660 914 632 893 q 688 976 688 935 q 682 1006 688 992 q 667 1033 676 1019 l 749 1074 m 417 -314 q 351 -290 378 -314 q 325 -226 325 -267 q 351 -162 325 -186 q 417 -137 378 -137 q 482 -162 456 -137 q 508 -226 508 -186 q 482 -290 508 -267 q 417 -314 456 -314 z "},"Ǫ":{"ha":833,"x_min":67,"x_max":767,"o":"m 569 -256 q 517 -283 549 -271 q 458 -294 486 -294 q 364 -264 403 -294 q 325 -174 325 -233 q 350 -87 325 -128 q 411 -15 375 -46 q 256 28 321 -12 q 149 134 192 68 q 87 285 107 200 q 67 460 67 369 q 92 656 67 569 q 165 803 118 743 q 275 896 211 864 q 417 928 339 928 q 558 895 493 928 q 669 802 622 863 q 741 655 715 742 q 767 460 767 568 q 700 161 767 275 q 524 0 633 47 q 475 -30 496 -12 q 441 -67 454 -47 q 422 -109 428 -87 q 415 -149 415 -131 q 436 -197 415 -181 q 481 -212 457 -212 q 538 -193 511 -212 l 569 -256 m 417 85 q 511 111 468 85 q 584 187 554 138 q 631 305 614 236 q 647 460 647 374 q 631 613 647 544 q 584 728 614 681 q 511 801 554 775 q 417 826 468 826 q 322 801 364 826 q 249 728 279 775 q 203 613 219 681 q 186 460 186 544 q 203 305 186 374 q 249 187 219 236 q 322 111 279 138 q 417 85 364 85 z "},"Ŕ":{"ha":833,"x_min":139,"x_max":768,"o":"m 254 479 l 406 479 q 569 523 513 479 q 625 656 625 567 q 569 782 625 746 q 406 818 513 818 l 254 818 l 254 479 m 636 0 l 417 385 l 254 385 l 254 0 l 139 0 l 139 911 l 422 911 q 550 898 492 911 q 651 854 608 885 q 717 775 693 824 q 740 656 740 726 q 685 485 740 549 q 536 397 629 421 l 768 0 l 636 0 m 449 981 l 353 981 l 475 1136 l 606 1136 l 449 981 z "},"Ř":{"ha":833,"x_min":139,"x_max":768,"o":"m 254 479 l 406 479 q 569 523 513 479 q 625 656 625 567 q 569 782 625 746 q 406 818 513 818 l 254 818 l 254 479 m 636 0 l 417 385 l 254 385 l 254 0 l 139 0 l 139 911 l 422 911 q 550 898 492 911 q 651 854 608 885 q 717 775 693 824 q 740 656 740 726 q 685 485 740 549 q 536 397 629 421 l 768 0 l 636 0 m 613 1136 l 479 981 l 368 981 l 235 1136 l 328 1136 l 421 1042 l 426 1042 l 519 1136 l 613 1136 z "},"Ŗ":{"ha":833,"x_min":139,"x_max":768,"o":"m 254 479 l 406 479 q 569 523 513 479 q 625 656 625 567 q 569 782 625 746 q 406 818 513 818 l 254 818 l 254 479 m 636 0 l 417 385 l 254 385 l 254 0 l 139 0 l 139 911 l 422 911 q 550 898 492 911 q 651 854 608 885 q 717 775 693 824 q 740 656 740 726 q 685 485 740 549 q 536 397 629 421 l 768 0 l 636 0 m 404 -67 q 507 -102 475 -78 q 539 -174 539 -126 q 522 -226 539 -204 q 478 -264 506 -249 q 413 -288 450 -279 q 338 -300 376 -297 l 326 -244 q 416 -223 382 -237 q 450 -181 450 -208 q 429 -140 450 -153 q 379 -119 408 -126 l 404 -67 l 404 -67 z "},"Ṛ":{"ha":833,"x_min":139,"x_max":768,"o":"m 254 479 l 406 479 q 569 523 513 479 q 625 656 625 567 q 569 782 625 746 q 406 818 513 818 l 254 818 l 254 479 m 636 0 l 417 385 l 254 385 l 254 0 l 139 0 l 139 911 l 422 911 q 550 898 492 911 q 651 854 608 885 q 717 775 693 824 q 740 656 740 726 q 685 485 740 549 q 536 397 629 421 l 768 0 l 636 0 m 444 -314 q 379 -290 406 -314 q 353 -226 353 -267 q 379 -162 353 -186 q 444 -137 406 -137 q 510 -162 483 -137 q 536 -226 536 -186 q 510 -290 536 -267 q 444 -314 483 -314 z "},"Ṝ":{"ha":833,"x_min":139,"x_max":768,"o":"m 254 479 l 406 479 q 569 523 513 479 q 625 656 625 567 q 569 782 625 746 q 406 818 513 818 l 254 818 l 254 479 m 636 0 l 417 385 l 254 385 l 254 0 l 139 0 l 139 911 l 422 911 q 550 898 492 911 q 651 854 608 885 q 717 775 693 824 q 740 656 740 726 q 685 485 740 549 q 536 397 629 421 l 768 0 l 636 0 m 251 1092 l 596 1092 l 596 1013 l 251 1013 l 251 1092 m 444 -314 q 379 -290 406 -314 q 353 -226 353 -267 q 379 -162 353 -186 q 444 -137 406 -137 q 510 -162 483 -137 q 536 -226 536 -186 q 510 -290 536 -267 q 444 -314 483 -314 z "},"Ṟ":{"ha":833,"x_min":139,"x_max":768,"o":"m 254 479 l 406 479 q 569 523 513 479 q 625 656 625 567 q 569 782 625 746 q 406 818 513 818 l 254 818 l 254 479 m 636 0 l 417 385 l 254 385 l 254 0 l 139 0 l 139 911 l 422 911 q 550 898 492 911 q 651 854 608 885 q 717 775 693 824 q 740 656 740 726 q 685 485 740 549 q 536 397 629 421 l 768 0 l 636 0 m 615 -237 l 272 -237 l 272 -157 l 615 -157 l 615 -237 z "},"Ś":{"ha":833,"x_min":93,"x_max":746,"o":"m 163 199 q 282 116 214 147 q 425 85 350 85 q 575 126 522 85 q 628 233 628 167 q 615 292 628 268 q 581 334 603 317 q 528 365 558 351 q 464 394 499 379 l 333 451 q 264 485 299 465 q 201 532 229 504 q 154 598 172 560 q 136 686 136 636 q 158 782 136 738 q 220 859 181 826 q 315 910 260 892 q 435 928 369 928 q 593 897 521 928 q 715 815 665 865 l 654 740 q 556 803 610 781 q 435 826 503 826 q 303 791 351 826 q 254 693 254 756 q 269 637 254 660 q 306 597 283 614 q 358 567 329 579 q 417 542 388 554 l 544 486 q 623 448 586 469 q 687 398 660 426 q 730 331 714 369 q 746 243 746 293 q 724 142 746 189 q 660 59 701 94 q 558 3 618 24 q 424 -17 499 -17 q 240 19 324 -17 q 93 118 156 56 l 163 199 m 457 981 l 361 981 l 483 1136 l 614 1136 l 457 981 z "},"Ŝ":{"ha":833,"x_min":93,"x_max":746,"o":"m 163 199 q 282 116 214 147 q 425 85 350 85 q 575 126 522 85 q 628 233 628 167 q 615 292 628 268 q 581 334 603 317 q 528 365 558 351 q 464 394 499 379 l 333 451 q 264 485 299 465 q 201 532 229 504 q 154 598 172 560 q 136 686 136 636 q 158 782 136 738 q 220 859 181 826 q 315 910 260 892 q 435 928 369 928 q 593 897 521 928 q 715 815 665 865 l 654 740 q 556 803 610 781 q 435 826 503 826 q 303 791 351 826 q 254 693 254 756 q 269 637 254 660 q 306 597 283 614 q 358 567 329 579 q 417 542 388 554 l 544 486 q 623 448 586 469 q 687 398 660 426 q 730 331 714 369 q 746 243 746 293 q 724 142 746 189 q 660 59 701 94 q 558 3 618 24 q 424 -17 499 -17 q 240 19 324 -17 q 93 118 156 56 l 163 199 m 243 981 l 376 1136 l 488 1136 l 621 981 l 528 981 l 435 1075 l 429 1075 l 336 981 l 243 981 z "},"Š":{"ha":833,"x_min":93,"x_max":746,"o":"m 163 199 q 282 116 214 147 q 425 85 350 85 q 575 126 522 85 q 628 233 628 167 q 615 292 628 268 q 581 334 603 317 q 528 365 558 351 q 464 394 499 379 l 333 451 q 264 485 299 465 q 201 532 229 504 q 154 598 172 560 q 136 686 136 636 q 158 782 136 738 q 220 859 181 826 q 315 910 260 892 q 435 928 369 928 q 593 897 521 928 q 715 815 665 865 l 654 740 q 556 803 610 781 q 435 826 503 826 q 303 791 351 826 q 254 693 254 756 q 269 637 254 660 q 306 597 283 614 q 358 567 329 579 q 417 542 388 554 l 544 486 q 623 448 586 469 q 687 398 660 426 q 730 331 714 369 q 746 243 746 293 q 724 142 746 189 q 660 59 701 94 q 558 3 618 24 q 424 -17 499 -17 q 240 19 324 -17 q 93 118 156 56 l 163 199 m 621 1136 l 488 981 l 376 981 l 243 1136 l 336 1136 l 429 1042 l 435 1042 l 528 1136 l 621 1136 z "},"Ş":{"ha":833,"x_min":93,"x_max":746,"o":"m 163 199 q 282 116 214 147 q 425 85 350 85 q 575 126 522 85 q 628 233 628 167 q 615 292 628 268 q 581 334 603 317 q 528 365 558 351 q 464 394 499 379 l 333 451 q 264 485 299 465 q 201 532 229 504 q 154 598 172 560 q 136 686 136 636 q 158 782 136 738 q 220 859 181 826 q 315 910 260 892 q 435 928 369 928 q 593 897 521 928 q 715 815 665 865 l 654 740 q 556 803 610 781 q 435 826 503 826 q 303 791 351 826 q 254 693 254 756 q 269 637 254 660 q 306 597 283 614 q 358 567 329 579 q 417 542 388 554 l 544 486 q 623 448 586 469 q 687 398 660 426 q 730 331 714 369 q 746 243 746 293 q 724 142 746 189 q 660 59 701 94 q 558 3 618 24 q 424 -17 499 -17 q 240 19 324 -17 q 93 118 156 56 l 163 199 m 400 4 l 475 4 l 440 -69 q 498 -103 474 -81 q 522 -168 522 -125 q 506 -221 522 -199 q 461 -258 489 -243 q 397 -283 433 -274 q 321 -296 360 -292 l 310 -239 q 399 -216 365 -232 q 433 -172 433 -200 q 410 -130 433 -144 q 344 -104 388 -115 l 400 4 z "},"Ș":{"ha":833,"x_min":93,"x_max":746,"o":"m 163 199 q 282 116 214 147 q 425 85 350 85 q 575 126 522 85 q 628 233 628 167 q 615 292 628 268 q 581 334 603 317 q 528 365 558 351 q 464 394 499 379 l 333 451 q 264 485 299 465 q 201 532 229 504 q 154 598 172 560 q 136 686 136 636 q 158 782 136 738 q 220 859 181 826 q 315 910 260 892 q 435 928 369 928 q 593 897 521 928 q 715 815 665 865 l 654 740 q 556 803 610 781 q 435 826 503 826 q 303 791 351 826 q 254 693 254 756 q 269 637 254 660 q 306 597 283 614 q 358 567 329 579 q 417 542 388 554 l 544 486 q 623 448 586 469 q 687 398 660 426 q 730 331 714 369 q 746 243 746 293 q 724 142 746 189 q 660 59 701 94 q 558 3 618 24 q 424 -17 499 -17 q 240 19 324 -17 q 93 118 156 56 l 163 199 m 390 -67 q 493 -102 461 -78 q 525 -174 525 -126 q 508 -226 525 -204 q 464 -264 492 -249 q 399 -288 436 -279 q 324 -300 363 -297 l 313 -244 q 402 -223 368 -237 q 436 -181 436 -208 q 415 -140 436 -153 q 365 -119 394 -126 l 390 -67 l 390 -67 z "},"Ṡ":{"ha":833,"x_min":93,"x_max":746,"o":"m 163 199 q 282 116 214 147 q 425 85 350 85 q 575 126 522 85 q 628 233 628 167 q 615 292 628 268 q 581 334 603 317 q 528 365 558 351 q 464 394 499 379 l 333 451 q 264 485 299 465 q 201 532 229 504 q 154 598 172 560 q 136 686 136 636 q 158 782 136 738 q 220 859 181 826 q 315 910 260 892 q 435 928 369 928 q 593 897 521 928 q 715 815 665 865 l 654 740 q 556 803 610 781 q 435 826 503 826 q 303 791 351 826 q 254 693 254 756 q 269 637 254 660 q 306 597 283 614 q 358 567 329 579 q 417 542 388 554 l 544 486 q 623 448 586 469 q 687 398 660 426 q 730 331 714 369 q 746 243 746 293 q 724 142 746 189 q 660 59 701 94 q 558 3 618 24 q 424 -17 499 -17 q 240 19 324 -17 q 93 118 156 56 l 163 199 m 432 992 q 376 1013 399 992 q 353 1067 353 1033 q 376 1119 353 1099 q 432 1140 399 1140 q 488 1119 465 1140 q 511 1067 511 1099 q 488 1013 511 1033 q 432 992 465 992 z "},"Ṣ":{"ha":833,"x_min":93,"x_max":746,"o":"m 163 199 q 282 116 214 147 q 425 85 350 85 q 575 126 522 85 q 628 233 628 167 q 615 292 628 268 q 581 334 603 317 q 528 365 558 351 q 464 394 499 379 l 333 451 q 264 485 299 465 q 201 532 229 504 q 154 598 172 560 q 136 686 136 636 q 158 782 136 738 q 220 859 181 826 q 315 910 260 892 q 435 928 369 928 q 593 897 521 928 q 715 815 665 865 l 654 740 q 556 803 610 781 q 435 826 503 826 q 303 791 351 826 q 254 693 254 756 q 269 637 254 660 q 306 597 283 614 q 358 567 329 579 q 417 542 388 554 l 544 486 q 623 448 586 469 q 687 398 660 426 q 730 331 714 369 q 746 243 746 293 q 724 142 746 189 q 660 59 701 94 q 558 3 618 24 q 424 -17 499 -17 q 240 19 324 -17 q 93 118 156 56 l 163 199 m 431 -314 q 365 -290 392 -314 q 339 -226 339 -267 q 365 -162 339 -186 q 431 -137 392 -137 q 496 -162 469 -137 q 522 -226 522 -186 q 496 -290 522 -267 q 431 -314 469 -314 z "},"ẞ":{"ha":833,"x_min":110,"x_max":782,"o":"m 110 600 q 129 730 110 669 q 188 834 149 790 q 289 903 228 878 q 432 928 350 928 q 608 869 540 928 q 708 714 676 811 l 546 503 q 725 406 668 474 q 782 238 782 338 q 765 137 782 183 q 717 56 749 90 q 642 3 686 22 q 543 -17 599 -17 q 413 11 471 -17 q 318 85 356 39 l 385 158 q 455 99 419 118 q 532 81 490 81 q 626 124 593 81 q 660 238 660 168 q 649 299 660 269 q 613 353 639 328 q 542 397 586 378 q 431 431 499 417 l 424 506 l 588 718 q 528 799 568 765 q 428 832 489 832 q 281 770 333 832 q 228 578 228 708 l 228 0 l 110 0 l 110 600 z "},"Ť":{"ha":833,"x_min":58,"x_max":775,"o":"m 358 814 l 58 814 l 58 911 l 775 911 l 775 814 l 475 814 l 475 0 l 358 0 l 358 814 m 606 1136 l 472 981 l 361 981 l 228 1136 l 321 1136 l 414 1042 l 419 1042 l 513 1136 l 606 1136 z "},"Ţ":{"ha":833,"x_min":58,"x_max":775,"o":"m 358 814 l 58 814 l 58 911 l 775 911 l 775 814 l 475 814 l 475 0 l 358 0 l 358 814 m 382 4 l 457 4 l 422 -69 q 480 -103 456 -81 q 504 -168 504 -125 q 488 -221 504 -199 q 443 -258 471 -243 q 378 -283 415 -274 q 303 -296 342 -292 l 292 -239 q 381 -216 347 -232 q 415 -172 415 -200 q 392 -130 415 -144 q 326 -104 369 -115 l 382 4 z "},"Ț":{"ha":833,"x_min":58,"x_max":775,"o":"m 358 814 l 58 814 l 58 911 l 775 911 l 775 814 l 475 814 l 475 0 l 358 0 l 358 814 m 378 -67 q 481 -102 449 -78 q 513 -174 513 -126 q 496 -226 513 -204 q 451 -264 479 -249 q 387 -288 424 -279 q 311 -300 350 -297 l 300 -244 q 390 -223 356 -237 q 424 -181 424 -208 q 403 -140 424 -153 q 353 -119 382 -126 l 378 -67 l 378 -67 z "},"Ṭ":{"ha":833,"x_min":58,"x_max":775,"o":"m 358 814 l 58 814 l 58 911 l 775 911 l 775 814 l 475 814 l 475 0 l 358 0 l 358 814 m 418 -314 q 353 -290 379 -314 q 326 -226 326 -267 q 353 -162 326 -186 q 418 -137 379 -137 q 483 -162 457 -137 q 510 -226 510 -186 q 483 -290 510 -267 q 418 -314 457 -314 z "},"Ṯ":{"ha":833,"x_min":58,"x_max":775,"o":"m 358 814 l 58 814 l 58 911 l 775 911 l 775 814 l 475 814 l 475 0 l 358 0 l 358 814 m 589 -237 l 246 -237 l 246 -157 l 589 -157 l 589 -237 z "},"Ù":{"ha":833,"x_min":110,"x_max":724,"o":"m 110 911 l 226 911 l 226 342 q 241 222 226 271 q 281 142 256 172 q 342 99 307 113 q 418 85 376 85 q 494 99 460 85 q 556 142 529 113 q 597 222 582 172 q 611 342 611 271 l 611 911 l 724 911 l 724 344 q 701 178 724 246 q 638 66 678 110 q 541 3 597 22 q 418 -17 485 -17 q 294 3 351 -17 q 197 66 238 22 q 133 178 156 110 q 110 344 110 246 l 110 911 m 235 1136 l 365 1136 l 488 981 l 392 981 l 235 1136 z "},"Ú":{"ha":833,"x_min":110,"x_max":724,"o":"m 110 911 l 226 911 l 226 342 q 241 222 226 271 q 281 142 256 172 q 342 99 307 113 q 418 85 376 85 q 494 99 460 85 q 556 142 529 113 q 597 222 582 172 q 611 342 611 271 l 611 911 l 724 911 l 724 344 q 701 178 724 246 q 638 66 678 110 q 541 3 597 22 q 418 -17 485 -17 q 294 3 351 -17 q 197 66 238 22 q 133 178 156 110 q 110 344 110 246 l 110 911 m 442 981 l 346 981 l 468 1136 l 599 1136 l 442 981 z "},"Û":{"ha":833,"x_min":110,"x_max":724,"o":"m 110 911 l 226 911 l 226 342 q 241 222 226 271 q 281 142 256 172 q 342 99 307 113 q 418 85 376 85 q 494 99 460 85 q 556 142 529 113 q 597 222 582 172 q 611 342 611 271 l 611 911 l 724 911 l 724 344 q 701 178 724 246 q 638 66 678 110 q 541 3 597 22 q 418 -17 485 -17 q 294 3 351 -17 q 197 66 238 22 q 133 178 156 110 q 110 344 110 246 l 110 911 m 228 981 l 361 1136 l 472 1136 l 606 981 l 513 981 l 419 1075 l 414 1075 l 321 981 l 228 981 z "},"Ũ":{"ha":833,"x_min":110,"x_max":724,"o":"m 110 911 l 226 911 l 226 342 q 241 222 226 271 q 281 142 256 172 q 342 99 307 113 q 418 85 376 85 q 494 99 460 85 q 556 142 529 113 q 597 222 582 172 q 611 342 611 271 l 611 911 l 724 911 l 724 344 q 701 178 724 246 q 638 66 678 110 q 541 3 597 22 q 418 -17 485 -17 q 294 3 351 -17 q 197 66 238 22 q 133 178 156 110 q 110 344 110 246 l 110 911 m 500 988 q 450 999 472 988 q 409 1024 428 1010 q 372 1049 390 1038 q 335 1060 354 1060 q 300 1042 315 1060 q 279 988 285 1024 l 215 988 q 253 1095 222 1053 q 333 1138 283 1138 q 383 1126 361 1138 q 424 1101 406 1115 q 461 1076 443 1088 q 499 1065 479 1065 q 533 1084 518 1065 q 554 1138 549 1103 l 618 1138 q 581 1031 611 1074 q 500 988 550 988 z "},"Ü":{"ha":833,"x_min":110,"x_max":724,"o":"m 110 911 l 226 911 l 226 342 q 241 222 226 271 q 281 142 256 172 q 342 99 307 113 q 418 85 376 85 q 494 99 460 85 q 556 142 529 113 q 597 222 582 172 q 611 342 611 271 l 611 911 l 724 911 l 724 344 q 701 178 724 246 q 638 66 678 110 q 541 3 597 22 q 418 -17 485 -17 q 294 3 351 -17 q 197 66 238 22 q 133 178 156 110 q 110 344 110 246 l 110 911 m 297 993 q 248 1013 267 993 q 229 1061 229 1032 q 248 1110 229 1092 q 297 1129 267 1129 q 346 1110 326 1129 q 365 1061 365 1092 q 346 1013 365 1032 q 297 993 326 993 m 536 993 q 488 1013 507 993 q 468 1061 468 1032 q 488 1110 468 1092 q 536 1129 507 1129 q 585 1110 567 1129 q 604 1061 604 1092 q 585 1013 604 1032 q 536 993 567 993 z "},"Ū":{"ha":833,"x_min":110,"x_max":724,"o":"m 110 911 l 226 911 l 226 342 q 241 222 226 271 q 281 142 256 172 q 342 99 307 113 q 418 85 376 85 q 494 99 460 85 q 556 142 529 113 q 597 222 582 172 q 611 342 611 271 l 611 911 l 724 911 l 724 344 q 701 178 724 246 q 638 66 678 110 q 541 3 597 22 q 418 -17 485 -17 q 294 3 351 -17 q 197 66 238 22 q 133 178 156 110 q 110 344 110 246 l 110 911 m 244 1092 l 589 1092 l 589 1013 l 244 1013 l 244 1092 z "},"Ŭ":{"ha":833,"x_min":110,"x_max":724,"o":"m 110 911 l 226 911 l 226 342 q 241 222 226 271 q 281 142 256 172 q 342 99 307 113 q 418 85 376 85 q 494 99 460 85 q 556 142 529 113 q 597 222 582 172 q 611 342 611 271 l 611 911 l 724 911 l 724 344 q 701 178 724 246 q 638 66 678 110 q 541 3 597 22 q 418 -17 485 -17 q 294 3 351 -17 q 197 66 238 22 q 133 178 156 110 q 110 344 110 246 l 110 911 m 417 983 q 344 997 375 983 q 293 1031 314 1010 q 261 1079 272 1051 q 246 1136 250 1107 l 315 1136 q 346 1076 322 1103 q 417 1049 369 1049 q 488 1076 464 1049 q 518 1136 511 1103 l 588 1136 q 572 1079 583 1107 q 540 1031 561 1051 q 489 997 519 1010 q 417 983 458 983 z "},"Ů":{"ha":833,"x_min":110,"x_max":724,"o":"m 110 911 l 226 911 l 226 342 q 241 222 226 271 q 281 142 256 172 q 342 99 307 113 q 418 85 376 85 q 494 99 460 85 q 556 142 529 113 q 597 222 582 172 q 611 342 611 271 l 611 911 l 724 911 l 724 344 q 701 178 724 246 q 638 66 678 110 q 541 3 597 22 q 418 -17 485 -17 q 294 3 351 -17 q 197 66 238 22 q 133 178 156 110 q 110 344 110 246 l 110 911 m 417 971 q 324 1003 360 971 q 288 1093 288 1036 q 324 1182 288 1149 q 417 1215 360 1215 q 509 1182 472 1215 q 546 1093 546 1149 q 509 1003 546 1036 q 417 971 472 971 m 417 1021 q 463 1040 443 1021 q 482 1093 482 1058 q 463 1144 482 1125 q 417 1164 443 1164 q 369 1144 389 1164 q 350 1093 350 1125 q 369 1040 350 1058 q 417 1021 389 1021 z "},"Ű":{"ha":833,"x_min":110,"x_max":724,"o":"m 110 911 l 226 911 l 226 342 q 241 222 226 271 q 281 142 256 172 q 342 99 307 113 q 418 85 376 85 q 494 99 460 85 q 556 142 529 113 q 597 222 582 172 q 611 342 611 271 l 611 911 l 724 911 l 724 344 q 701 178 724 246 q 638 66 678 110 q 541 3 597 22 q 418 -17 485 -17 q 294 3 351 -17 q 197 66 238 22 q 133 178 156 110 q 110 344 110 246 l 110 911 m 265 981 l 357 1136 l 464 1136 l 349 981 l 265 981 m 576 1136 l 683 1136 l 567 981 l 485 981 l 576 1136 z "},"Ǔ":{"ha":833,"x_min":110,"x_max":724,"o":"m 110 911 l 226 911 l 226 342 q 241 222 226 271 q 281 142 256 172 q 342 99 307 113 q 418 85 376 85 q 494 99 460 85 q 556 142 529 113 q 597 222 582 172 q 611 342 611 271 l 611 911 l 724 911 l 724 344 q 701 178 724 246 q 638 66 678 110 q 541 3 597 22 q 418 -17 485 -17 q 294 3 351 -17 q 197 66 238 22 q 133 178 156 110 q 110 344 110 246 l 110 911 m 606 1136 l 472 981 l 361 981 l 228 1136 l 321 1136 l 414 1042 l 419 1042 l 513 1136 l 606 1136 z "},"Ǖ":{"ha":833,"x_min":110,"x_max":724,"o":"m 110 911 l 226 911 l 226 342 q 241 222 226 271 q 281 142 256 172 q 342 99 307 113 q 418 85 376 85 q 494 99 460 85 q 556 142 529 113 q 597 222 582 172 q 611 342 611 271 l 611 911 l 724 911 l 724 344 q 701 178 724 246 q 638 66 678 110 q 541 3 597 22 q 418 -17 485 -17 q 294 3 351 -17 q 197 66 238 22 q 133 178 156 110 q 110 344 110 246 l 110 911 m 244 1260 l 589 1260 l 589 1196 l 244 1196 l 244 1260 m 297 993 q 251 1011 269 993 q 233 1057 233 1029 q 251 1102 233 1085 q 297 1119 269 1119 q 342 1102 325 1119 q 360 1057 360 1085 q 342 1011 360 1029 q 297 993 325 993 m 536 993 q 491 1011 508 993 q 474 1057 474 1029 q 491 1102 474 1085 q 536 1119 508 1119 q 582 1102 564 1119 q 600 1057 600 1085 q 582 1011 600 1029 q 536 993 564 993 z "},"Ǘ":{"ha":833,"x_min":110,"x_max":724,"o":"m 110 911 l 226 911 l 226 342 q 241 222 226 271 q 281 142 256 172 q 342 99 307 113 q 418 85 376 85 q 494 99 460 85 q 556 142 529 113 q 597 222 582 172 q 611 342 611 271 l 611 911 l 724 911 l 724 344 q 701 178 724 246 q 638 66 678 110 q 541 3 597 22 q 418 -17 485 -17 q 294 3 351 -17 q 197 66 238 22 q 133 178 156 110 q 110 344 110 246 l 110 911 m 469 1319 l 596 1319 l 440 1165 l 346 1165 l 469 1319 m 297 993 q 251 1011 269 993 q 233 1057 233 1029 q 251 1102 233 1085 q 297 1119 269 1119 q 342 1102 325 1119 q 360 1057 360 1085 q 342 1011 360 1029 q 297 993 325 993 m 536 993 q 491 1011 508 993 q 474 1057 474 1029 q 491 1102 474 1085 q 536 1119 508 1119 q 582 1102 564 1119 q 600 1057 600 1085 q 582 1011 600 1029 q 536 993 564 993 z "},"Ǚ":{"ha":833,"x_min":110,"x_max":724,"o":"m 110 911 l 226 911 l 226 342 q 241 222 226 271 q 281 142 256 172 q 342 99 307 113 q 418 85 376 85 q 494 99 460 85 q 556 142 529 113 q 597 222 582 172 q 611 342 611 271 l 611 911 l 724 911 l 724 344 q 701 178 724 246 q 638 66 678 110 q 541 3 597 22 q 418 -17 485 -17 q 294 3 351 -17 q 197 66 238 22 q 133 178 156 110 q 110 344 110 246 l 110 911 m 297 993 q 251 1011 269 993 q 233 1057 233 1029 q 251 1102 233 1085 q 297 1119 269 1119 q 342 1102 325 1119 q 360 1057 360 1085 q 342 1011 360 1029 q 297 993 325 993 m 536 993 q 491 1011 508 993 q 474 1057 474 1029 q 491 1102 474 1085 q 536 1119 508 1119 q 582 1102 564 1119 q 600 1057 600 1085 q 582 1011 600 1029 q 536 993 564 993 m 606 1319 l 472 1165 l 361 1165 l 228 1319 l 321 1319 l 414 1225 l 419 1225 l 513 1319 l 606 1319 z "},"Ǜ":{"ha":833,"x_min":110,"x_max":724,"o":"m 110 911 l 226 911 l 226 342 q 241 222 226 271 q 281 142 256 172 q 342 99 307 113 q 418 85 376 85 q 494 99 460 85 q 556 142 529 113 q 597 222 582 172 q 611 342 611 271 l 611 911 l 724 911 l 724 344 q 701 178 724 246 q 638 66 678 110 q 541 3 597 22 q 418 -17 485 -17 q 294 3 351 -17 q 197 66 238 22 q 133 178 156 110 q 110 344 110 246 l 110 911 m 488 1165 l 393 1165 l 238 1319 l 364 1319 l 488 1165 m 536 993 q 491 1011 508 993 q 474 1057 474 1029 q 491 1102 474 1085 q 536 1119 508 1119 q 582 1102 564 1119 q 600 1057 600 1085 q 582 1011 600 1029 q 536 993 564 993 m 297 993 q 251 1011 269 993 q 233 1057 233 1029 q 251 1102 233 1085 q 297 1119 269 1119 q 342 1102 325 1119 q 360 1057 360 1085 q 342 1011 360 1029 q 297 993 325 993 z "},"Ụ":{"ha":833,"x_min":110,"x_max":724,"o":"m 110 911 l 226 911 l 226 342 q 241 222 226 271 q 281 142 256 172 q 342 99 307 113 q 418 85 376 85 q 494 99 460 85 q 556 142 529 113 q 597 222 582 172 q 611 342 611 271 l 611 911 l 724 911 l 724 344 q 701 178 724 246 q 638 66 678 110 q 541 3 597 22 q 418 -17 485 -17 q 294 3 351 -17 q 197 66 238 22 q 133 178 156 110 q 110 344 110 246 l 110 911 m 417 -314 q 351 -290 378 -314 q 325 -226 325 -267 q 351 -162 325 -186 q 417 -137 378 -137 q 482 -162 456 -137 q 508 -226 508 -186 q 482 -290 508 -267 q 417 -314 456 -314 z "},"Ủ":{"ha":833,"x_min":110,"x_max":724,"o":"m 110 911 l 226 911 l 226 342 q 241 222 226 271 q 281 142 256 172 q 342 99 307 113 q 418 85 376 85 q 494 99 460 85 q 556 142 529 113 q 597 222 582 172 q 611 342 611 271 l 611 911 l 724 911 l 724 344 q 701 178 724 246 q 638 66 678 110 q 541 3 597 22 q 418 -17 485 -17 q 294 3 351 -17 q 197 66 238 22 q 133 178 156 110 q 110 344 110 246 l 110 911 m 365 1022 q 421 1046 399 1032 q 443 1086 443 1060 q 328 1144 443 1140 l 340 1211 q 482 1180 432 1208 q 532 1099 532 1151 q 519 1047 532 1068 q 485 1009 507 1025 q 436 984 464 993 q 378 969 408 975 l 365 1022 z "},"Ų":{"ha":833,"x_min":110,"x_max":724,"o":"m 110 911 l 226 911 l 226 342 q 241 222 226 271 q 281 142 256 172 q 340 99 306 113 q 417 85 375 85 q 494 99 458 85 q 555 142 529 113 q 596 222 581 172 q 611 342 611 271 l 611 911 l 724 911 l 724 344 q 676 122 724 203 q 551 7 628 42 q 444 -69 478 -26 q 411 -149 411 -111 q 431 -197 411 -181 q 476 -212 451 -212 q 506 -208 493 -212 q 533 -193 519 -203 l 564 -256 q 513 -283 544 -271 q 454 -294 482 -294 q 360 -264 399 -294 q 321 -174 321 -233 q 330 -122 321 -144 q 353 -79 339 -99 q 383 -44 367 -60 q 411 -15 399 -28 q 184 79 258 -12 q 110 344 110 171 l 110 911 z "},"Ư":{"ha":833,"x_min":110,"x_max":875,"o":"m 843 1101 q 867 1060 858 1082 q 875 1011 875 1038 q 863 951 875 976 q 829 908 850 926 q 781 879 808 890 q 724 861 754 868 l 724 344 q 701 178 724 246 q 638 66 678 110 q 541 3 597 22 q 418 -17 485 -17 q 294 3 351 -17 q 197 66 238 22 q 133 178 156 110 q 110 344 110 246 l 110 911 l 226 911 l 226 342 q 241 222 226 271 q 281 142 256 172 q 342 99 307 113 q 418 85 376 85 q 494 99 460 85 q 556 142 529 113 q 597 222 582 172 q 611 342 611 271 l 611 911 l 660 911 q 749 937 715 918 q 782 1004 782 956 q 776 1033 782 1019 q 761 1061 771 1047 l 843 1101 z "},"Ứ":{"ha":833,"x_min":110,"x_max":875,"o":"m 843 1101 q 867 1060 858 1082 q 875 1011 875 1038 q 863 951 875 976 q 829 908 850 926 q 781 879 808 890 q 724 861 754 868 l 724 344 q 701 178 724 246 q 638 66 678 110 q 541 3 597 22 q 418 -17 485 -17 q 294 3 351 -17 q 197 66 238 22 q 133 178 156 110 q 110 344 110 246 l 110 911 l 226 911 l 226 342 q 241 222 226 271 q 281 142 256 172 q 342 99 307 113 q 418 85 376 85 q 494 99 460 85 q 556 142 529 113 q 597 222 582 172 q 611 342 611 271 l 611 911 l 660 911 q 749 937 715 918 q 782 1004 782 956 q 776 1033 782 1019 q 761 1061 771 1047 l 843 1101 m 442 981 l 346 981 l 468 1136 l 599 1136 l 442 981 z "},"Ừ":{"ha":833,"x_min":110,"x_max":875,"o":"m 843 1101 q 867 1060 858 1082 q 875 1011 875 1038 q 863 951 875 976 q 829 908 850 926 q 781 879 808 890 q 724 861 754 868 l 724 344 q 701 178 724 246 q 638 66 678 110 q 541 3 597 22 q 418 -17 485 -17 q 294 3 351 -17 q 197 66 238 22 q 133 178 156 110 q 110 344 110 246 l 110 911 l 226 911 l 226 342 q 241 222 226 271 q 281 142 256 172 q 342 99 307 113 q 418 85 376 85 q 494 99 460 85 q 556 142 529 113 q 597 222 582 172 q 611 342 611 271 l 611 911 l 660 911 q 749 937 715 918 q 782 1004 782 956 q 776 1033 782 1019 q 761 1061 771 1047 l 843 1101 m 235 1136 l 365 1136 l 488 981 l 392 981 l 235 1136 z "},"Ử":{"ha":833,"x_min":110,"x_max":875,"o":"m 843 1101 q 867 1060 858 1082 q 875 1011 875 1038 q 863 951 875 976 q 829 908 850 926 q 781 879 808 890 q 724 861 754 868 l 724 344 q 701 178 724 246 q 638 66 678 110 q 541 3 597 22 q 418 -17 485 -17 q 294 3 351 -17 q 197 66 238 22 q 133 178 156 110 q 110 344 110 246 l 110 911 l 226 911 l 226 342 q 241 222 226 271 q 281 142 256 172 q 342 99 307 113 q 418 85 376 85 q 494 99 460 85 q 556 142 529 113 q 597 222 582 172 q 611 342 611 271 l 611 911 l 660 911 q 749 937 715 918 q 782 1004 782 956 q 776 1033 782 1019 q 761 1061 771 1047 l 843 1101 m 365 1022 q 421 1046 399 1032 q 443 1086 443 1060 q 328 1144 443 1140 l 340 1211 q 482 1180 432 1208 q 532 1099 532 1151 q 519 1047 532 1068 q 485 1009 507 1025 q 436 984 464 993 q 378 969 408 975 l 365 1022 z "},"Ữ":{"ha":833,"x_min":110,"x_max":875,"o":"m 843 1101 q 867 1060 858 1082 q 875 1011 875 1038 q 863 951 875 976 q 829 908 850 926 q 781 879 808 890 q 724 861 754 868 l 724 344 q 701 178 724 246 q 638 66 678 110 q 541 3 597 22 q 418 -17 485 -17 q 294 3 351 -17 q 197 66 238 22 q 133 178 156 110 q 110 344 110 246 l 110 911 l 226 911 l 226 342 q 241 222 226 271 q 281 142 256 172 q 342 99 307 113 q 418 85 376 85 q 494 99 460 85 q 556 142 529 113 q 597 222 582 172 q 611 342 611 271 l 611 911 l 660 911 q 749 937 715 918 q 782 1004 782 956 q 776 1033 782 1019 q 761 1061 771 1047 l 843 1101 m 500 988 q 450 999 472 988 q 409 1024 428 1010 q 372 1049 390 1038 q 335 1060 354 1060 q 300 1042 315 1060 q 279 988 285 1024 l 215 988 q 253 1095 222 1053 q 333 1138 283 1138 q 383 1126 361 1138 q 424 1101 406 1115 q 461 1076 443 1088 q 499 1065 479 1065 q 533 1084 518 1065 q 554 1138 549 1103 l 618 1138 q 581 1031 611 1074 q 500 988 550 988 z "},"Ự":{"ha":833,"x_min":110,"x_max":875,"o":"m 843 1101 q 867 1060 858 1082 q 875 1011 875 1038 q 863 951 875 976 q 829 908 850 926 q 781 879 808 890 q 724 861 754 868 l 724 344 q 701 178 724 246 q 638 66 678 110 q 541 3 597 22 q 418 -17 485 -17 q 294 3 351 -17 q 197 66 238 22 q 133 178 156 110 q 110 344 110 246 l 110 911 l 226 911 l 226 342 q 241 222 226 271 q 281 142 256 172 q 342 99 307 113 q 418 85 376 85 q 494 99 460 85 q 556 142 529 113 q 597 222 582 172 q 611 342 611 271 l 611 911 l 660 911 q 749 937 715 918 q 782 1004 782 956 q 776 1033 782 1019 q 761 1061 771 1047 l 843 1101 m 417 -314 q 351 -290 378 -314 q 325 -226 325 -267 q 351 -162 325 -186 q 417 -137 378 -137 q 482 -162 456 -137 q 508 -226 508 -186 q 482 -290 508 -267 q 417 -314 456 -314 z "},"Ẁ":{"ha":833,"x_min":14,"x_max":819,"o":"m 14 913 l 129 913 l 203 340 q 212 227 206 282 q 222 115 218 172 l 226 115 q 256 228 242 172 q 285 340 271 283 l 381 676 l 463 676 l 558 340 q 585 228 571 285 q 615 115 600 172 l 621 115 q 631 228 625 172 q 640 340 636 283 l 710 913 l 819 913 l 685 0 l 557 0 l 453 382 q 435 464 443 422 q 419 546 426 506 l 415 546 q 399 464 407 506 q 379 382 390 422 l 279 0 l 154 0 l 14 913 m 235 1136 l 365 1136 l 488 981 l 392 981 l 235 1136 z "},"Ẃ":{"ha":833,"x_min":14,"x_max":819,"o":"m 14 913 l 129 913 l 203 340 q 212 227 206 282 q 222 115 218 172 l 226 115 q 256 228 242 172 q 285 340 271 283 l 381 676 l 463 676 l 558 340 q 585 228 571 285 q 615 115 600 172 l 621 115 q 631 228 625 172 q 640 340 636 283 l 710 913 l 819 913 l 685 0 l 557 0 l 453 382 q 435 464 443 422 q 419 546 426 506 l 415 546 q 399 464 407 506 q 379 382 390 422 l 279 0 l 154 0 l 14 913 m 442 981 l 346 981 l 468 1136 l 599 1136 l 442 981 z "},"Ŵ":{"ha":833,"x_min":14,"x_max":819,"o":"m 14 913 l 129 913 l 203 340 q 212 227 206 282 q 222 115 218 172 l 226 115 q 256 228 242 172 q 285 340 271 283 l 381 676 l 463 676 l 558 340 q 585 228 571 285 q 615 115 600 172 l 621 115 q 631 228 625 172 q 640 340 636 283 l 710 913 l 819 913 l 685 0 l 557 0 l 453 382 q 435 464 443 422 q 419 546 426 506 l 415 546 q 399 464 407 506 q 379 382 390 422 l 279 0 l 154 0 l 14 913 m 228 981 l 361 1136 l 472 1136 l 606 981 l 513 981 l 419 1075 l 414 1075 l 321 981 l 228 981 z "},"Ẅ":{"ha":833,"x_min":14,"x_max":819,"o":"m 14 913 l 129 913 l 203 340 q 212 227 206 282 q 222 115 218 172 l 226 115 q 256 228 242 172 q 285 340 271 283 l 381 676 l 463 676 l 558 340 q 585 228 571 285 q 615 115 600 172 l 621 115 q 631 228 625 172 q 640 340 636 283 l 710 913 l 819 913 l 685 0 l 557 0 l 453 382 q 435 464 443 422 q 419 546 426 506 l 415 546 q 399 464 407 506 q 379 382 390 422 l 279 0 l 154 0 l 14 913 m 297 993 q 248 1013 267 993 q 229 1061 229 1032 q 248 1110 229 1092 q 297 1129 267 1129 q 346 1110 326 1129 q 365 1061 365 1092 q 346 1013 365 1032 q 297 993 326 993 m 536 993 q 488 1013 507 993 q 468 1061 468 1032 q 488 1110 468 1092 q 536 1129 507 1129 q 585 1110 567 1129 q 604 1061 604 1092 q 585 1013 604 1032 q 536 993 567 993 z "},"Ỳ":{"ha":833,"x_min":53,"x_max":781,"o":"m 358 325 l 53 911 l 175 911 l 313 640 q 364 535 339 588 q 417 428 389 483 l 422 428 q 476 536 450 483 q 529 642 503 589 l 661 911 l 781 911 l 475 325 l 475 0 l 358 0 l 358 325 m 235 1136 l 365 1136 l 488 981 l 392 981 l 235 1136 z "},"Ý":{"ha":833,"x_min":53,"x_max":781,"o":"m 358 325 l 53 911 l 175 911 l 313 640 q 364 535 339 588 q 417 428 389 483 l 422 428 q 476 536 450 483 q 529 642 503 589 l 661 911 l 781 911 l 475 325 l 475 0 l 358 0 l 358 325 m 442 981 l 346 981 l 468 1136 l 599 1136 l 442 981 z "},"Ŷ":{"ha":833,"x_min":53,"x_max":781,"o":"m 358 325 l 53 911 l 175 911 l 313 640 q 364 535 339 588 q 417 428 389 483 l 422 428 q 476 536 450 483 q 529 642 503 589 l 661 911 l 781 911 l 475 325 l 475 0 l 358 0 l 358 325 m 228 981 l 361 1136 l 472 1136 l 606 981 l 513 981 l 419 1075 l 414 1075 l 321 981 l 228 981 z "},"Ÿ":{"ha":833,"x_min":53,"x_max":781,"o":"m 358 325 l 53 911 l 175 911 l 313 640 q 364 535 339 588 q 417 428 389 483 l 422 428 q 476 536 450 483 q 529 642 503 589 l 661 911 l 781 911 l 475 325 l 475 0 l 358 0 l 358 325 m 297 993 q 248 1013 267 993 q 229 1061 229 1032 q 248 1110 229 1092 q 297 1129 267 1129 q 346 1110 326 1129 q 365 1061 365 1092 q 346 1013 365 1032 q 297 993 326 993 m 536 993 q 488 1013 507 993 q 468 1061 468 1032 q 488 1110 468 1092 q 536 1129 507 1129 q 585 1110 567 1129 q 604 1061 604 1092 q 585 1013 604 1032 q 536 993 567 993 z "},"Ẏ":{"ha":833,"x_min":53,"x_max":781,"o":"m 358 325 l 53 911 l 175 911 l 313 640 q 364 535 339 588 q 417 428 389 483 l 422 428 q 476 536 450 483 q 529 642 503 589 l 661 911 l 781 911 l 475 325 l 475 0 l 358 0 l 358 325 m 417 992 q 360 1013 383 992 q 338 1067 338 1033 q 360 1119 338 1099 q 417 1140 383 1140 q 473 1119 450 1140 q 496 1067 496 1099 q 473 1013 496 1033 q 417 992 450 992 z "},"Ỵ":{"ha":833,"x_min":53,"x_max":781,"o":"m 358 325 l 53 911 l 175 911 l 313 640 q 364 535 339 588 q 417 428 389 483 l 422 428 q 476 536 450 483 q 529 642 503 589 l 661 911 l 781 911 l 475 325 l 475 0 l 358 0 l 358 325 m 417 -314 q 351 -290 378 -314 q 325 -226 325 -267 q 351 -162 325 -186 q 417 -137 378 -137 q 482 -162 456 -137 q 508 -226 508 -186 q 482 -290 508 -267 q 417 -314 456 -314 z "},"Ỷ":{"ha":833,"x_min":53,"x_max":781,"o":"m 358 325 l 53 911 l 175 911 l 313 640 q 364 535 339 588 q 417 428 389 483 l 422 428 q 476 536 450 483 q 529 642 503 589 l 661 911 l 781 911 l 475 325 l 475 0 l 358 0 l 358 325 m 365 1022 q 421 1046 399 1032 q 443 1086 443 1060 q 328 1144 443 1140 l 340 1211 q 482 1180 432 1208 q 532 1099 532 1151 q 519 1047 532 1068 q 485 1009 507 1025 q 436 984 464 993 q 378 969 408 975 l 365 1022 z "},"Ỹ":{"ha":833,"x_min":53,"x_max":781,"o":"m 358 325 l 53 911 l 175 911 l 313 640 q 364 535 339 588 q 417 428 389 483 l 422 428 q 476 536 450 483 q 529 642 503 589 l 661 911 l 781 911 l 475 325 l 475 0 l 358 0 l 358 325 m 500 988 q 450 999 472 988 q 409 1024 428 1010 q 372 1049 390 1038 q 335 1060 354 1060 q 300 1042 315 1060 q 279 988 285 1024 l 215 988 q 253 1095 222 1053 q 333 1138 283 1138 q 383 1126 361 1138 q 424 1101 406 1115 q 461 1076 443 1088 q 499 1065 479 1065 q 533 1084 518 1065 q 554 1138 549 1103 l 618 1138 q 581 1031 611 1074 q 500 988 550 988 z "},"Ź":{"ha":833,"x_min":90,"x_max":749,"o":"m 90 69 l 600 815 l 135 815 l 135 913 l 742 913 l 742 843 l 231 99 l 749 99 l 749 0 l 90 0 l 90 69 m 463 981 l 367 981 l 489 1136 l 619 1136 l 463 981 z "},"Ž":{"ha":833,"x_min":90,"x_max":749,"o":"m 90 69 l 600 815 l 135 815 l 135 913 l 742 913 l 742 843 l 231 99 l 749 99 l 749 0 l 90 0 l 90 69 m 626 1136 l 493 981 l 382 981 l 249 1136 l 342 1136 l 435 1042 l 440 1042 l 533 1136 l 626 1136 z "},"Ż":{"ha":833,"x_min":90,"x_max":749,"o":"m 90 69 l 600 815 l 135 815 l 135 913 l 742 913 l 742 843 l 231 99 l 749 99 l 749 0 l 90 0 l 90 69 m 438 992 q 381 1013 404 992 q 358 1067 358 1033 q 381 1119 358 1099 q 438 1140 404 1140 q 494 1119 471 1140 q 517 1067 517 1099 q 494 1013 517 1033 q 438 992 471 992 z "},"Ẓ":{"ha":833,"x_min":90,"x_max":749,"o":"m 90 69 l 600 815 l 135 815 l 135 913 l 742 913 l 742 843 l 231 99 l 749 99 l 749 0 l 90 0 l 90 69 m 432 -314 q 367 -290 393 -314 q 340 -226 340 -267 q 367 -162 340 -186 q 432 -137 393 -137 q 497 -162 471 -137 q 524 -226 524 -186 q 497 -290 524 -267 q 432 -314 471 -314 z "},"Ð":{"ha":833,"x_min":22,"x_max":771,"o":"m 126 446 l 22 446 l 22 504 l 126 511 l 126 911 l 350 911 q 663 794 556 911 q 771 460 771 678 q 663 121 771 242 q 354 0 556 0 l 126 0 l 126 446 m 342 94 q 574 190 497 94 q 651 460 651 286 q 574 725 651 633 q 342 817 497 817 l 242 817 l 242 511 l 440 511 l 440 446 l 242 446 l 242 94 l 342 94 z "},"Þ":{"ha":833,"x_min":140,"x_max":757,"o":"m 140 911 l 257 911 l 257 758 l 421 758 q 558 744 496 758 q 665 699 621 731 q 733 616 708 667 q 757 490 757 565 q 733 365 757 418 q 664 276 708 311 q 558 225 619 242 q 421 208 496 208 l 257 208 l 257 0 l 140 0 l 140 911 m 406 303 q 584 347 526 303 q 642 490 642 392 q 583 626 642 589 q 406 664 524 664 l 257 664 l 257 303 l 406 303 z "},"Ə":{"ha":833,"x_min":86,"x_max":764,"o":"m 204 393 q 271 164 214 246 q 419 82 328 82 q 574 165 514 82 q 646 394 635 249 l 204 393 m 182 826 q 285 899 225 871 q 425 928 344 928 q 567 895 504 928 q 673 802 629 863 q 740 655 717 742 q 764 458 764 568 q 739 261 764 349 q 669 112 714 174 q 560 17 624 50 q 419 -17 496 -17 q 281 17 343 -17 q 176 112 219 50 q 110 260 133 174 q 86 451 86 346 q 87 467 86 458 q 89 482 88 475 l 649 482 q 586 738 644 646 q 417 829 528 829 q 315 806 360 829 q 235 747 269 783 l 182 826 z "},"à":{"ha":833,"x_min":113,"x_max":715,"o":"m 113 175 q 140 274 113 232 q 226 347 167 317 q 378 397 285 378 q 601 428 471 417 q 590 493 600 463 q 560 547 581 524 q 505 583 539 569 q 422 597 471 597 q 294 572 356 597 q 186 517 233 546 l 142 594 q 201 628 167 611 q 273 660 235 646 q 354 683 311 674 q 442 692 397 692 q 648 616 581 692 q 715 414 715 540 l 715 0 l 622 0 l 613 92 l 608 92 q 483 15 551 47 q 342 -17 414 -17 q 253 -3 294 -17 q 180 34 211 10 q 131 94 149 58 q 113 175 113 129 m 224 183 q 236 134 224 154 q 269 101 249 114 q 316 81 289 88 q 372 75 343 75 q 487 101 431 75 q 601 175 543 126 l 601 353 q 420 329 493 344 q 303 292 347 314 q 242 244 260 271 q 224 183 224 217 m 276 1001 l 401 1001 l 526 796 l 439 796 l 276 1001 z "},"á":{"ha":833,"x_min":113,"x_max":715,"o":"m 113 175 q 140 274 113 232 q 226 347 167 317 q 378 397 285 378 q 601 428 471 417 q 590 493 600 463 q 560 547 581 524 q 505 583 539 569 q 422 597 471 597 q 294 572 356 597 q 186 517 233 546 l 142 594 q 201 628 167 611 q 273 660 235 646 q 354 683 311 674 q 442 692 397 692 q 648 616 581 692 q 715 414 715 540 l 715 0 l 622 0 l 613 92 l 608 92 q 483 15 551 47 q 342 -17 414 -17 q 253 -3 294 -17 q 180 34 211 10 q 131 94 149 58 q 113 175 113 129 m 224 183 q 236 134 224 154 q 269 101 249 114 q 316 81 289 88 q 372 75 343 75 q 487 101 431 75 q 601 175 543 126 l 601 353 q 420 329 493 344 q 303 292 347 314 q 242 244 260 271 q 224 183 224 217 m 433 796 l 346 796 l 471 1001 l 596 1001 l 433 796 z "},"â":{"ha":833,"x_min":113,"x_max":715,"o":"m 113 175 q 140 274 113 232 q 226 347 167 317 q 378 397 285 378 q 601 428 471 417 q 590 493 600 463 q 560 547 581 524 q 505 583 539 569 q 422 597 471 597 q 294 572 356 597 q 186 517 233 546 l 142 594 q 201 628 167 611 q 273 660 235 646 q 354 683 311 674 q 442 692 397 692 q 648 616 581 692 q 715 414 715 540 l 715 0 l 622 0 l 613 92 l 608 92 q 483 15 551 47 q 342 -17 414 -17 q 253 -3 294 -17 q 180 34 211 10 q 131 94 149 58 q 113 175 113 129 m 224 183 q 236 134 224 154 q 269 101 249 114 q 316 81 289 88 q 372 75 343 75 q 487 101 431 75 q 601 175 543 126 l 601 353 q 420 329 493 344 q 303 292 347 314 q 242 244 260 271 q 224 183 224 217 m 388 1001 l 485 1001 l 619 796 l 532 796 l 439 933 l 433 933 l 340 796 l 253 796 l 388 1001 z "},"ã":{"ha":833,"x_min":113,"x_max":715,"o":"m 113 175 q 140 274 113 232 q 226 347 167 317 q 378 397 285 378 q 601 428 471 417 q 590 493 600 463 q 560 547 581 524 q 505 583 539 569 q 422 597 471 597 q 294 572 356 597 q 186 517 233 546 l 142 594 q 201 628 167 611 q 273 660 235 646 q 354 683 311 674 q 442 692 397 692 q 648 616 581 692 q 715 414 715 540 l 715 0 l 622 0 l 613 92 l 608 92 q 483 15 551 47 q 342 -17 414 -17 q 253 -3 294 -17 q 180 34 211 10 q 131 94 149 58 q 113 175 113 129 m 224 183 q 236 134 224 154 q 269 101 249 114 q 316 81 289 88 q 372 75 343 75 q 487 101 431 75 q 601 175 543 126 l 601 353 q 420 329 493 344 q 303 292 347 314 q 242 244 260 271 q 224 183 224 217 m 239 804 q 276 913 246 871 q 361 956 306 956 q 407 944 386 956 q 445 918 428 932 q 479 892 463 904 q 513 881 496 881 q 568 956 556 881 l 633 956 q 597 847 626 890 q 511 804 567 804 q 465 816 486 804 q 427 842 444 828 q 393 869 410 857 q 360 881 376 881 q 304 804 317 881 l 239 804 l 239 804 z "},"ä":{"ha":833,"x_min":113,"x_max":715,"o":"m 113 175 q 140 274 113 232 q 226 347 167 317 q 378 397 285 378 q 601 428 471 417 q 590 493 600 463 q 560 547 581 524 q 505 583 539 569 q 422 597 471 597 q 294 572 356 597 q 186 517 233 546 l 142 594 q 201 628 167 611 q 273 660 235 646 q 354 683 311 674 q 442 692 397 692 q 648 616 581 692 q 715 414 715 540 l 715 0 l 622 0 l 613 92 l 608 92 q 483 15 551 47 q 342 -17 414 -17 q 253 -3 294 -17 q 180 34 211 10 q 131 94 149 58 q 113 175 113 129 m 224 183 q 236 134 224 154 q 269 101 249 114 q 316 81 289 88 q 372 75 343 75 q 487 101 431 75 q 601 175 543 126 l 601 353 q 420 329 493 344 q 303 292 347 314 q 242 244 260 271 q 224 183 224 217 m 303 817 q 249 839 269 817 q 228 893 228 861 q 249 947 228 925 q 303 969 269 969 q 356 947 335 969 q 378 893 378 925 q 356 839 378 861 q 303 817 335 817 m 569 817 q 516 839 538 817 q 494 893 494 861 q 516 947 494 925 q 569 969 538 969 q 624 947 603 969 q 644 893 644 925 q 624 839 644 861 q 569 817 603 817 z "},"ā":{"ha":833,"x_min":113,"x_max":715,"o":"m 113 175 q 140 274 113 232 q 226 347 167 317 q 378 397 285 378 q 601 428 471 417 q 590 493 600 463 q 560 547 581 524 q 505 583 539 569 q 422 597 471 597 q 294 572 356 597 q 186 517 233 546 l 142 594 q 201 628 167 611 q 273 660 235 646 q 354 683 311 674 q 442 692 397 692 q 648 616 581 692 q 715 414 715 540 l 715 0 l 622 0 l 613 92 l 608 92 q 483 15 551 47 q 342 -17 414 -17 q 253 -3 294 -17 q 180 34 211 10 q 131 94 149 58 q 113 175 113 129 m 224 183 q 236 134 224 154 q 269 101 249 114 q 316 81 289 88 q 372 75 343 75 q 487 101 431 75 q 601 175 543 126 l 601 353 q 420 329 493 344 q 303 292 347 314 q 242 244 260 271 q 224 183 224 217 m 265 914 l 607 914 l 607 835 l 265 835 l 265 914 z "},"ă":{"ha":833,"x_min":113,"x_max":715,"o":"m 113 175 q 140 274 113 232 q 226 347 167 317 q 378 397 285 378 q 601 428 471 417 q 590 493 600 463 q 560 547 581 524 q 505 583 539 569 q 422 597 471 597 q 294 572 356 597 q 186 517 233 546 l 142 594 q 201 628 167 611 q 273 660 235 646 q 354 683 311 674 q 442 692 397 692 q 648 616 581 692 q 715 414 715 540 l 715 0 l 622 0 l 613 92 l 608 92 q 483 15 551 47 q 342 -17 414 -17 q 253 -3 294 -17 q 180 34 211 10 q 131 94 149 58 q 113 175 113 129 m 224 183 q 236 134 224 154 q 269 101 249 114 q 316 81 289 88 q 372 75 343 75 q 487 101 431 75 q 601 175 543 126 l 601 353 q 420 329 493 344 q 303 292 347 314 q 242 244 260 271 q 224 183 224 217 m 436 799 q 358 815 390 799 q 303 859 325 832 q 269 919 281 886 q 256 985 258 951 l 326 985 q 358 905 332 940 q 436 869 385 869 q 481 879 461 869 q 513 905 500 889 q 535 942 526 921 q 546 985 543 963 l 617 985 q 603 919 614 951 q 569 859 592 886 q 515 815 547 832 q 436 799 482 799 z "},"å":{"ha":833,"x_min":113,"x_max":715,"o":"m 113 175 q 140 274 113 232 q 226 347 167 317 q 378 397 285 378 q 601 428 471 417 q 590 493 600 463 q 560 547 581 524 q 505 583 539 569 q 422 597 471 597 q 294 572 356 597 q 186 517 233 546 l 142 594 q 201 628 167 611 q 273 660 235 646 q 354 683 311 674 q 442 692 397 692 q 648 616 581 692 q 715 414 715 540 l 715 0 l 622 0 l 613 92 l 608 92 q 483 15 551 47 q 342 -17 414 -17 q 253 -3 294 -17 q 180 34 211 10 q 131 94 149 58 q 113 175 113 129 m 224 183 q 236 134 224 154 q 269 101 249 114 q 316 81 289 88 q 372 75 343 75 q 487 101 431 75 q 601 175 543 126 l 601 353 q 420 329 493 344 q 303 292 347 314 q 242 244 260 271 q 224 183 224 217 m 436 753 q 343 788 379 753 q 307 882 307 824 q 343 975 307 940 q 436 1010 379 1010 q 529 975 493 1010 q 565 882 565 940 q 529 788 565 824 q 436 753 493 753 m 436 804 q 483 825 464 804 q 503 882 503 846 q 483 938 503 917 q 436 958 464 958 q 389 938 408 958 q 369 882 369 917 q 389 825 369 846 q 436 804 408 804 z "},"ǎ":{"ha":833,"x_min":113,"x_max":715,"o":"m 113 175 q 140 274 113 232 q 226 347 167 317 q 378 397 285 378 q 601 428 471 417 q 590 493 600 463 q 560 547 581 524 q 505 583 539 569 q 422 597 471 597 q 294 572 356 597 q 186 517 233 546 l 142 594 q 201 628 167 611 q 273 660 235 646 q 354 683 311 674 q 442 692 397 692 q 648 616 581 692 q 715 414 715 540 l 715 0 l 622 0 l 613 92 l 608 92 q 483 15 551 47 q 342 -17 414 -17 q 253 -3 294 -17 q 180 34 211 10 q 131 94 149 58 q 113 175 113 129 m 224 183 q 236 134 224 154 q 269 101 249 114 q 316 81 289 88 q 372 75 343 75 q 487 101 431 75 q 601 175 543 126 l 601 353 q 420 329 493 344 q 303 292 347 314 q 242 244 260 271 q 224 183 224 217 m 253 1001 l 340 1001 l 433 864 l 439 864 l 532 1001 l 619 1001 l 485 796 l 388 796 l 253 1001 z "},"ạ":{"ha":833,"x_min":113,"x_max":715,"o":"m 113 175 q 140 274 113 232 q 226 347 167 317 q 378 397 285 378 q 601 428 471 417 q 590 493 600 463 q 560 547 581 524 q 505 583 539 569 q 422 597 471 597 q 294 572 356 597 q 186 517 233 546 l 142 594 q 201 628 167 611 q 273 660 235 646 q 354 683 311 674 q 442 692 397 692 q 648 616 581 692 q 715 414 715 540 l 715 0 l 622 0 l 613 92 l 608 92 q 483 15 551 47 q 342 -17 414 -17 q 253 -3 294 -17 q 180 34 211 10 q 131 94 149 58 q 113 175 113 129 m 224 183 q 236 134 224 154 q 269 101 249 114 q 316 81 289 88 q 372 75 343 75 q 487 101 431 75 q 601 175 543 126 l 601 353 q 420 329 493 344 q 303 292 347 314 q 242 244 260 271 q 224 183 224 217 m 421 -314 q 356 -290 382 -314 q 329 -226 329 -267 q 356 -162 329 -186 q 421 -137 382 -137 q 486 -162 460 -137 q 513 -226 513 -186 q 486 -290 513 -267 q 421 -314 460 -314 z "},"ả":{"ha":833,"x_min":113,"x_max":715,"o":"m 113 175 q 140 274 113 232 q 226 347 167 317 q 378 397 285 378 q 601 428 471 417 q 590 493 600 463 q 560 547 581 524 q 505 583 539 569 q 422 597 471 597 q 294 572 356 597 q 186 517 233 546 l 142 594 q 201 628 167 611 q 273 660 235 646 q 354 683 311 674 q 442 692 397 692 q 648 616 581 692 q 715 414 715 540 l 715 0 l 622 0 l 613 92 l 608 92 q 483 15 551 47 q 342 -17 414 -17 q 253 -3 294 -17 q 180 34 211 10 q 131 94 149 58 q 113 175 113 129 m 224 183 q 236 134 224 154 q 269 101 249 114 q 316 81 289 88 q 372 75 343 75 q 487 101 431 75 q 601 175 543 126 l 601 353 q 420 329 493 344 q 303 292 347 314 q 242 244 260 271 q 224 183 224 217 m 385 821 q 440 844 418 831 q 463 885 463 858 q 347 943 463 939 l 360 1010 q 501 978 451 1007 q 551 897 551 950 q 539 845 551 867 q 505 808 526 824 q 456 783 483 792 q 397 768 428 774 l 385 821 z "},"ấ":{"ha":833,"x_min":113,"x_max":758,"o":"m 113 175 q 140 274 113 232 q 226 347 167 317 q 378 397 285 378 q 601 428 471 417 q 590 493 600 463 q 560 547 581 524 q 505 583 539 569 q 422 597 471 597 q 294 572 356 597 q 186 517 233 546 l 142 594 q 201 628 167 611 q 273 660 235 646 q 354 683 311 674 q 442 692 397 692 q 648 616 581 692 q 715 414 715 540 l 715 0 l 622 0 l 613 92 l 608 92 q 483 15 551 47 q 342 -17 414 -17 q 253 -3 294 -17 q 180 34 211 10 q 131 94 149 58 q 113 175 113 129 m 224 183 q 236 134 224 154 q 269 101 249 114 q 316 81 289 88 q 372 75 343 75 q 487 101 431 75 q 601 175 543 126 l 601 353 q 420 329 493 344 q 303 292 347 314 q 242 244 260 271 q 224 183 224 217 m 389 961 l 483 961 l 597 796 l 519 796 l 439 897 l 433 897 l 353 796 l 275 796 l 389 961 m 661 1047 l 758 1047 l 631 889 l 560 889 l 661 1047 z "},"ầ":{"ha":833,"x_min":113,"x_max":715,"o":"m 113 175 q 140 274 113 232 q 226 347 167 317 q 378 397 285 378 q 601 428 471 417 q 590 493 600 463 q 560 547 581 524 q 505 583 539 569 q 422 597 471 597 q 294 572 356 597 q 186 517 233 546 l 142 594 q 201 628 167 611 q 273 660 235 646 q 354 683 311 674 q 442 692 397 692 q 648 616 581 692 q 715 414 715 540 l 715 0 l 622 0 l 613 92 l 608 92 q 483 15 551 47 q 342 -17 414 -17 q 253 -3 294 -17 q 180 34 211 10 q 131 94 149 58 q 113 175 113 129 m 224 183 q 236 134 224 154 q 269 101 249 114 q 316 81 289 88 q 372 75 343 75 q 487 101 431 75 q 601 175 543 126 l 601 353 q 420 329 493 344 q 303 292 347 314 q 242 244 260 271 q 224 183 224 217 m 389 961 l 483 961 l 597 796 l 519 796 l 439 897 l 433 897 l 353 796 l 275 796 l 389 961 m 715 889 l 644 889 l 517 1047 l 613 1047 l 715 889 z "},"ẩ":{"ha":833,"x_min":113,"x_max":726,"o":"m 113 175 q 140 274 113 232 q 226 347 167 317 q 378 397 285 378 q 601 428 471 417 q 590 493 600 463 q 560 547 581 524 q 505 583 539 569 q 422 597 471 597 q 294 572 356 597 q 186 517 233 546 l 142 594 q 201 628 167 611 q 273 660 235 646 q 354 683 311 674 q 442 692 397 692 q 648 616 581 692 q 715 414 715 540 l 715 0 l 622 0 l 613 92 l 608 92 q 483 15 551 47 q 342 -17 414 -17 q 253 -3 294 -17 q 180 34 211 10 q 131 94 149 58 q 113 175 113 129 m 224 183 q 236 134 224 154 q 269 101 249 114 q 316 81 289 88 q 372 75 343 75 q 487 101 431 75 q 601 175 543 126 l 601 353 q 420 329 493 344 q 303 292 347 314 q 242 244 260 271 q 224 183 224 217 m 389 961 l 483 961 l 597 796 l 519 796 l 439 897 l 433 897 l 353 796 l 275 796 l 389 961 m 585 921 q 627 940 611 928 q 643 975 643 953 q 621 1016 643 1003 q 547 1032 599 1029 l 557 1089 q 683 1061 639 1086 q 726 988 726 1036 q 715 940 726 960 q 686 908 704 921 q 645 886 668 894 q 597 872 622 878 l 585 921 z "},"ẫ":{"ha":833,"x_min":113,"x_max":715,"o":"m 113 175 q 140 274 113 232 q 226 347 167 317 q 378 397 285 378 q 601 428 471 417 q 590 493 600 463 q 560 547 581 524 q 505 583 539 569 q 422 597 471 597 q 294 572 356 597 q 186 517 233 546 l 142 594 q 201 628 167 611 q 273 660 235 646 q 354 683 311 674 q 442 692 397 692 q 648 616 581 692 q 715 414 715 540 l 715 0 l 622 0 l 613 92 l 608 92 q 483 15 551 47 q 342 -17 414 -17 q 253 -3 294 -17 q 180 34 211 10 q 131 94 149 58 q 113 175 113 129 m 224 183 q 236 134 224 154 q 269 101 249 114 q 316 81 289 88 q 372 75 343 75 q 487 101 431 75 q 601 175 543 126 l 601 353 q 420 329 493 344 q 303 292 347 314 q 242 244 260 271 q 224 183 224 217 m 383 938 l 489 938 l 608 793 l 528 793 l 439 883 l 433 883 l 344 793 l 264 793 l 383 938 m 254 988 q 288 1078 260 1043 q 364 1114 315 1114 q 409 1105 390 1114 q 444 1084 428 1096 q 474 1063 460 1072 q 506 1054 489 1054 q 560 1114 550 1054 l 618 1114 q 585 1023 613 1058 q 508 988 557 988 q 463 997 482 988 q 428 1017 444 1006 q 398 1038 413 1029 q 367 1047 383 1047 q 313 988 322 1047 l 254 988 z "},"ậ":{"ha":833,"x_min":113,"x_max":715,"o":"m 113 175 q 140 274 113 232 q 226 347 167 317 q 378 397 285 378 q 601 428 471 417 q 590 493 600 463 q 560 547 581 524 q 505 583 539 569 q 422 597 471 597 q 294 572 356 597 q 186 517 233 546 l 142 594 q 201 628 167 611 q 273 660 235 646 q 354 683 311 674 q 442 692 397 692 q 648 616 581 692 q 715 414 715 540 l 715 0 l 622 0 l 613 92 l 608 92 q 483 15 551 47 q 342 -17 414 -17 q 253 -3 294 -17 q 180 34 211 10 q 131 94 149 58 q 113 175 113 129 m 224 183 q 236 134 224 154 q 269 101 249 114 q 316 81 289 88 q 372 75 343 75 q 487 101 431 75 q 601 175 543 126 l 601 353 q 420 329 493 344 q 303 292 347 314 q 242 244 260 271 q 224 183 224 217 m 388 1001 l 485 1001 l 619 796 l 532 796 l 439 933 l 433 933 l 340 796 l 253 796 l 388 1001 m 421 -314 q 356 -290 382 -314 q 329 -226 329 -267 q 356 -162 329 -186 q 421 -137 382 -137 q 486 -162 460 -137 q 513 -226 513 -186 q 486 -290 513 -267 q 421 -314 460 -314 z "},"ắ":{"ha":833,"x_min":113,"x_max":715,"o":"m 113 175 q 140 274 113 232 q 226 347 167 317 q 378 397 285 378 q 601 428 471 417 q 590 493 600 463 q 560 547 581 524 q 505 583 539 569 q 422 597 471 597 q 294 572 356 597 q 186 517 233 546 l 142 594 q 201 628 167 611 q 273 660 235 646 q 354 683 311 674 q 442 692 397 692 q 648 616 581 692 q 715 414 715 540 l 715 0 l 622 0 l 613 92 l 608 92 q 483 15 551 47 q 342 -17 414 -17 q 253 -3 294 -17 q 180 34 211 10 q 131 94 149 58 q 113 175 113 129 m 224 183 q 236 134 224 154 q 269 101 249 114 q 316 81 289 88 q 372 75 343 75 q 487 101 431 75 q 601 175 543 126 l 601 353 q 420 329 493 344 q 303 292 347 314 q 242 244 260 271 q 224 183 224 217 m 479 1096 l 574 1096 l 451 940 l 385 940 l 479 1096 m 436 799 q 359 815 392 799 q 306 856 326 831 q 274 913 285 882 q 261 975 263 944 l 321 975 q 356 898 328 932 q 436 864 383 864 q 517 898 489 864 q 551 975 544 932 l 611 975 q 598 913 608 944 q 567 856 588 882 q 513 815 546 831 q 436 799 481 799 z "},"ằ":{"ha":833,"x_min":113,"x_max":715,"o":"m 113 175 q 140 274 113 232 q 226 347 167 317 q 378 397 285 378 q 601 428 471 417 q 590 493 600 463 q 560 547 581 524 q 505 583 539 569 q 422 597 471 597 q 294 572 356 597 q 186 517 233 546 l 142 594 q 201 628 167 611 q 273 660 235 646 q 354 683 311 674 q 442 692 397 692 q 648 616 581 692 q 715 414 715 540 l 715 0 l 622 0 l 613 92 l 608 92 q 483 15 551 47 q 342 -17 414 -17 q 253 -3 294 -17 q 180 34 211 10 q 131 94 149 58 q 113 175 113 129 m 224 183 q 236 134 224 154 q 269 101 249 114 q 316 81 289 88 q 372 75 343 75 q 487 101 431 75 q 601 175 543 126 l 601 353 q 420 329 493 344 q 303 292 347 314 q 242 244 260 271 q 224 183 224 217 m 488 940 l 421 940 l 299 1096 l 393 1096 l 488 940 m 436 799 q 359 815 392 799 q 306 856 326 831 q 274 913 285 882 q 261 975 263 944 l 321 975 q 356 898 328 932 q 436 864 383 864 q 517 898 489 864 q 551 975 544 932 l 611 975 q 598 913 608 944 q 567 856 588 882 q 513 815 546 831 q 436 799 481 799 z "},"ẳ":{"ha":833,"x_min":113,"x_max":715,"o":"m 113 175 q 140 274 113 232 q 226 347 167 317 q 378 397 285 378 q 601 428 471 417 q 590 493 600 463 q 560 547 581 524 q 505 583 539 569 q 422 597 471 597 q 294 572 356 597 q 186 517 233 546 l 142 594 q 201 628 167 611 q 273 660 235 646 q 354 683 311 674 q 442 692 397 692 q 648 616 581 692 q 715 414 715 540 l 715 0 l 622 0 l 613 92 l 608 92 q 483 15 551 47 q 342 -17 414 -17 q 253 -3 294 -17 q 180 34 211 10 q 131 94 149 58 q 113 175 113 129 m 224 183 q 236 134 224 154 q 269 101 249 114 q 316 81 289 88 q 372 75 343 75 q 487 101 431 75 q 601 175 543 126 l 601 353 q 420 329 493 344 q 303 292 347 314 q 242 244 260 271 q 224 183 224 217 m 436 799 q 359 815 392 799 q 306 856 326 831 q 274 913 285 882 q 261 975 263 944 l 321 975 q 356 898 328 932 q 436 864 383 864 q 517 898 489 864 q 551 975 544 932 l 611 975 q 598 913 608 944 q 567 856 588 882 q 513 815 546 831 q 436 799 481 799 m 388 997 q 429 1017 413 1004 q 446 1051 446 1029 q 424 1092 446 1079 q 350 1108 401 1106 l 360 1165 q 485 1138 442 1163 q 529 1064 529 1114 q 518 1017 529 1036 q 489 984 507 997 q 447 963 471 971 q 399 949 424 954 l 388 997 z "},"ẵ":{"ha":833,"x_min":113,"x_max":715,"o":"m 113 175 q 140 274 113 232 q 226 347 167 317 q 378 397 285 378 q 601 428 471 417 q 590 493 600 463 q 560 547 581 524 q 505 583 539 569 q 422 597 471 597 q 294 572 356 597 q 186 517 233 546 l 142 594 q 201 628 167 611 q 273 660 235 646 q 354 683 311 674 q 442 692 397 692 q 648 616 581 692 q 715 414 715 540 l 715 0 l 622 0 l 613 92 l 608 92 q 483 15 551 47 q 342 -17 414 -17 q 253 -3 294 -17 q 180 34 211 10 q 131 94 149 58 q 113 175 113 129 m 224 183 q 236 134 224 154 q 269 101 249 114 q 316 81 289 88 q 372 75 343 75 q 487 101 431 75 q 601 175 543 126 l 601 353 q 420 329 493 344 q 303 292 347 314 q 242 244 260 271 q 224 183 224 217 m 436 799 q 360 812 392 799 q 307 846 328 825 q 275 893 286 867 q 263 947 264 919 l 325 947 q 358 888 332 914 q 436 861 383 861 q 515 888 489 861 q 547 947 540 914 l 610 947 q 597 893 607 919 q 565 846 586 867 q 513 812 544 825 q 436 799 481 799 m 254 988 q 288 1078 260 1043 q 364 1114 315 1114 q 409 1105 390 1114 q 444 1084 428 1096 q 474 1063 460 1072 q 506 1054 489 1054 q 560 1114 550 1054 l 618 1114 q 585 1023 613 1058 q 508 988 557 988 q 463 997 482 988 q 428 1017 444 1006 q 398 1038 413 1029 q 367 1047 383 1047 q 313 988 322 1047 l 254 988 z "},"ặ":{"ha":833,"x_min":113,"x_max":715,"o":"m 113 175 q 140 274 113 232 q 226 347 167 317 q 378 397 285 378 q 601 428 471 417 q 590 493 600 463 q 560 547 581 524 q 505 583 539 569 q 422 597 471 597 q 294 572 356 597 q 186 517 233 546 l 142 594 q 201 628 167 611 q 273 660 235 646 q 354 683 311 674 q 442 692 397 692 q 648 616 581 692 q 715 414 715 540 l 715 0 l 622 0 l 613 92 l 608 92 q 483 15 551 47 q 342 -17 414 -17 q 253 -3 294 -17 q 180 34 211 10 q 131 94 149 58 q 113 175 113 129 m 224 183 q 236 134 224 154 q 269 101 249 114 q 316 81 289 88 q 372 75 343 75 q 487 101 431 75 q 601 175 543 126 l 601 353 q 420 329 493 344 q 303 292 347 314 q 242 244 260 271 q 224 183 224 217 m 436 799 q 358 815 390 799 q 303 859 325 832 q 269 919 281 886 q 256 985 258 951 l 326 985 q 358 905 332 940 q 436 869 385 869 q 481 879 461 869 q 513 905 500 889 q 535 942 526 921 q 546 985 543 963 l 617 985 q 603 919 614 951 q 569 859 592 886 q 515 815 547 832 q 436 799 482 799 m 421 -314 q 356 -290 382 -314 q 329 -226 329 -267 q 356 -162 329 -186 q 421 -137 382 -137 q 486 -162 460 -137 q 513 -226 513 -186 q 486 -290 513 -267 q 421 -314 460 -314 z "},"ą":{"ha":833,"x_min":113,"x_max":746,"o":"m 113 175 q 140 274 113 232 q 226 347 167 317 q 378 397 285 378 q 601 428 471 417 q 590 493 600 463 q 560 547 581 524 q 505 583 539 569 q 422 597 471 597 q 294 572 356 597 q 186 517 233 546 l 142 594 q 201 628 167 611 q 273 660 235 646 q 354 683 311 674 q 442 692 397 692 q 648 616 581 692 q 715 414 715 540 l 715 0 q 626 -65 657 -24 q 596 -146 596 -106 q 615 -194 596 -178 q 660 -210 635 -210 q 715 -192 690 -210 l 746 -249 q 694 -275 726 -264 q 636 -286 663 -286 q 547 -256 583 -286 q 511 -168 511 -226 q 521 -115 511 -140 q 547 -67 531 -89 q 582 -26 563 -44 q 622 6 601 -7 l 613 92 l 608 92 q 483 15 551 47 q 342 -17 414 -17 q 253 -3 294 -17 q 180 34 211 10 q 131 94 149 58 q 113 175 113 129 m 224 183 q 236 134 224 154 q 269 101 249 114 q 316 81 289 88 q 372 75 343 75 q 487 101 431 75 q 601 175 543 126 l 601 353 q 420 329 493 344 q 303 292 347 314 q 242 244 260 271 q 224 183 224 217 z "},"æ":{"ha":833,"x_min":24,"x_max":829,"o":"m 24 179 q 110 341 24 281 q 368 428 196 401 q 340 551 367 503 q 247 599 313 599 q 166 581 211 599 q 89 542 121 564 l 46 619 q 143 669 88 647 q 261 692 199 692 q 369 653 328 692 q 429 556 410 614 q 510 656 463 621 q 625 692 558 692 q 715 667 676 692 q 778 599 753 642 q 817 501 804 557 q 829 383 829 446 q 828 346 829 364 q 824 310 826 328 l 465 310 q 511 140 469 204 q 635 75 553 75 q 706 88 674 75 q 768 118 739 100 l 808 43 q 728 1 774 19 q 631 -17 683 -17 q 507 17 557 -17 q 424 110 457 50 q 312 15 367 47 q 204 -17 257 -17 q 72 35 121 -17 q 24 179 24 88 m 733 386 q 728 468 733 429 q 708 537 722 507 q 672 584 694 567 q 615 601 649 601 q 510 544 550 601 q 464 386 471 488 l 733 386 m 129 185 q 157 103 129 131 q 232 75 185 75 q 311 100 268 75 q 390 174 354 125 q 374 241 379 204 q 368 318 369 278 l 367 353 q 184 290 239 331 q 129 185 129 250 z "},"ç":{"ha":833,"x_min":111,"x_max":749,"o":"m 111 336 q 141 487 111 421 q 222 599 171 553 q 342 668 274 644 q 488 692 411 692 q 631 663 571 692 q 733 593 692 633 l 676 519 q 590 576 635 556 q 492 597 544 597 q 385 578 433 597 q 302 525 336 560 q 249 442 268 490 q 229 336 229 394 q 248 231 229 278 q 301 149 267 183 q 383 97 335 115 q 489 78 431 78 q 603 102 551 78 q 699 163 656 126 l 749 89 q 624 11 693 39 q 481 -17 556 -17 q 334 7 401 -17 q 217 76 267 31 q 139 187 167 121 q 111 336 111 253 m 449 4 l 522 4 l 488 -69 q 545 -103 521 -81 q 569 -168 569 -125 q 553 -221 569 -199 q 508 -258 536 -243 q 444 -283 481 -274 q 368 -296 407 -292 l 357 -239 q 447 -216 413 -232 q 481 -172 481 -200 q 458 -130 481 -144 q 393 -104 435 -115 l 449 4 z "},"ć":{"ha":833,"x_min":111,"x_max":749,"o":"m 111 336 q 141 487 111 421 q 222 599 171 553 q 342 668 274 644 q 488 692 411 692 q 631 663 571 692 q 733 593 692 633 l 676 519 q 590 576 635 556 q 492 597 544 597 q 385 578 433 597 q 302 525 336 560 q 249 442 268 490 q 229 336 229 394 q 248 231 229 278 q 301 149 267 183 q 383 97 335 115 q 489 78 431 78 q 603 102 551 78 q 699 163 656 126 l 749 89 q 624 11 693 39 q 481 -17 556 -17 q 334 7 401 -17 q 217 76 267 31 q 139 187 167 121 q 111 336 111 253 m 474 796 l 386 796 l 511 1001 l 636 1001 l 474 796 z "},"ĉ":{"ha":833,"x_min":111,"x_max":749,"o":"m 111 336 q 141 487 111 421 q 222 599 171 553 q 342 668 274 644 q 488 692 411 692 q 631 663 571 692 q 733 593 692 633 l 676 519 q 590 576 635 556 q 492 597 544 597 q 385 578 433 597 q 302 525 336 560 q 249 442 268 490 q 229 336 229 394 q 248 231 229 278 q 301 149 267 183 q 383 97 335 115 q 489 78 431 78 q 603 102 551 78 q 699 163 656 126 l 749 89 q 624 11 693 39 q 481 -17 556 -17 q 334 7 401 -17 q 217 76 267 31 q 139 187 167 121 q 111 336 111 253 m 428 1001 l 525 1001 l 660 796 l 572 796 l 479 933 l 474 933 l 381 796 l 293 796 l 428 1001 z "},"č":{"ha":833,"x_min":111,"x_max":749,"o":"m 111 336 q 141 487 111 421 q 222 599 171 553 q 342 668 274 644 q 488 692 411 692 q 631 663 571 692 q 733 593 692 633 l 676 519 q 590 576 635 556 q 492 597 544 597 q 385 578 433 597 q 302 525 336 560 q 249 442 268 490 q 229 336 229 394 q 248 231 229 278 q 301 149 267 183 q 383 97 335 115 q 489 78 431 78 q 603 102 551 78 q 699 163 656 126 l 749 89 q 624 11 693 39 q 481 -17 556 -17 q 334 7 401 -17 q 217 76 267 31 q 139 187 167 121 q 111 336 111 253 m 293 1001 l 381 1001 l 474 864 l 479 864 l 572 1001 l 660 1001 l 525 796 l 428 796 l 293 1001 z "},"ċ":{"ha":833,"x_min":111,"x_max":749,"o":"m 111 336 q 141 487 111 421 q 222 599 171 553 q 342 668 274 644 q 488 692 411 692 q 631 663 571 692 q 733 593 692 633 l 676 519 q 590 576 635 556 q 492 597 544 597 q 385 578 433 597 q 302 525 336 560 q 249 442 268 490 q 229 336 229 394 q 248 231 229 278 q 301 149 267 183 q 383 97 335 115 q 489 78 431 78 q 603 102 551 78 q 699 163 656 126 l 749 89 q 624 11 693 39 q 481 -17 556 -17 q 334 7 401 -17 q 217 76 267 31 q 139 187 167 121 q 111 336 111 253 m 476 814 q 411 838 438 814 q 385 901 385 861 q 411 966 385 942 q 476 990 438 990 q 542 966 515 990 q 568 901 568 942 q 542 838 568 861 q 476 814 515 814 z "},"ď":{"ha":833,"x_min":71,"x_max":828,"o":"m 71 336 q 97 484 71 418 q 165 596 122 550 q 263 667 207 642 q 378 692 318 692 q 488 668 440 692 q 582 604 535 644 l 578 729 l 578 989 l 692 989 l 692 0 l 597 0 l 588 89 l 583 89 q 484 15 542 46 q 364 -17 426 -17 q 244 7 297 -17 q 151 76 190 31 q 92 186 113 121 q 71 336 71 251 m 189 338 q 241 147 189 215 q 388 79 293 79 q 578 181 488 79 l 578 517 q 488 578 532 560 q 400 596 444 596 q 317 577 356 596 q 251 524 279 558 q 206 443 222 490 q 189 338 189 396 m 751 761 l 746 1056 l 828 1056 l 826 976 l 807 761 l 751 761 z "},"ḍ":{"ha":833,"x_min":83,"x_max":704,"o":"m 83 336 q 109 484 83 418 q 177 596 135 550 q 275 667 219 642 q 390 692 331 692 q 500 668 453 692 q 594 604 547 644 l 590 729 l 590 989 l 704 989 l 704 0 l 610 0 l 600 89 l 596 89 q 497 15 554 46 q 376 -17 439 -17 q 256 7 310 -17 q 164 76 203 31 q 104 186 125 121 q 83 336 83 251 m 201 338 q 253 147 201 215 q 400 79 306 79 q 590 181 500 79 l 590 517 q 501 578 544 560 q 413 596 457 596 q 330 577 368 596 q 263 524 292 558 q 218 443 235 490 q 201 338 201 396 m 425 -314 q 360 -290 386 -314 q 333 -226 333 -267 q 360 -162 333 -186 q 425 -137 386 -137 q 490 -162 464 -137 q 517 -226 517 -186 q 490 -290 517 -267 q 425 -314 464 -314 z "},"ḏ":{"ha":833,"x_min":83,"x_max":704,"o":"m 83 336 q 109 484 83 418 q 177 596 135 550 q 275 667 219 642 q 390 692 331 692 q 500 668 453 692 q 594 604 547 644 l 590 729 l 590 989 l 704 989 l 704 0 l 610 0 l 600 89 l 596 89 q 497 15 554 46 q 376 -17 439 -17 q 256 7 310 -17 q 164 76 203 31 q 104 186 125 121 q 83 336 83 251 m 201 338 q 253 147 201 215 q 400 79 306 79 q 590 181 500 79 l 590 517 q 501 578 544 560 q 413 596 457 596 q 330 577 368 596 q 263 524 292 558 q 218 443 235 490 q 201 338 201 396 m 596 -237 l 253 -237 l 253 -157 l 596 -157 l 596 -237 z "},"đ":{"ha":833,"x_min":83,"x_max":804,"o":"m 590 489 q 501 550 544 532 q 414 568 457 568 q 331 550 369 568 q 263 500 292 532 q 218 423 235 468 q 201 324 201 378 q 253 144 201 208 q 400 79 306 79 q 590 181 500 79 l 590 489 m 804 800 l 704 793 l 704 0 l 610 0 l 600 89 l 596 89 q 497 15 554 46 q 376 -17 439 -17 q 256 6 310 -17 q 164 72 203 28 q 104 178 125 115 q 83 322 83 240 q 109 465 83 401 q 177 572 135 528 q 275 640 219 617 q 390 664 331 664 q 500 640 453 664 q 594 576 547 617 l 590 701 l 590 793 l 349 793 l 349 860 l 590 860 l 590 989 l 704 989 l 704 860 l 804 860 l 804 800 z "},"è":{"ha":833,"x_min":96,"x_max":746,"o":"m 96 336 q 125 485 96 419 q 202 597 154 551 q 312 667 250 643 q 439 692 374 692 q 568 669 511 692 q 665 604 625 646 q 725 504 704 563 q 746 375 746 446 q 742 313 746 338 l 214 313 q 291 139 221 203 q 472 75 361 75 q 581 92 532 75 q 678 138 631 108 l 718 63 q 604 7 668 31 q 458 -17 540 -17 q 317 8 383 -17 q 202 77 251 32 q 124 188 153 122 q 96 336 96 253 m 640 388 q 588 547 640 492 q 440 601 535 601 q 360 587 399 601 q 292 545 322 572 q 240 478 261 518 q 213 388 218 439 l 640 388 m 278 1001 l 403 1001 l 528 796 l 440 796 l 278 1001 z "},"é":{"ha":833,"x_min":96,"x_max":746,"o":"m 96 336 q 125 485 96 419 q 202 597 154 551 q 312 667 250 643 q 439 692 374 692 q 568 669 511 692 q 665 604 625 646 q 725 504 704 563 q 746 375 746 446 q 742 313 746 338 l 214 313 q 291 139 221 203 q 472 75 361 75 q 581 92 532 75 q 678 138 631 108 l 718 63 q 604 7 668 31 q 458 -17 540 -17 q 317 8 383 -17 q 202 77 251 32 q 124 188 153 122 q 96 336 96 253 m 640 388 q 588 547 640 492 q 440 601 535 601 q 360 587 399 601 q 292 545 322 572 q 240 478 261 518 q 213 388 218 439 l 640 388 m 435 796 l 347 796 l 472 1001 l 597 1001 l 435 796 z "},"ê":{"ha":833,"x_min":96,"x_max":746,"o":"m 96 336 q 125 485 96 419 q 202 597 154 551 q 312 667 250 643 q 439 692 374 692 q 568 669 511 692 q 665 604 625 646 q 725 504 704 563 q 746 375 746 446 q 742 313 746 338 l 214 313 q 291 139 221 203 q 472 75 361 75 q 581 92 532 75 q 678 138 631 108 l 718 63 q 604 7 668 31 q 458 -17 540 -17 q 317 8 383 -17 q 202 77 251 32 q 124 188 153 122 q 96 336 96 253 m 640 388 q 588 547 640 492 q 440 601 535 601 q 360 587 399 601 q 292 545 322 572 q 240 478 261 518 q 213 388 218 439 l 640 388 m 389 1001 l 486 1001 l 621 796 l 533 796 l 440 933 l 435 933 l 342 796 l 254 796 l 389 1001 z "},"ě":{"ha":833,"x_min":96,"x_max":746,"o":"m 96 336 q 125 485 96 419 q 202 597 154 551 q 312 667 250 643 q 439 692 374 692 q 568 669 511 692 q 665 604 625 646 q 725 504 704 563 q 746 375 746 446 q 742 313 746 338 l 214 313 q 291 139 221 203 q 472 75 361 75 q 581 92 532 75 q 678 138 631 108 l 718 63 q 604 7 668 31 q 458 -17 540 -17 q 317 8 383 -17 q 202 77 251 32 q 124 188 153 122 q 96 336 96 253 m 640 388 q 588 547 640 492 q 440 601 535 601 q 360 587 399 601 q 292 545 322 572 q 240 478 261 518 q 213 388 218 439 l 640 388 m 254 1001 l 342 1001 l 435 864 l 440 864 l 533 1001 l 621 1001 l 486 796 l 389 796 l 254 1001 z "},"ë":{"ha":833,"x_min":96,"x_max":746,"o":"m 96 336 q 125 485 96 419 q 202 597 154 551 q 312 667 250 643 q 439 692 374 692 q 568 669 511 692 q 665 604 625 646 q 725 504 704 563 q 746 375 746 446 q 742 313 746 338 l 214 313 q 291 139 221 203 q 472 75 361 75 q 581 92 532 75 q 678 138 631 108 l 718 63 q 604 7 668 31 q 458 -17 540 -17 q 317 8 383 -17 q 202 77 251 32 q 124 188 153 122 q 96 336 96 253 m 640 388 q 588 547 640 492 q 440 601 535 601 q 360 587 399 601 q 292 545 322 572 q 240 478 261 518 q 213 388 218 439 l 640 388 m 304 817 q 250 839 271 817 q 229 893 229 861 q 250 947 229 925 q 304 969 271 969 q 358 947 336 969 q 379 893 379 925 q 358 839 379 861 q 304 817 336 817 m 571 817 q 517 839 539 817 q 496 893 496 861 q 517 947 496 925 q 571 969 539 969 q 625 947 604 969 q 646 893 646 925 q 625 839 646 861 q 571 817 604 817 z "},"ē":{"ha":833,"x_min":96,"x_max":746,"o":"m 96 336 q 125 485 96 419 q 202 597 154 551 q 312 667 250 643 q 439 692 374 692 q 568 669 511 692 q 665 604 625 646 q 725 504 704 563 q 746 375 746 446 q 742 313 746 338 l 214 313 q 291 139 221 203 q 472 75 361 75 q 581 92 532 75 q 678 138 631 108 l 718 63 q 604 7 668 31 q 458 -17 540 -17 q 317 8 383 -17 q 202 77 251 32 q 124 188 153 122 q 96 336 96 253 m 640 388 q 588 547 640 492 q 440 601 535 601 q 360 587 399 601 q 292 545 322 572 q 240 478 261 518 q 213 388 218 439 l 640 388 m 267 914 l 608 914 l 608 835 l 267 835 l 267 914 z "},"ĕ":{"ha":833,"x_min":96,"x_max":746,"o":"m 96 336 q 125 485 96 419 q 202 597 154 551 q 312 667 250 643 q 439 692 374 692 q 568 669 511 692 q 665 604 625 646 q 725 504 704 563 q 746 375 746 446 q 742 313 746 338 l 214 313 q 291 139 221 203 q 472 75 361 75 q 581 92 532 75 q 678 138 631 108 l 718 63 q 604 7 668 31 q 458 -17 540 -17 q 317 8 383 -17 q 202 77 251 32 q 124 188 153 122 q 96 336 96 253 m 640 388 q 588 547 640 492 q 440 601 535 601 q 360 587 399 601 q 292 545 322 572 q 240 478 261 518 q 213 388 218 439 l 640 388 m 438 799 q 359 815 392 799 q 304 859 326 832 q 271 919 282 886 q 257 985 260 951 l 328 985 q 360 905 333 940 q 438 869 386 869 q 482 879 463 869 q 515 905 501 889 q 536 942 528 921 q 547 985 544 963 l 618 985 q 604 919 615 951 q 571 859 593 886 q 516 815 549 832 q 438 799 483 799 z "},"ė":{"ha":833,"x_min":96,"x_max":746,"o":"m 96 336 q 125 485 96 419 q 202 597 154 551 q 312 667 250 643 q 439 692 374 692 q 568 669 511 692 q 665 604 625 646 q 725 504 704 563 q 746 375 746 446 q 742 313 746 338 l 214 313 q 291 139 221 203 q 472 75 361 75 q 581 92 532 75 q 678 138 631 108 l 718 63 q 604 7 668 31 q 458 -17 540 -17 q 317 8 383 -17 q 202 77 251 32 q 124 188 153 122 q 96 336 96 253 m 640 388 q 588 547 640 492 q 440 601 535 601 q 360 587 399 601 q 292 545 322 572 q 240 478 261 518 q 213 388 218 439 l 640 388 m 438 814 q 372 838 399 814 q 346 901 346 861 q 372 966 346 942 q 438 990 399 990 q 503 966 476 990 q 529 901 529 942 q 503 838 529 861 q 438 814 476 814 z "},"ẹ":{"ha":833,"x_min":96,"x_max":746,"o":"m 96 336 q 125 485 96 419 q 202 597 154 551 q 312 667 250 643 q 439 692 374 692 q 568 669 511 692 q 665 604 625 646 q 725 504 704 563 q 746 375 746 446 q 742 313 746 338 l 214 313 q 291 139 221 203 q 472 75 361 75 q 581 92 532 75 q 678 138 631 108 l 718 63 q 604 7 668 31 q 458 -17 540 -17 q 317 8 383 -17 q 202 77 251 32 q 124 188 153 122 q 96 336 96 253 m 640 388 q 588 547 640 492 q 440 601 535 601 q 360 587 399 601 q 292 545 322 572 q 240 478 261 518 q 213 388 218 439 l 640 388 m 438 -314 q 372 -290 399 -314 q 346 -226 346 -267 q 372 -162 346 -186 q 438 -137 399 -137 q 503 -162 476 -137 q 529 -226 529 -186 q 503 -290 529 -267 q 438 -314 476 -314 z "},"ẻ":{"ha":833,"x_min":96,"x_max":746,"o":"m 96 336 q 125 485 96 419 q 202 597 154 551 q 312 667 250 643 q 439 692 374 692 q 568 669 511 692 q 665 604 625 646 q 725 504 704 563 q 746 375 746 446 q 742 313 746 338 l 214 313 q 291 139 221 203 q 472 75 361 75 q 581 92 532 75 q 678 138 631 108 l 718 63 q 604 7 668 31 q 458 -17 540 -17 q 317 8 383 -17 q 202 77 251 32 q 124 188 153 122 q 96 336 96 253 m 640 388 q 588 547 640 492 q 440 601 535 601 q 360 587 399 601 q 292 545 322 572 q 240 478 261 518 q 213 388 218 439 l 640 388 m 386 821 q 442 844 419 831 q 464 885 464 858 q 349 943 464 939 l 361 1010 q 503 978 453 1007 q 553 897 553 950 q 540 845 553 867 q 506 808 528 824 q 457 783 485 792 q 399 768 429 774 l 386 821 z "},"ẽ":{"ha":833,"x_min":96,"x_max":746,"o":"m 96 336 q 125 485 96 419 q 202 597 154 551 q 312 667 250 643 q 439 692 374 692 q 568 669 511 692 q 665 604 625 646 q 725 504 704 563 q 746 375 746 446 q 742 313 746 338 l 214 313 q 291 139 221 203 q 472 75 361 75 q 581 92 532 75 q 678 138 631 108 l 718 63 q 604 7 668 31 q 458 -17 540 -17 q 317 8 383 -17 q 202 77 251 32 q 124 188 153 122 q 96 336 96 253 m 640 388 q 588 547 640 492 q 440 601 535 601 q 360 587 399 601 q 292 545 322 572 q 240 478 261 518 q 213 388 218 439 l 640 388 m 240 804 q 277 913 247 871 q 363 956 307 956 q 408 944 388 956 q 447 918 429 932 q 481 892 464 904 q 514 881 497 881 q 569 956 557 881 l 635 956 q 598 847 628 890 q 513 804 568 804 q 467 816 488 804 q 428 842 446 828 q 394 869 411 857 q 361 881 378 881 q 306 804 318 881 l 240 804 l 240 804 z "},"ế":{"ha":833,"x_min":96,"x_max":760,"o":"m 96 336 q 125 485 96 419 q 202 597 154 551 q 312 667 250 643 q 439 692 374 692 q 568 669 511 692 q 665 604 625 646 q 725 504 704 563 q 746 375 746 446 q 742 313 746 338 l 214 313 q 291 139 221 203 q 472 75 361 75 q 581 92 532 75 q 678 138 631 108 l 718 63 q 604 7 668 31 q 458 -17 540 -17 q 317 8 383 -17 q 202 77 251 32 q 124 188 153 122 q 96 336 96 253 m 640 388 q 588 547 640 492 q 440 601 535 601 q 360 587 399 601 q 292 545 322 572 q 240 478 261 518 q 213 388 218 439 l 640 388 m 390 961 l 485 961 l 599 796 l 521 796 l 440 897 l 435 897 l 354 796 l 276 796 l 390 961 m 663 1047 l 760 1047 l 632 889 l 561 889 l 663 1047 z "},"ề":{"ha":833,"x_min":96,"x_max":746,"o":"m 96 336 q 125 485 96 419 q 202 597 154 551 q 312 667 250 643 q 439 692 374 692 q 568 669 511 692 q 665 604 625 646 q 725 504 704 563 q 746 375 746 446 q 742 313 746 338 l 214 313 q 291 139 221 203 q 472 75 361 75 q 581 92 532 75 q 678 138 631 108 l 718 63 q 604 7 668 31 q 458 -17 540 -17 q 317 8 383 -17 q 202 77 251 32 q 124 188 153 122 q 96 336 96 253 m 640 388 q 588 547 640 492 q 440 601 535 601 q 360 587 399 601 q 292 545 322 572 q 240 478 261 518 q 213 388 218 439 l 640 388 m 390 961 l 485 961 l 599 796 l 521 796 l 440 897 l 435 897 l 354 796 l 276 796 l 390 961 m 717 889 l 646 889 l 518 1047 l 614 1047 l 717 889 z "},"ể":{"ha":833,"x_min":96,"x_max":746,"o":"m 96 336 q 125 485 96 419 q 202 597 154 551 q 312 667 250 643 q 439 692 374 692 q 568 669 511 692 q 665 604 625 646 q 725 504 704 563 q 746 375 746 446 q 742 313 746 338 l 214 313 q 291 139 221 203 q 472 75 361 75 q 581 92 532 75 q 678 138 631 108 l 718 63 q 604 7 668 31 q 458 -17 540 -17 q 317 8 383 -17 q 202 77 251 32 q 124 188 153 122 q 96 336 96 253 m 640 388 q 588 547 640 492 q 440 601 535 601 q 360 587 399 601 q 292 545 322 572 q 240 478 261 518 q 213 388 218 439 l 640 388 m 390 961 l 485 961 l 599 796 l 521 796 l 440 897 l 435 897 l 354 796 l 276 796 l 390 961 m 586 921 q 628 940 613 928 q 644 975 644 953 q 622 1016 644 1003 q 549 1032 600 1029 l 558 1089 q 684 1061 640 1086 q 728 988 728 1036 q 717 940 728 960 q 688 908 706 921 q 647 886 669 894 q 599 872 624 878 l 586 921 z "},"ễ":{"ha":833,"x_min":96,"x_max":746,"o":"m 96 336 q 125 485 96 419 q 202 597 154 551 q 312 667 250 643 q 439 692 374 692 q 568 669 511 692 q 665 604 625 646 q 725 504 704 563 q 746 375 746 446 q 742 313 746 338 l 214 313 q 291 139 221 203 q 472 75 361 75 q 581 92 532 75 q 678 138 631 108 l 718 63 q 604 7 668 31 q 458 -17 540 -17 q 317 8 383 -17 q 202 77 251 32 q 124 188 153 122 q 96 336 96 253 m 640 388 q 588 547 640 492 q 440 601 535 601 q 360 587 399 601 q 292 545 322 572 q 240 478 261 518 q 213 388 218 439 l 640 388 m 385 938 l 490 938 l 610 793 l 529 793 l 440 883 l 435 883 l 346 793 l 265 793 l 385 938 m 256 988 q 289 1078 261 1043 q 365 1114 317 1114 q 410 1105 392 1114 q 445 1084 429 1096 q 476 1063 461 1072 q 507 1054 490 1054 q 561 1114 551 1054 l 619 1114 q 586 1023 614 1058 q 510 988 558 988 q 465 997 483 988 q 430 1017 446 1006 q 399 1038 414 1029 q 368 1047 385 1047 q 314 988 324 1047 l 256 988 z "},"ệ":{"ha":833,"x_min":96,"x_max":746,"o":"m 96 336 q 125 485 96 419 q 202 597 154 551 q 312 667 250 643 q 439 692 374 692 q 568 669 511 692 q 665 604 625 646 q 725 504 704 563 q 746 375 746 446 q 742 313 746 338 l 214 313 q 291 139 221 203 q 472 75 361 75 q 581 92 532 75 q 678 138 631 108 l 718 63 q 604 7 668 31 q 458 -17 540 -17 q 317 8 383 -17 q 202 77 251 32 q 124 188 153 122 q 96 336 96 253 m 640 388 q 588 547 640 492 q 440 601 535 601 q 360 587 399 601 q 292 545 322 572 q 240 478 261 518 q 213 388 218 439 l 640 388 m 389 1001 l 486 1001 l 621 796 l 533 796 l 440 933 l 435 933 l 342 796 l 254 796 l 389 1001 m 438 -314 q 372 -290 399 -314 q 346 -226 346 -267 q 372 -162 346 -186 q 438 -137 399 -137 q 503 -162 476 -137 q 529 -226 529 -186 q 503 -290 529 -267 q 438 -314 476 -314 z "},"ę":{"ha":833,"x_min":96,"x_max":746,"o":"m 718 63 q 640 1 671 29 q 590 -53 608 -28 q 563 -101 571 -78 q 556 -146 556 -124 q 575 -194 556 -178 q 621 -210 594 -210 q 649 -205 636 -210 q 676 -192 663 -200 l 706 -249 q 655 -275 686 -264 q 597 -286 624 -286 q 508 -256 544 -286 q 472 -168 472 -226 q 481 -117 472 -142 q 503 -69 489 -92 q 533 -30 517 -47 q 564 0 549 -12 q 510 -14 533 -11 q 458 -17 486 -17 q 317 8 383 -17 q 202 77 251 32 q 124 188 153 122 q 96 336 96 253 q 125 485 96 419 q 202 597 154 551 q 312 667 250 643 q 439 692 374 692 q 568 669 511 692 q 665 604 625 646 q 725 504 704 563 q 746 375 746 446 q 742 313 746 338 l 214 313 q 291 139 221 203 q 472 75 361 75 q 581 92 532 75 q 678 138 631 108 l 718 63 m 640 388 q 588 547 640 492 q 440 601 535 601 q 360 587 399 601 q 292 545 322 572 q 240 478 261 518 q 213 388 218 439 l 640 388 z "},"ĝ":{"ha":833,"x_min":100,"x_max":786,"o":"m 199 -112 q 255 -199 199 -165 q 419 -232 311 -232 q 525 -220 478 -232 q 606 -189 572 -208 q 656 -144 639 -169 q 674 -93 674 -119 q 635 -28 674 -44 q 519 -11 597 -11 l 388 -11 q 333 -9 358 -11 q 285 0 307 -7 q 217 -55 236 -26 q 199 -112 199 -83 m 100 -124 q 128 -44 100 -83 q 211 26 157 -6 l 211 32 q 163 74 183 47 q 142 143 142 100 q 163 209 142 175 q 222 269 183 243 l 222 275 q 163 345 188 301 q 139 450 139 389 q 160 550 139 506 q 218 626 182 594 q 302 674 254 657 q 404 692 350 692 q 504 675 460 692 l 783 675 l 783 588 l 603 588 q 646 526 626 563 q 665 446 665 490 q 645 349 665 392 q 590 276 625 306 q 506 230 554 246 q 404 214 458 214 q 348 220 378 214 q 290 239 318 226 q 238 161 238 206 q 274 102 238 121 q 378 83 311 83 l 529 83 q 723 47 660 83 q 786 -75 786 11 q 760 -165 786 -122 q 685 -240 733 -208 q 567 -292 636 -272 q 411 -311 497 -311 q 181 -262 263 -311 q 100 -124 100 -214 m 404 290 q 515 333 469 290 q 560 450 560 376 q 547 514 560 485 q 514 564 535 543 q 465 597 493 585 q 404 608 436 608 q 344 597 372 608 q 294 564 315 585 q 261 514 274 543 q 249 450 249 485 q 294 333 249 376 q 404 290 340 290 m 378 1001 l 475 1001 l 610 796 l 522 796 l 429 933 l 424 933 l 331 796 l 243 796 l 378 1001 z "},"ğ":{"ha":833,"x_min":100,"x_max":786,"o":"m 199 -112 q 255 -199 199 -165 q 419 -232 311 -232 q 525 -220 478 -232 q 606 -189 572 -208 q 656 -144 639 -169 q 674 -93 674 -119 q 635 -28 674 -44 q 519 -11 597 -11 l 388 -11 q 333 -9 358 -11 q 285 0 307 -7 q 217 -55 236 -26 q 199 -112 199 -83 m 100 -124 q 128 -44 100 -83 q 211 26 157 -6 l 211 32 q 163 74 183 47 q 142 143 142 100 q 163 209 142 175 q 222 269 183 243 l 222 275 q 163 345 188 301 q 139 450 139 389 q 160 550 139 506 q 218 626 182 594 q 302 674 254 657 q 404 692 350 692 q 504 675 460 692 l 783 675 l 783 588 l 603 588 q 646 526 626 563 q 665 446 665 490 q 645 349 665 392 q 590 276 625 306 q 506 230 554 246 q 404 214 458 214 q 348 220 378 214 q 290 239 318 226 q 238 161 238 206 q 274 102 238 121 q 378 83 311 83 l 529 83 q 723 47 660 83 q 786 -75 786 11 q 760 -165 786 -122 q 685 -240 733 -208 q 567 -292 636 -272 q 411 -311 497 -311 q 181 -262 263 -311 q 100 -124 100 -214 m 404 290 q 515 333 469 290 q 560 450 560 376 q 547 514 560 485 q 514 564 535 543 q 465 597 493 585 q 404 608 436 608 q 344 597 372 608 q 294 564 315 585 q 261 514 274 543 q 249 450 249 485 q 294 333 249 376 q 404 290 340 290 m 426 799 q 348 815 381 799 q 293 859 315 832 q 260 919 271 886 q 246 985 249 951 l 317 985 q 349 905 322 940 q 426 869 375 869 q 471 879 451 869 q 503 905 490 889 q 525 942 517 921 q 536 985 533 963 l 607 985 q 593 919 604 951 q 560 859 582 886 q 505 815 538 832 q 426 799 472 799 z "},"ġ":{"ha":833,"x_min":100,"x_max":786,"o":"m 199 -112 q 255 -199 199 -165 q 419 -232 311 -232 q 525 -220 478 -232 q 606 -189 572 -208 q 656 -144 639 -169 q 674 -93 674 -119 q 635 -28 674 -44 q 519 -11 597 -11 l 388 -11 q 333 -9 358 -11 q 285 0 307 -7 q 217 -55 236 -26 q 199 -112 199 -83 m 100 -124 q 128 -44 100 -83 q 211 26 157 -6 l 211 32 q 163 74 183 47 q 142 143 142 100 q 163 209 142 175 q 222 269 183 243 l 222 275 q 163 345 188 301 q 139 450 139 389 q 160 550 139 506 q 218 626 182 594 q 302 674 254 657 q 404 692 350 692 q 504 675 460 692 l 783 675 l 783 588 l 603 588 q 646 526 626 563 q 665 446 665 490 q 645 349 665 392 q 590 276 625 306 q 506 230 554 246 q 404 214 458 214 q 348 220 378 214 q 290 239 318 226 q 238 161 238 206 q 274 102 238 121 q 378 83 311 83 l 529 83 q 723 47 660 83 q 786 -75 786 11 q 760 -165 786 -122 q 685 -240 733 -208 q 567 -292 636 -272 q 411 -311 497 -311 q 181 -262 263 -311 q 100 -124 100 -214 m 404 290 q 515 333 469 290 q 560 450 560 376 q 547 514 560 485 q 514 564 535 543 q 465 597 493 585 q 404 608 436 608 q 344 597 372 608 q 294 564 315 585 q 261 514 274 543 q 249 450 249 485 q 294 333 249 376 q 404 290 340 290 m 426 814 q 361 838 388 814 q 335 901 335 861 q 361 966 335 942 q 426 990 388 990 q 492 966 465 990 q 518 901 518 942 q 492 838 518 861 q 426 814 465 814 z "},"ģ":{"ha":833,"x_min":100,"x_max":786,"o":"m 199 -112 q 255 -199 199 -165 q 419 -232 311 -232 q 525 -220 478 -232 q 606 -189 572 -208 q 656 -144 639 -169 q 674 -93 674 -119 q 635 -28 674 -44 q 519 -11 597 -11 l 388 -11 q 333 -9 358 -11 q 285 0 307 -7 q 217 -55 236 -26 q 199 -112 199 -83 m 100 -124 q 128 -44 100 -83 q 211 26 157 -6 l 211 32 q 163 74 183 47 q 142 143 142 100 q 163 209 142 175 q 222 269 183 243 l 222 275 q 163 345 188 301 q 139 450 139 389 q 160 550 139 506 q 218 626 182 594 q 302 674 254 657 q 404 692 350 692 q 504 675 460 692 l 783 675 l 783 588 l 603 588 q 646 526 626 563 q 665 446 665 490 q 645 349 665 392 q 590 276 625 306 q 506 230 554 246 q 404 214 458 214 q 348 220 378 214 q 290 239 318 226 q 238 161 238 206 q 274 102 238 121 q 378 83 311 83 l 529 83 q 723 47 660 83 q 786 -75 786 11 q 760 -165 786 -122 q 685 -240 733 -208 q 567 -292 636 -272 q 411 -311 497 -311 q 181 -262 263 -311 q 100 -124 100 -214 m 404 290 q 515 333 469 290 q 560 450 560 376 q 547 514 560 485 q 514 564 535 543 q 465 597 493 585 q 404 608 436 608 q 344 597 372 608 q 294 564 315 585 q 261 514 274 543 q 249 450 249 485 q 294 333 249 376 q 404 290 340 290 m 465 751 q 363 788 394 763 q 331 858 331 813 q 347 911 331 889 q 392 949 364 933 q 456 973 419 964 q 531 986 492 982 l 542 929 q 453 908 488 922 q 419 867 419 893 q 440 825 419 839 q 490 804 460 811 l 465 751 l 465 751 z "},"ǧ":{"ha":833,"x_min":100,"x_max":786,"o":"m 199 -112 q 255 -199 199 -165 q 419 -232 311 -232 q 525 -220 478 -232 q 606 -189 572 -208 q 656 -144 639 -169 q 674 -93 674 -119 q 635 -28 674 -44 q 519 -11 597 -11 l 388 -11 q 333 -9 358 -11 q 285 0 307 -7 q 217 -55 236 -26 q 199 -112 199 -83 m 100 -124 q 128 -44 100 -83 q 211 26 157 -6 l 211 32 q 163 74 183 47 q 142 143 142 100 q 163 209 142 175 q 222 269 183 243 l 222 275 q 163 345 188 301 q 139 450 139 389 q 160 550 139 506 q 218 626 182 594 q 302 674 254 657 q 404 692 350 692 q 504 675 460 692 l 783 675 l 783 588 l 603 588 q 646 526 626 563 q 665 446 665 490 q 645 349 665 392 q 590 276 625 306 q 506 230 554 246 q 404 214 458 214 q 348 220 378 214 q 290 239 318 226 q 238 161 238 206 q 274 102 238 121 q 378 83 311 83 l 529 83 q 723 47 660 83 q 786 -75 786 11 q 760 -165 786 -122 q 685 -240 733 -208 q 567 -292 636 -272 q 411 -311 497 -311 q 181 -262 263 -311 q 100 -124 100 -214 m 404 290 q 515 333 469 290 q 560 450 560 376 q 547 514 560 485 q 514 564 535 543 q 465 597 493 585 q 404 608 436 608 q 344 597 372 608 q 294 564 315 585 q 261 514 274 543 q 249 450 249 485 q 294 333 249 376 q 404 290 340 290 m 243 1001 l 331 1001 l 424 864 l 429 864 l 522 1001 l 610 1001 l 475 796 l 378 796 l 243 1001 z "},"ḡ":{"ha":833,"x_min":100,"x_max":786,"o":"m 199 -112 q 255 -199 199 -165 q 419 -232 311 -232 q 525 -220 478 -232 q 606 -189 572 -208 q 656 -144 639 -169 q 674 -93 674 -119 q 635 -28 674 -44 q 519 -11 597 -11 l 388 -11 q 333 -9 358 -11 q 285 0 307 -7 q 217 -55 236 -26 q 199 -112 199 -83 m 100 -124 q 128 -44 100 -83 q 211 26 157 -6 l 211 32 q 163 74 183 47 q 142 143 142 100 q 163 209 142 175 q 222 269 183 243 l 222 275 q 163 345 188 301 q 139 450 139 389 q 160 550 139 506 q 218 626 182 594 q 302 674 254 657 q 404 692 350 692 q 504 675 460 692 l 783 675 l 783 588 l 603 588 q 646 526 626 563 q 665 446 665 490 q 645 349 665 392 q 590 276 625 306 q 506 230 554 246 q 404 214 458 214 q 348 220 378 214 q 290 239 318 226 q 238 161 238 206 q 274 102 238 121 q 378 83 311 83 l 529 83 q 723 47 660 83 q 786 -75 786 11 q 760 -165 786 -122 q 685 -240 733 -208 q 567 -292 636 -272 q 411 -311 497 -311 q 181 -262 263 -311 q 100 -124 100 -214 m 404 290 q 515 333 469 290 q 560 450 560 376 q 547 514 560 485 q 514 564 535 543 q 465 597 493 585 q 404 608 436 608 q 344 597 372 608 q 294 564 315 585 q 261 514 274 543 q 249 450 249 485 q 294 333 249 376 q 404 290 340 290 m 256 914 l 597 914 l 597 835 l 256 835 l 256 914 z "},"ĥ":{"ha":833,"x_min":14,"x_max":726,"o":"m 129 989 l 243 989 l 243 719 l 238 560 q 353 654 292 617 q 493 692 414 692 q 670 623 614 692 q 726 419 726 554 l 726 0 l 613 0 l 613 404 q 576 547 613 500 q 457 593 540 593 q 401 585 426 593 q 350 563 375 578 q 299 524 325 547 q 243 471 272 501 l 243 0 l 129 0 l 129 989 m 14 1039 l 147 1194 l 258 1194 l 392 1039 l 299 1039 l 206 1133 l 200 1133 l 107 1039 l 14 1039 z "},"ḥ":{"ha":833,"x_min":129,"x_max":726,"o":"m 129 989 l 243 989 l 243 719 l 238 560 q 353 654 292 617 q 493 692 414 692 q 670 623 614 692 q 726 419 726 554 l 726 0 l 613 0 l 613 404 q 576 547 613 500 q 457 593 540 593 q 401 585 426 593 q 350 563 375 578 q 299 524 325 547 q 243 471 272 501 l 243 0 l 129 0 l 129 989 m 436 -314 q 371 -290 397 -314 q 344 -226 344 -267 q 371 -162 344 -186 q 436 -137 397 -137 q 501 -162 475 -137 q 528 -226 528 -186 q 501 -290 528 -267 q 436 -314 475 -314 z "},"ḫ":{"ha":833,"x_min":129,"x_max":726,"o":"m 129 989 l 243 989 l 243 719 l 238 560 q 353 654 292 617 q 493 692 414 692 q 670 623 614 692 q 726 419 726 554 l 726 0 l 613 0 l 613 404 q 576 547 613 500 q 457 593 540 593 q 401 585 426 593 q 350 563 375 578 q 299 524 325 547 q 243 471 272 501 l 243 0 l 129 0 l 129 989 m 435 -286 q 358 -270 390 -286 q 304 -228 325 -254 q 272 -172 283 -203 q 260 -110 261 -140 l 331 -110 q 361 -183 336 -150 q 435 -215 386 -215 q 508 -183 483 -215 q 539 -110 533 -150 l 610 -110 q 597 -172 607 -140 q 565 -228 586 -203 q 512 -270 544 -254 q 435 -286 479 -286 z "},"ħ":{"ha":833,"x_min":28,"x_max":726,"o":"m 238 532 q 353 626 292 589 q 493 664 414 664 q 670 595 614 664 q 726 392 726 526 l 726 0 l 613 0 l 613 376 q 576 519 613 472 q 457 565 540 565 q 401 558 426 565 q 350 535 375 550 q 299 497 325 519 q 243 443 272 474 l 243 0 l 129 0 l 129 793 l 28 793 l 28 853 l 129 860 l 129 989 l 243 989 l 243 860 l 538 860 l 538 793 l 243 793 l 243 692 l 238 532 z "},"ì":{"ha":833,"x_min":125,"x_max":574,"o":"m 125 675 l 553 675 l 553 0 l 439 0 l 439 582 l 125 582 l 125 675 m 324 1001 l 449 1001 l 574 796 l 486 796 l 324 1001 z "},"í":{"ha":833,"x_min":125,"x_max":643,"o":"m 125 675 l 553 675 l 553 0 l 439 0 l 439 582 l 125 582 l 125 675 m 481 796 l 393 796 l 518 1001 l 643 1001 l 481 796 z "},"î":{"ha":833,"x_min":125,"x_max":667,"o":"m 125 675 l 553 675 l 553 0 l 439 0 l 439 582 l 125 582 l 125 675 m 435 1001 l 532 1001 l 667 796 l 579 796 l 486 933 l 481 933 l 388 796 l 300 796 l 435 1001 z "},"ĩ":{"ha":833,"x_min":125,"x_max":681,"o":"m 125 675 l 553 675 l 553 0 l 439 0 l 439 582 l 125 582 l 125 675 m 286 804 q 323 913 293 871 q 408 956 353 956 q 454 944 433 956 q 492 918 475 932 q 526 892 510 904 q 560 881 543 881 q 615 956 603 881 l 681 956 q 644 847 674 890 q 558 804 614 804 q 513 816 533 804 q 474 842 492 828 q 440 869 457 857 q 407 881 424 881 q 351 804 364 881 l 286 804 l 286 804 z "},"ï":{"ha":833,"x_min":125,"x_max":692,"o":"m 125 675 l 553 675 l 553 0 l 439 0 l 439 582 l 125 582 l 125 675 m 350 817 q 296 839 317 817 q 275 893 275 861 q 296 947 275 925 q 350 969 317 969 q 403 947 382 969 q 425 893 425 925 q 403 839 425 861 q 350 817 382 817 m 617 817 q 563 839 585 817 q 542 893 542 861 q 563 947 542 925 q 617 969 585 969 q 671 947 650 969 q 692 893 692 925 q 671 839 692 861 q 617 817 650 817 z "},"ī":{"ha":833,"x_min":125,"x_max":654,"o":"m 125 675 l 553 675 l 553 0 l 439 0 l 439 582 l 125 582 l 125 675 m 313 914 l 654 914 l 654 835 l 313 835 l 313 914 z "},"ǐ":{"ha":833,"x_min":125,"x_max":667,"o":"m 125 675 l 553 675 l 553 0 l 439 0 l 439 582 l 125 582 l 125 675 m 300 1001 l 388 1001 l 481 864 l 486 864 l 579 1001 l 667 1001 l 532 796 l 435 796 l 300 1001 z "},"ỉ":{"ha":833,"x_min":125,"x_max":599,"o":"m 125 675 l 553 675 l 553 0 l 439 0 l 439 582 l 125 582 l 125 675 m 432 821 q 488 844 465 831 q 510 885 510 858 q 394 943 510 939 l 407 1010 q 549 978 499 1007 q 599 897 599 950 q 586 845 599 867 q 552 808 574 824 q 503 783 531 792 q 444 768 475 774 l 432 821 z "},"ị":{"ha":833,"x_min":125,"x_max":575,"o":"m 125 675 l 553 675 l 553 0 l 439 0 l 439 582 l 125 582 l 125 675 m 483 814 q 417 838 443 814 q 392 901 392 861 q 417 966 392 942 q 483 990 443 990 q 549 966 522 990 q 575 901 575 942 q 549 838 575 861 q 483 814 522 814 m 483 -314 q 418 -290 444 -314 q 392 -226 392 -267 q 418 -162 392 -186 q 483 -137 444 -137 q 549 -162 522 -137 q 575 -226 575 -186 q 549 -290 575 -267 q 483 -314 522 -314 z "},"į":{"ha":833,"x_min":125,"x_max":613,"o":"m 439 582 l 125 582 l 125 675 l 553 675 l 553 0 q 487 -68 511 -31 q 463 -146 463 -106 q 482 -194 463 -178 q 528 -210 501 -210 q 556 -205 543 -210 q 583 -192 569 -200 l 613 -249 q 562 -275 593 -264 q 504 -286 531 -286 q 415 -256 451 -286 q 378 -168 378 -226 q 386 -116 378 -140 q 408 -71 394 -92 q 436 -33 421 -50 q 465 0 451 -15 l 439 0 l 439 582 m 483 814 q 417 838 443 814 q 392 901 392 861 q 417 966 392 942 q 483 990 443 990 q 549 966 522 990 q 575 901 575 942 q 549 838 575 861 q 483 814 522 814 z "},"ı":{"ha":833,"x_min":125,"x_max":553,"o":"m 125 675 l 553 675 l 553 0 l 439 0 l 439 582 l 125 582 l 125 675 z "},"ĵ":{"ha":833,"x_min":76,"x_max":667,"o":"m 125 675 l 553 675 l 553 -17 q 539 -131 553 -79 q 492 -222 525 -183 q 406 -281 460 -260 q 269 -301 351 -301 q 167 -288 217 -301 q 76 -256 117 -275 l 114 -171 q 190 -199 150 -189 q 268 -208 229 -208 q 351 -196 318 -208 q 404 -160 385 -183 q 431 -102 424 -136 q 439 -25 439 -68 l 439 582 l 125 582 l 125 675 m 435 1001 l 532 1001 l 667 796 l 579 796 l 486 933 l 481 933 l 388 796 l 300 796 l 435 1001 z "},"ķ":{"ha":833,"x_min":147,"x_max":797,"o":"m 147 989 l 261 989 l 261 319 l 265 321 l 631 675 l 761 675 l 492 407 l 797 0 l 669 0 l 421 333 l 261 181 l 261 0 l 147 0 l 147 989 m 425 -67 q 528 -102 496 -78 q 560 -174 560 -126 q 543 -226 560 -204 q 499 -264 526 -249 q 434 -288 471 -279 q 358 -300 397 -297 l 347 -244 q 437 -223 403 -237 q 471 -181 471 -208 q 450 -140 471 -153 q 400 -119 429 -126 l 425 -67 l 425 -67 z "},"ĸ":{"ha":833,"x_min":147,"x_max":797,"o":"m 147 675 l 261 675 l 261 319 l 265 321 l 631 675 l 761 675 l 492 407 l 797 0 l 669 0 l 421 333 l 261 181 l 261 0 l 147 0 l 147 675 z "},"ĺ":{"ha":833,"x_min":113,"x_max":746,"o":"m 113 989 l 457 989 l 457 218 q 492 110 457 143 q 589 78 528 78 q 717 110 644 78 l 746 24 q 660 -5 700 7 q 564 -17 619 -17 q 399 44 456 -17 q 343 226 343 106 l 343 896 l 113 896 l 113 989 m 410 1053 l 314 1053 l 436 1208 l 567 1208 l 410 1053 z "},"ľ":{"ha":833,"x_min":113,"x_max":746,"o":"m 113 989 l 457 989 l 457 218 q 492 110 457 143 q 589 78 528 78 q 717 110 644 78 l 746 24 q 660 -5 700 7 q 564 -17 619 -17 q 399 44 456 -17 q 343 226 343 106 l 343 896 l 113 896 l 113 989 m 558 761 l 553 1056 l 635 1056 l 633 976 l 614 761 l 558 761 z "},"ŀ":{"ha":833,"x_min":60,"x_max":699,"o":"m 60 989 l 404 989 l 404 218 q 440 110 404 143 q 536 78 475 78 q 664 110 592 78 l 693 24 q 607 -5 647 7 q 511 -17 567 -17 q 347 44 403 -17 q 290 226 290 106 l 290 896 l 60 896 l 60 989 m 607 394 q 542 418 568 394 q 515 482 515 442 q 542 547 515 522 q 607 571 568 571 q 672 547 646 571 q 699 482 699 522 q 672 418 699 442 q 607 394 646 394 z "},"ļ":{"ha":833,"x_min":113,"x_max":746,"o":"m 113 989 l 457 989 l 457 218 q 492 110 457 143 q 589 78 528 78 q 717 110 644 78 l 746 24 q 660 -5 700 7 q 564 -17 619 -17 q 399 44 456 -17 q 343 226 343 106 l 343 896 l 113 896 l 113 989 m 475 -67 q 578 -102 546 -78 q 610 -174 610 -126 q 593 -226 610 -204 q 549 -264 576 -249 q 484 -288 521 -279 q 408 -300 447 -297 l 397 -244 q 487 -223 453 -237 q 521 -181 521 -208 q 500 -140 521 -153 q 450 -119 479 -126 l 475 -67 l 475 -67 z "},"ḷ":{"ha":833,"x_min":113,"x_max":746,"o":"m 113 989 l 457 989 l 457 218 q 492 110 457 143 q 589 78 528 78 q 717 110 644 78 l 746 24 q 660 -5 700 7 q 564 -17 619 -17 q 399 44 456 -17 q 343 226 343 106 l 343 896 l 113 896 l 113 989 m 515 -314 q 450 -290 476 -314 q 424 -226 424 -267 q 450 -162 424 -186 q 515 -137 476 -137 q 581 -162 554 -137 q 607 -226 607 -186 q 581 -290 607 -267 q 515 -314 554 -314 z "},"ḹ":{"ha":833,"x_min":113,"x_max":746,"o":"m 113 989 l 457 989 l 457 218 q 492 110 457 143 q 589 78 528 78 q 717 110 644 78 l 746 24 q 660 -5 700 7 q 564 -17 619 -17 q 399 44 456 -17 q 343 226 343 106 l 343 896 l 113 896 l 113 989 m 225 1222 l 567 1222 l 567 1143 l 225 1143 l 225 1222 m 515 -314 q 450 -290 476 -314 q 424 -226 424 -267 q 450 -162 424 -186 q 515 -137 476 -137 q 581 -162 554 -137 q 607 -226 607 -186 q 581 -290 607 -267 q 515 -314 554 -314 z "},"ḻ":{"ha":833,"x_min":113,"x_max":746,"o":"m 113 989 l 457 989 l 457 218 q 492 110 457 143 q 589 78 528 78 q 717 110 644 78 l 746 24 q 660 -5 700 7 q 564 -17 619 -17 q 399 44 456 -17 q 343 226 343 106 l 343 896 l 113 896 l 113 989 m 686 -237 l 343 -237 l 343 -157 l 686 -157 l 686 -237 z "},"ł":{"ha":833,"x_min":113,"x_max":746,"o":"m 746 24 q 660 -5 700 7 q 564 -17 619 -17 q 399 44 456 -17 q 343 226 343 106 l 343 461 l 171 363 l 171 460 l 343 558 l 343 896 l 113 896 l 113 989 l 457 989 l 457 618 l 683 744 l 683 646 l 457 519 l 457 218 q 492 110 457 143 q 589 78 528 78 q 717 110 644 78 l 746 24 z "},"ṃ":{"ha":833,"x_min":83,"x_max":772,"o":"m 83 675 l 172 675 l 182 586 l 186 586 q 245 663 211 633 q 338 692 279 692 q 465 575 440 692 q 532 660 496 628 q 625 692 568 692 q 734 638 696 692 q 772 483 772 585 l 772 0 l 663 0 l 663 474 q 589 593 663 593 q 526 567 553 593 q 474 489 500 542 l 474 0 l 382 0 l 382 474 q 306 593 382 593 q 244 567 269 593 q 193 489 219 542 l 193 0 l 83 0 l 83 675 m 424 -314 q 358 -290 385 -314 q 332 -226 332 -267 q 358 -162 332 -186 q 424 -137 385 -137 q 489 -162 463 -137 q 515 -226 515 -186 q 489 -290 515 -267 q 424 -314 463 -314 z "},"ń":{"ha":833,"x_min":129,"x_max":726,"o":"m 129 675 l 224 675 l 233 560 l 239 560 q 353 654 292 617 q 493 692 414 692 q 670 623 614 692 q 726 419 726 554 l 726 0 l 613 0 l 613 404 q 576 547 613 500 q 457 593 540 593 q 401 585 426 593 q 350 563 375 578 q 299 524 325 547 q 243 471 272 501 l 243 0 l 129 0 l 129 675 m 439 796 l 351 796 l 476 1001 l 601 1001 l 439 796 z "},"ň":{"ha":833,"x_min":129,"x_max":726,"o":"m 129 675 l 224 675 l 233 560 l 239 560 q 353 654 292 617 q 493 692 414 692 q 670 623 614 692 q 726 419 726 554 l 726 0 l 613 0 l 613 404 q 576 547 613 500 q 457 593 540 593 q 401 585 426 593 q 350 563 375 578 q 299 524 325 547 q 243 471 272 501 l 243 0 l 129 0 l 129 675 m 258 1001 l 346 1001 l 439 864 l 444 864 l 538 1001 l 625 1001 l 490 796 l 393 796 l 258 1001 z "},"ñ":{"ha":833,"x_min":129,"x_max":726,"o":"m 129 675 l 224 675 l 233 560 l 239 560 q 353 654 292 617 q 493 692 414 692 q 670 623 614 692 q 726 419 726 554 l 726 0 l 613 0 l 613 404 q 576 547 613 500 q 457 593 540 593 q 401 585 426 593 q 350 563 375 578 q 299 524 325 547 q 243 471 272 501 l 243 0 l 129 0 l 129 675 m 244 804 q 281 913 251 871 q 367 956 311 956 q 413 944 392 956 q 451 918 433 932 q 485 892 468 904 q 518 881 501 881 q 574 956 561 881 l 639 956 q 602 847 632 890 q 517 804 572 804 q 471 816 492 804 q 433 842 450 828 q 399 869 415 857 q 365 881 382 881 q 310 804 322 881 l 244 804 l 244 804 z "},"ņ":{"ha":833,"x_min":129,"x_max":726,"o":"m 129 675 l 224 675 l 233 560 l 239 560 q 353 654 292 617 q 493 692 414 692 q 670 623 614 692 q 726 419 726 554 l 726 0 l 613 0 l 613 404 q 576 547 613 500 q 457 593 540 593 q 401 585 426 593 q 350 563 375 578 q 299 524 325 547 q 243 471 272 501 l 243 0 l 129 0 l 129 675 m 394 -67 q 497 -102 465 -78 q 529 -174 529 -126 q 513 -226 529 -204 q 468 -264 496 -249 q 403 -288 440 -279 q 328 -300 367 -297 l 317 -244 q 406 -223 372 -237 q 440 -181 440 -208 q 419 -140 440 -153 q 369 -119 399 -126 l 394 -67 l 394 -67 z "},"ṅ":{"ha":833,"x_min":129,"x_max":726,"o":"m 129 675 l 224 675 l 233 560 l 239 560 q 353 654 292 617 q 493 692 414 692 q 670 623 614 692 q 726 419 726 554 l 726 0 l 613 0 l 613 404 q 576 547 613 500 q 457 593 540 593 q 401 585 426 593 q 350 563 375 578 q 299 524 325 547 q 243 471 272 501 l 243 0 l 129 0 l 129 675 m 442 814 q 376 838 403 814 q 350 901 350 861 q 376 966 350 942 q 442 990 403 990 q 507 966 481 990 q 533 901 533 942 q 507 838 533 861 q 442 814 481 814 z "},"ṇ":{"ha":833,"x_min":129,"x_max":726,"o":"m 129 675 l 224 675 l 233 560 l 239 560 q 353 654 292 617 q 493 692 414 692 q 670 623 614 692 q 726 419 726 554 l 726 0 l 613 0 l 613 404 q 576 547 613 500 q 457 593 540 593 q 401 585 426 593 q 350 563 375 578 q 299 524 325 547 q 243 471 272 501 l 243 0 l 129 0 l 129 675 m 435 -314 q 369 -290 396 -314 q 343 -226 343 -267 q 369 -162 343 -186 q 435 -137 396 -137 q 500 -162 474 -137 q 526 -226 526 -186 q 500 -290 526 -267 q 435 -314 474 -314 z "},"ṉ":{"ha":833,"x_min":129,"x_max":726,"o":"m 129 675 l 224 675 l 233 560 l 239 560 q 353 654 292 617 q 493 692 414 692 q 670 623 614 692 q 726 419 726 554 l 726 0 l 613 0 l 613 404 q 576 547 613 500 q 457 593 540 593 q 401 585 426 593 q 350 563 375 578 q 299 524 325 547 q 243 471 272 501 l 243 0 l 129 0 l 129 675 m 606 -237 l 263 -237 l 263 -157 l 606 -157 l 606 -237 z "},"ŉ":{"ha":833,"x_min":-31,"x_max":831,"o":"m -31 553 q 73 644 36 589 q 114 772 110 699 q 78 764 97 764 q 6 791 33 764 q -21 863 -21 818 q 8 941 -21 911 q 82 971 38 971 q 172 926 138 971 q 207 803 207 882 q 154 617 207 699 q 8 486 101 535 l -31 553 m 382 569 q 486 656 431 621 q 615 692 542 692 q 778 625 725 692 q 831 428 831 558 l 831 0 l 715 0 l 715 413 q 683 549 715 504 q 579 593 651 593 q 483 565 525 593 q 386 481 440 536 l 386 0 l 272 0 l 272 675 l 367 675 l 376 569 l 382 569 z "},"ò":{"ha":833,"x_min":83,"x_max":750,"o":"m 83 336 q 110 487 83 421 q 183 599 138 553 q 290 668 229 644 q 417 692 350 692 q 544 668 483 692 q 650 599 604 644 q 723 487 696 553 q 750 336 750 421 q 723 187 750 253 q 650 76 696 121 q 544 7 604 31 q 417 -17 483 -17 q 290 7 350 -17 q 183 76 229 31 q 110 187 138 121 q 83 336 83 253 m 201 336 q 217 231 201 278 q 260 149 232 183 q 328 97 289 115 q 417 78 368 78 q 505 97 465 78 q 573 149 544 115 q 617 231 601 183 q 632 336 632 278 q 617 442 632 394 q 573 525 601 490 q 505 578 544 560 q 417 597 465 597 q 328 578 368 597 q 260 525 289 560 q 217 442 232 490 q 201 336 201 394 m 257 1001 l 382 1001 l 507 796 l 419 796 l 257 1001 z "},"ó":{"ha":833,"x_min":83,"x_max":750,"o":"m 83 336 q 110 487 83 421 q 183 599 138 553 q 290 668 229 644 q 417 692 350 692 q 544 668 483 692 q 650 599 604 644 q 723 487 696 553 q 750 336 750 421 q 723 187 750 253 q 650 76 696 121 q 544 7 604 31 q 417 -17 483 -17 q 290 7 350 -17 q 183 76 229 31 q 110 187 138 121 q 83 336 83 253 m 201 336 q 217 231 201 278 q 260 149 232 183 q 328 97 289 115 q 417 78 368 78 q 505 97 465 78 q 573 149 544 115 q 617 231 601 183 q 632 336 632 278 q 617 442 632 394 q 573 525 601 490 q 505 578 544 560 q 417 597 465 597 q 328 578 368 597 q 260 525 289 560 q 217 442 232 490 q 201 336 201 394 m 414 796 l 326 796 l 451 1001 l 576 1001 l 414 796 z "},"ô":{"ha":833,"x_min":83,"x_max":750,"o":"m 83 336 q 110 487 83 421 q 183 599 138 553 q 290 668 229 644 q 417 692 350 692 q 544 668 483 692 q 650 599 604 644 q 723 487 696 553 q 750 336 750 421 q 723 187 750 253 q 650 76 696 121 q 544 7 604 31 q 417 -17 483 -17 q 290 7 350 -17 q 183 76 229 31 q 110 187 138 121 q 83 336 83 253 m 201 336 q 217 231 201 278 q 260 149 232 183 q 328 97 289 115 q 417 78 368 78 q 505 97 465 78 q 573 149 544 115 q 617 231 601 183 q 632 336 632 278 q 617 442 632 394 q 573 525 601 490 q 505 578 544 560 q 417 597 465 597 q 328 578 368 597 q 260 525 289 560 q 217 442 232 490 q 201 336 201 394 m 368 1001 l 465 1001 l 600 796 l 513 796 l 419 933 l 414 933 l 321 796 l 233 796 l 368 1001 z "},"õ":{"ha":833,"x_min":83,"x_max":750,"o":"m 83 336 q 110 487 83 421 q 183 599 138 553 q 290 668 229 644 q 417 692 350 692 q 544 668 483 692 q 650 599 604 644 q 723 487 696 553 q 750 336 750 421 q 723 187 750 253 q 650 76 696 121 q 544 7 604 31 q 417 -17 483 -17 q 290 7 350 -17 q 183 76 229 31 q 110 187 138 121 q 83 336 83 253 m 201 336 q 217 231 201 278 q 260 149 232 183 q 328 97 289 115 q 417 78 368 78 q 505 97 465 78 q 573 149 544 115 q 617 231 601 183 q 632 336 632 278 q 617 442 632 394 q 573 525 601 490 q 505 578 544 560 q 417 597 465 597 q 328 578 368 597 q 260 525 289 560 q 217 442 232 490 q 201 336 201 394 m 219 804 q 256 913 226 871 q 342 956 286 956 q 388 944 367 956 q 426 918 408 932 q 460 892 443 904 q 493 881 476 881 q 549 956 536 881 l 614 956 q 577 847 607 890 q 492 804 547 804 q 446 816 467 804 q 408 842 425 828 q 374 869 390 857 q 340 881 357 881 q 285 804 297 881 l 219 804 l 219 804 z "},"ö":{"ha":833,"x_min":83,"x_max":750,"o":"m 83 336 q 110 487 83 421 q 183 599 138 553 q 290 668 229 644 q 417 692 350 692 q 544 668 483 692 q 650 599 604 644 q 723 487 696 553 q 750 336 750 421 q 723 187 750 253 q 650 76 696 121 q 544 7 604 31 q 417 -17 483 -17 q 290 7 350 -17 q 183 76 229 31 q 110 187 138 121 q 83 336 83 253 m 201 336 q 217 231 201 278 q 260 149 232 183 q 328 97 289 115 q 417 78 368 78 q 505 97 465 78 q 573 149 544 115 q 617 231 601 183 q 632 336 632 278 q 617 442 632 394 q 573 525 601 490 q 505 578 544 560 q 417 597 465 597 q 328 578 368 597 q 260 525 289 560 q 217 442 232 490 q 201 336 201 394 m 283 817 q 229 839 250 817 q 208 893 208 861 q 229 947 208 925 q 283 969 250 969 q 337 947 315 969 q 358 893 358 925 q 337 839 358 861 q 283 817 315 817 m 550 817 q 497 839 518 817 q 475 893 475 861 q 497 947 475 925 q 550 969 518 969 q 604 947 583 969 q 625 893 625 925 q 604 839 625 861 q 550 817 583 817 z "},"ō":{"ha":833,"x_min":83,"x_max":750,"o":"m 83 336 q 110 487 83 421 q 183 599 138 553 q 290 668 229 644 q 417 692 350 692 q 544 668 483 692 q 650 599 604 644 q 723 487 696 553 q 750 336 750 421 q 723 187 750 253 q 650 76 696 121 q 544 7 604 31 q 417 -17 483 -17 q 290 7 350 -17 q 183 76 229 31 q 110 187 138 121 q 83 336 83 253 m 201 336 q 217 231 201 278 q 260 149 232 183 q 328 97 289 115 q 417 78 368 78 q 505 97 465 78 q 573 149 544 115 q 617 231 601 183 q 632 336 632 278 q 617 442 632 394 q 573 525 601 490 q 505 578 544 560 q 417 597 465 597 q 328 578 368 597 q 260 525 289 560 q 217 442 232 490 q 201 336 201 394 m 246 914 l 588 914 l 588 835 l 246 835 l 246 914 z "},"ő":{"ha":833,"x_min":83,"x_max":750,"o":"m 83 336 q 110 487 83 421 q 183 599 138 553 q 290 668 229 644 q 417 692 350 692 q 544 668 483 692 q 650 599 604 644 q 723 487 696 553 q 750 336 750 421 q 723 187 750 253 q 650 76 696 121 q 544 7 604 31 q 417 -17 483 -17 q 290 7 350 -17 q 183 76 229 31 q 110 187 138 121 q 83 336 83 253 m 201 336 q 217 231 201 278 q 260 149 232 183 q 328 97 289 115 q 417 78 368 78 q 505 97 465 78 q 573 149 544 115 q 617 231 601 183 q 632 336 632 278 q 617 442 632 394 q 573 525 601 490 q 505 578 544 560 q 417 597 465 597 q 328 578 368 597 q 260 525 289 560 q 217 442 232 490 q 201 336 201 394 m 378 992 l 479 992 l 357 793 l 281 793 l 378 992 m 583 992 l 683 992 l 561 793 l 485 793 l 583 992 z "},"ǒ":{"ha":833,"x_min":83,"x_max":750,"o":"m 83 336 q 110 487 83 421 q 183 599 138 553 q 290 668 229 644 q 417 692 350 692 q 544 668 483 692 q 650 599 604 644 q 723 487 696 553 q 750 336 750 421 q 723 187 750 253 q 650 76 696 121 q 544 7 604 31 q 417 -17 483 -17 q 290 7 350 -17 q 183 76 229 31 q 110 187 138 121 q 83 336 83 253 m 201 336 q 217 231 201 278 q 260 149 232 183 q 328 97 289 115 q 417 78 368 78 q 505 97 465 78 q 573 149 544 115 q 617 231 601 183 q 632 336 632 278 q 617 442 632 394 q 573 525 601 490 q 505 578 544 560 q 417 597 465 597 q 328 578 368 597 q 260 525 289 560 q 217 442 232 490 q 201 336 201 394 m 233 1001 l 321 1001 l 414 864 l 419 864 l 513 1001 l 600 1001 l 465 796 l 368 796 l 233 1001 z "},"ọ":{"ha":833,"x_min":83,"x_max":750,"o":"m 83 336 q 110 487 83 421 q 183 599 138 553 q 290 668 229 644 q 417 692 350 692 q 544 668 483 692 q 650 599 604 644 q 723 487 696 553 q 750 336 750 421 q 723 187 750 253 q 650 76 696 121 q 544 7 604 31 q 417 -17 483 -17 q 290 7 350 -17 q 183 76 229 31 q 110 187 138 121 q 83 336 83 253 m 201 336 q 217 231 201 278 q 260 149 232 183 q 328 97 289 115 q 417 78 368 78 q 505 97 465 78 q 573 149 544 115 q 617 231 601 183 q 632 336 632 278 q 617 442 632 394 q 573 525 601 490 q 505 578 544 560 q 417 597 465 597 q 328 578 368 597 q 260 525 289 560 q 217 442 232 490 q 201 336 201 394 m 418 -314 q 353 -290 379 -314 q 326 -226 326 -267 q 353 -162 326 -186 q 418 -137 379 -137 q 483 -162 457 -137 q 510 -226 510 -186 q 483 -290 510 -267 q 418 -314 457 -314 z "},"ỏ":{"ha":833,"x_min":83,"x_max":750,"o":"m 83 336 q 110 487 83 421 q 183 599 138 553 q 290 668 229 644 q 417 692 350 692 q 544 668 483 692 q 650 599 604 644 q 723 487 696 553 q 750 336 750 421 q 723 187 750 253 q 650 76 696 121 q 544 7 604 31 q 417 -17 483 -17 q 290 7 350 -17 q 183 76 229 31 q 110 187 138 121 q 83 336 83 253 m 201 336 q 217 231 201 278 q 260 149 232 183 q 328 97 289 115 q 417 78 368 78 q 505 97 465 78 q 573 149 544 115 q 617 231 601 183 q 632 336 632 278 q 617 442 632 394 q 573 525 601 490 q 505 578 544 560 q 417 597 465 597 q 328 578 368 597 q 260 525 289 560 q 217 442 232 490 q 201 336 201 394 m 365 821 q 421 844 399 831 q 443 885 443 858 q 328 943 443 939 l 340 1010 q 482 978 432 1007 q 532 897 532 950 q 519 845 532 867 q 485 808 507 824 q 436 783 464 792 q 378 768 408 774 l 365 821 z "},"ố":{"ha":833,"x_min":83,"x_max":750,"o":"m 83 336 q 110 487 83 421 q 183 599 138 553 q 290 668 229 644 q 417 692 350 692 q 544 668 483 692 q 650 599 604 644 q 723 487 696 553 q 750 336 750 421 q 723 187 750 253 q 650 76 696 121 q 544 7 604 31 q 417 -17 483 -17 q 290 7 350 -17 q 183 76 229 31 q 110 187 138 121 q 83 336 83 253 m 201 336 q 217 231 201 278 q 260 149 232 183 q 328 97 289 115 q 417 78 368 78 q 505 97 465 78 q 573 149 544 115 q 617 231 601 183 q 632 336 632 278 q 617 442 632 394 q 573 525 601 490 q 505 578 544 560 q 417 597 465 597 q 328 578 368 597 q 260 525 289 560 q 217 442 232 490 q 201 336 201 394 m 369 961 l 464 961 l 578 796 l 500 796 l 419 897 l 414 897 l 333 796 l 256 796 l 369 961 m 642 1047 l 739 1047 l 611 889 l 540 889 l 642 1047 z "},"ồ":{"ha":833,"x_min":83,"x_max":750,"o":"m 83 336 q 110 487 83 421 q 183 599 138 553 q 290 668 229 644 q 417 692 350 692 q 544 668 483 692 q 650 599 604 644 q 723 487 696 553 q 750 336 750 421 q 723 187 750 253 q 650 76 696 121 q 544 7 604 31 q 417 -17 483 -17 q 290 7 350 -17 q 183 76 229 31 q 110 187 138 121 q 83 336 83 253 m 201 336 q 217 231 201 278 q 260 149 232 183 q 328 97 289 115 q 417 78 368 78 q 505 97 465 78 q 573 149 544 115 q 617 231 601 183 q 632 336 632 278 q 617 442 632 394 q 573 525 601 490 q 505 578 544 560 q 417 597 465 597 q 328 578 368 597 q 260 525 289 560 q 217 442 232 490 q 201 336 201 394 m 369 961 l 464 961 l 578 796 l 500 796 l 419 897 l 414 897 l 333 796 l 256 796 l 369 961 m 696 889 l 625 889 l 497 1047 l 593 1047 l 696 889 z "},"ổ":{"ha":833,"x_min":83,"x_max":750,"o":"m 83 336 q 110 487 83 421 q 183 599 138 553 q 290 668 229 644 q 417 692 350 692 q 544 668 483 692 q 650 599 604 644 q 723 487 696 553 q 750 336 750 421 q 723 187 750 253 q 650 76 696 121 q 544 7 604 31 q 417 -17 483 -17 q 290 7 350 -17 q 183 76 229 31 q 110 187 138 121 q 83 336 83 253 m 201 336 q 217 231 201 278 q 260 149 232 183 q 328 97 289 115 q 417 78 368 78 q 505 97 465 78 q 573 149 544 115 q 617 231 601 183 q 632 336 632 278 q 617 442 632 394 q 573 525 601 490 q 505 578 544 560 q 417 597 465 597 q 328 578 368 597 q 260 525 289 560 q 217 442 232 490 q 201 336 201 394 m 369 961 l 464 961 l 578 796 l 500 796 l 419 897 l 414 897 l 333 796 l 256 796 l 369 961 m 565 921 q 608 940 592 928 q 624 975 624 953 q 601 1016 624 1003 q 528 1032 579 1029 l 538 1089 q 663 1061 619 1086 q 707 988 707 1036 q 696 940 707 960 q 667 908 685 921 q 626 886 649 894 q 578 872 603 878 l 565 921 z "},"ỗ":{"ha":833,"x_min":83,"x_max":750,"o":"m 83 336 q 110 487 83 421 q 183 599 138 553 q 290 668 229 644 q 417 692 350 692 q 544 668 483 692 q 650 599 604 644 q 723 487 696 553 q 750 336 750 421 q 723 187 750 253 q 650 76 696 121 q 544 7 604 31 q 417 -17 483 -17 q 290 7 350 -17 q 183 76 229 31 q 110 187 138 121 q 83 336 83 253 m 201 336 q 217 231 201 278 q 260 149 232 183 q 328 97 289 115 q 417 78 368 78 q 505 97 465 78 q 573 149 544 115 q 617 231 601 183 q 632 336 632 278 q 617 442 632 394 q 573 525 601 490 q 505 578 544 560 q 417 597 465 597 q 328 578 368 597 q 260 525 289 560 q 217 442 232 490 q 201 336 201 394 m 364 938 l 469 938 l 589 793 l 508 793 l 419 883 l 414 883 l 325 793 l 244 793 l 364 938 m 235 988 q 268 1078 240 1043 q 344 1114 296 1114 q 390 1105 371 1114 q 424 1084 408 1096 q 455 1063 440 1072 q 486 1054 469 1054 q 540 1114 531 1054 l 599 1114 q 565 1023 593 1058 q 489 988 538 988 q 444 997 463 988 q 409 1017 425 1006 q 378 1038 393 1029 q 347 1047 364 1047 q 293 988 303 1047 l 235 988 z "},"ộ":{"ha":833,"x_min":83,"x_max":750,"o":"m 83 336 q 110 487 83 421 q 183 599 138 553 q 290 668 229 644 q 417 692 350 692 q 544 668 483 692 q 650 599 604 644 q 723 487 696 553 q 750 336 750 421 q 723 187 750 253 q 650 76 696 121 q 544 7 604 31 q 417 -17 483 -17 q 290 7 350 -17 q 183 76 229 31 q 110 187 138 121 q 83 336 83 253 m 201 336 q 217 231 201 278 q 260 149 232 183 q 328 97 289 115 q 417 78 368 78 q 505 97 465 78 q 573 149 544 115 q 617 231 601 183 q 632 336 632 278 q 617 442 632 394 q 573 525 601 490 q 505 578 544 560 q 417 597 465 597 q 328 578 368 597 q 260 525 289 560 q 217 442 232 490 q 201 336 201 394 m 368 1001 l 465 1001 l 600 796 l 513 796 l 419 933 l 414 933 l 321 796 l 233 796 l 368 1001 m 417 -314 q 351 -290 378 -314 q 325 -226 325 -267 q 351 -162 325 -186 q 417 -137 378 -137 q 482 -162 456 -137 q 508 -226 508 -186 q 482 -290 508 -267 q 417 -314 456 -314 z "},"ø":{"ha":833,"x_min":83,"x_max":750,"o":"m 279 128 q 417 75 336 75 q 505 94 465 75 q 573 148 544 114 q 617 230 601 182 q 632 336 632 278 q 622 422 632 382 q 594 494 613 463 l 279 128 m 553 547 q 492 586 526 572 q 417 600 457 600 q 328 581 368 600 q 260 526 289 561 q 217 443 232 492 q 201 336 201 394 q 211 251 201 290 q 239 181 221 213 l 553 547 m 668 581 q 728 474 706 536 q 750 336 750 413 q 723 187 750 253 q 650 76 696 121 q 544 7 604 31 q 417 -17 483 -17 q 214 50 301 -17 l 143 -32 l 92 8 l 165 94 q 106 200 128 139 q 83 336 83 261 q 110 487 83 421 q 183 599 138 553 q 290 668 229 644 q 417 692 350 692 q 619 625 532 692 l 690 707 l 742 667 l 668 581 z "},"œ":{"ha":833,"x_min":15,"x_max":828,"o":"m 122 338 q 131 231 122 279 q 158 149 140 183 q 203 96 176 115 q 265 76 229 76 q 322 96 296 76 q 365 149 347 115 q 393 231 383 183 q 403 338 403 279 q 393 443 403 396 q 365 525 383 490 q 322 578 347 560 q 265 597 296 597 q 203 578 229 597 q 158 525 176 560 q 131 443 140 490 q 122 338 122 396 m 15 338 q 34 488 15 422 q 86 599 53 554 q 164 668 119 644 q 260 692 208 692 q 373 649 325 692 q 449 529 421 607 q 522 649 476 606 q 633 692 567 692 q 717 667 681 692 q 778 600 754 642 q 815 502 803 558 q 828 383 828 446 q 827 348 828 364 q 824 310 826 332 l 489 310 q 535 140 494 204 q 650 75 575 75 q 713 87 686 75 q 768 118 740 99 l 808 43 q 735 1 776 19 q 646 -17 694 -17 q 529 23 579 -17 q 449 139 479 63 q 260 -17 389 -17 q 163 7 207 -17 q 85 76 118 31 q 34 187 53 121 q 15 338 15 253 m 733 386 q 728 468 733 429 q 710 537 722 507 q 676 584 697 567 q 625 601 656 601 q 529 544 563 601 q 488 386 496 486 l 733 386 z "},"ơ":{"ha":833,"x_min":83,"x_max":772,"o":"m 417 78 q 505 97 465 78 q 573 149 544 115 q 617 231 601 183 q 632 336 632 278 q 617 442 632 394 q 573 525 601 490 q 505 578 544 560 q 417 597 465 597 q 328 578 368 597 q 260 525 289 560 q 217 442 232 490 q 201 336 201 394 q 217 231 201 278 q 260 149 232 183 q 328 97 289 115 q 417 78 368 78 m 739 851 q 763 810 754 832 q 772 761 772 788 q 733 665 772 700 q 633 615 694 631 q 718 499 686 569 q 750 336 750 429 q 723 187 750 253 q 650 76 696 121 q 544 7 604 31 q 417 -17 483 -17 q 290 7 350 -17 q 183 76 229 31 q 110 187 138 121 q 83 336 83 253 q 110 487 83 421 q 183 599 138 553 q 290 668 229 644 q 417 692 350 692 q 560 661 492 692 q 649 691 621 669 q 678 753 678 713 q 672 783 678 768 q 657 811 667 797 l 739 851 z "},"ớ":{"ha":833,"x_min":83,"x_max":772,"o":"m 417 78 q 505 97 465 78 q 573 149 544 115 q 617 231 601 183 q 632 336 632 278 q 617 442 632 394 q 573 525 601 490 q 505 578 544 560 q 417 597 465 597 q 328 578 368 597 q 260 525 289 560 q 217 442 232 490 q 201 336 201 394 q 217 231 201 278 q 260 149 232 183 q 328 97 289 115 q 417 78 368 78 m 739 851 q 763 810 754 832 q 772 761 772 788 q 733 665 772 700 q 633 615 694 631 q 718 499 686 569 q 750 336 750 429 q 723 187 750 253 q 650 76 696 121 q 544 7 604 31 q 417 -17 483 -17 q 290 7 350 -17 q 183 76 229 31 q 110 187 138 121 q 83 336 83 253 q 110 487 83 421 q 183 599 138 553 q 290 668 229 644 q 417 692 350 692 q 560 661 492 692 q 649 691 621 669 q 678 753 678 713 q 672 783 678 768 q 657 811 667 797 l 739 851 m 414 796 l 326 796 l 451 1001 l 576 1001 l 414 796 z "},"ờ":{"ha":833,"x_min":83,"x_max":772,"o":"m 417 78 q 505 97 465 78 q 573 149 544 115 q 617 231 601 183 q 632 336 632 278 q 617 442 632 394 q 573 525 601 490 q 505 578 544 560 q 417 597 465 597 q 328 578 368 597 q 260 525 289 560 q 217 442 232 490 q 201 336 201 394 q 217 231 201 278 q 260 149 232 183 q 328 97 289 115 q 417 78 368 78 m 739 851 q 763 810 754 832 q 772 761 772 788 q 733 665 772 700 q 633 615 694 631 q 718 499 686 569 q 750 336 750 429 q 723 187 750 253 q 650 76 696 121 q 544 7 604 31 q 417 -17 483 -17 q 290 7 350 -17 q 183 76 229 31 q 110 187 138 121 q 83 336 83 253 q 110 487 83 421 q 183 599 138 553 q 290 668 229 644 q 417 692 350 692 q 560 661 492 692 q 649 691 621 669 q 678 753 678 713 q 672 783 678 768 q 657 811 667 797 l 739 851 m 257 1001 l 382 1001 l 507 796 l 419 796 l 257 1001 z "},"ở":{"ha":833,"x_min":83,"x_max":772,"o":"m 417 78 q 505 97 465 78 q 573 149 544 115 q 617 231 601 183 q 632 336 632 278 q 617 442 632 394 q 573 525 601 490 q 505 578 544 560 q 417 597 465 597 q 328 578 368 597 q 260 525 289 560 q 217 442 232 490 q 201 336 201 394 q 217 231 201 278 q 260 149 232 183 q 328 97 289 115 q 417 78 368 78 m 739 851 q 763 810 754 832 q 772 761 772 788 q 733 665 772 700 q 633 615 694 631 q 718 499 686 569 q 750 336 750 429 q 723 187 750 253 q 650 76 696 121 q 544 7 604 31 q 417 -17 483 -17 q 290 7 350 -17 q 183 76 229 31 q 110 187 138 121 q 83 336 83 253 q 110 487 83 421 q 183 599 138 553 q 290 668 229 644 q 417 692 350 692 q 560 661 492 692 q 649 691 621 669 q 678 753 678 713 q 672 783 678 768 q 657 811 667 797 l 739 851 m 365 821 q 421 844 399 831 q 443 885 443 858 q 328 943 443 939 l 340 1010 q 482 978 432 1007 q 532 897 532 950 q 519 845 532 867 q 485 808 507 824 q 436 783 464 792 q 378 768 408 774 l 365 821 z "},"ỡ":{"ha":833,"x_min":83,"x_max":772,"o":"m 417 78 q 505 97 465 78 q 573 149 544 115 q 617 231 601 183 q 632 336 632 278 q 617 442 632 394 q 573 525 601 490 q 505 578 544 560 q 417 597 465 597 q 328 578 368 597 q 260 525 289 560 q 217 442 232 490 q 201 336 201 394 q 217 231 201 278 q 260 149 232 183 q 328 97 289 115 q 417 78 368 78 m 739 851 q 763 810 754 832 q 772 761 772 788 q 733 665 772 700 q 633 615 694 631 q 718 499 686 569 q 750 336 750 429 q 723 187 750 253 q 650 76 696 121 q 544 7 604 31 q 417 -17 483 -17 q 290 7 350 -17 q 183 76 229 31 q 110 187 138 121 q 83 336 83 253 q 110 487 83 421 q 183 599 138 553 q 290 668 229 644 q 417 692 350 692 q 560 661 492 692 q 649 691 621 669 q 678 753 678 713 q 672 783 678 768 q 657 811 667 797 l 739 851 m 219 804 q 256 913 226 871 q 342 956 286 956 q 388 944 367 956 q 426 918 408 932 q 460 892 443 904 q 493 881 476 881 q 549 956 536 881 l 614 956 q 577 847 607 890 q 492 804 547 804 q 446 816 467 804 q 408 842 425 828 q 374 869 390 857 q 340 881 357 881 q 285 804 297 881 l 219 804 l 219 804 z "},"ợ":{"ha":833,"x_min":83,"x_max":772,"o":"m 417 78 q 505 97 465 78 q 573 149 544 115 q 617 231 601 183 q 632 336 632 278 q 617 442 632 394 q 573 525 601 490 q 505 578 544 560 q 417 597 465 597 q 328 578 368 597 q 260 525 289 560 q 217 442 232 490 q 201 336 201 394 q 217 231 201 278 q 260 149 232 183 q 328 97 289 115 q 417 78 368 78 m 739 851 q 763 810 754 832 q 772 761 772 788 q 733 665 772 700 q 633 615 694 631 q 718 499 686 569 q 750 336 750 429 q 723 187 750 253 q 650 76 696 121 q 544 7 604 31 q 417 -17 483 -17 q 290 7 350 -17 q 183 76 229 31 q 110 187 138 121 q 83 336 83 253 q 110 487 83 421 q 183 599 138 553 q 290 668 229 644 q 417 692 350 692 q 560 661 492 692 q 649 691 621 669 q 678 753 678 713 q 672 783 678 768 q 657 811 667 797 l 739 851 m 418 -314 q 353 -290 379 -314 q 326 -226 326 -267 q 353 -162 326 -186 q 418 -137 379 -137 q 483 -162 457 -137 q 510 -226 510 -186 q 483 -290 510 -267 q 418 -314 457 -314 z "},"ǫ":{"ha":833,"x_min":83,"x_max":750,"o":"m 325 -168 q 333 -119 325 -142 q 351 -76 340 -96 q 376 -40 363 -56 q 401 -15 390 -25 q 278 13 336 -12 q 176 83 219 38 q 108 192 133 128 q 83 336 83 256 q 110 487 83 421 q 183 599 138 553 q 290 668 229 644 q 417 692 350 692 q 544 668 483 692 q 650 599 604 644 q 723 487 696 553 q 750 336 750 421 q 733 212 750 265 q 684 117 715 158 q 608 47 653 76 q 508 -6 564 17 q 435 -67 460 -28 q 410 -146 410 -106 q 429 -194 410 -178 q 474 -210 449 -210 q 503 -205 490 -210 q 529 -192 517 -200 l 560 -249 q 508 -275 540 -264 q 450 -286 476 -286 q 361 -256 397 -286 q 325 -168 325 -226 m 201 336 q 217 231 201 278 q 260 149 232 183 q 328 97 289 115 q 417 78 368 78 q 505 97 465 78 q 573 149 544 115 q 617 231 601 183 q 632 336 632 278 q 617 442 632 394 q 573 525 601 490 q 505 578 544 560 q 417 597 465 597 q 328 578 368 597 q 260 525 289 560 q 217 442 232 490 q 201 336 201 394 z "},"ŕ":{"ha":833,"x_min":203,"x_max":744,"o":"m 203 675 l 297 675 l 307 515 l 311 515 q 441 644 364 597 q 613 692 518 692 q 681 685 650 692 q 744 664 713 679 l 721 565 q 660 583 685 578 q 594 589 635 589 q 448 545 518 589 q 317 396 378 501 l 317 0 l 203 0 l 203 675 m 472 796 l 385 796 l 510 1001 l 635 1001 l 472 796 z "},"ŗ":{"ha":833,"x_min":161,"x_max":744,"o":"m 203 675 l 297 675 l 307 515 l 311 515 q 441 644 364 597 q 613 692 518 692 q 681 685 650 692 q 744 664 713 679 l 721 565 q 660 583 685 578 q 594 589 635 589 q 448 545 518 589 q 317 396 378 501 l 317 0 l 203 0 l 203 675 m 239 -67 q 342 -102 310 -78 q 374 -174 374 -126 q 357 -226 374 -204 q 313 -264 340 -249 q 248 -288 285 -279 q 172 -300 211 -297 l 161 -244 q 251 -223 217 -237 q 285 -181 285 -208 q 264 -140 285 -153 q 214 -119 243 -126 l 239 -67 l 239 -67 z "},"ř":{"ha":833,"x_min":203,"x_max":744,"o":"m 203 675 l 297 675 l 307 515 l 311 515 q 441 644 364 597 q 613 692 518 692 q 681 685 650 692 q 744 664 713 679 l 721 565 q 660 583 685 578 q 594 589 635 589 q 448 545 518 589 q 317 396 378 501 l 317 0 l 203 0 l 203 675 m 292 1001 l 379 1001 l 472 864 l 478 864 l 571 1001 l 658 1001 l 524 796 l 426 796 l 292 1001 z "},"ṛ":{"ha":833,"x_min":188,"x_max":744,"o":"m 203 675 l 297 675 l 307 515 l 311 515 q 441 644 364 597 q 613 692 518 692 q 681 685 650 692 q 744 664 713 679 l 721 565 q 660 583 685 578 q 594 589 635 589 q 448 545 518 589 q 317 396 378 501 l 317 0 l 203 0 l 203 675 m 279 -314 q 214 -290 240 -314 q 188 -226 188 -267 q 214 -162 188 -186 q 279 -137 240 -137 q 344 -162 318 -137 q 371 -226 371 -186 q 344 -290 371 -267 q 279 -314 318 -314 z "}}}
